<svg width="0" height="0" viewBox="0 0 0 0" xmlns="http://www.w3.org/2000/svg" xmlns:xlink="http://www.w3.org/1999/xlink" style="display: none;" >
	<symbol id="icon-arrow-right" viewBox="0 0 12 22">
		<desc>Icon of Right Arrow</desc>
		<polygon points="0.9,22 0.1,21.3 10.4,11 0.1,0.7 0.9,0 11.9,11 "/>
	</symbol>
	<symbol id="icon-enquiry" viewBox="0 0 40 40">
		<desc>Question Mark in a Circle Icon</desc>
		<path d="M32.5,20c0,2.3-0.6,4.4-1.7,6.3c-1.1,1.9-2.6,3.4-4.5,4.5c-1.9,1.1-4.1,1.7-6.3,1.7c-2.3,0-4.4-0.6-6.3-1.7c-1.9-1.1-3.4-2.6-4.5-4.5c-1.1-1.9-1.7-4.1-1.7-6.3c0-2.3,0.6-4.4,1.7-6.3c1.1-1.9,2.6-3.4,4.5-4.5c1.9-1.1,4.1-1.7,6.3-1.7c2.3,0,4.4,0.6,6.3,1.7c1.9,1.1,3.4,2.6,4.5,4.5C31.9,15.6,32.5,17.7,32.5,20L32.5,20z M20,8.4c-2.1,0-4.1,0.5-5.9,1.6c-1.8,1-3.2,2.4-4.2,4.2c-1.1,1.8-1.6,3.8-1.6,5.9c0,2.1,0.5,4.1,1.6,5.9c1,1.8,2.4,3.2,4.2,4.2c1.8,1.1,3.8,1.6,5.9,1.6c2.1,0,4.1-0.5,5.9-1.6c1.8-1,3.2-2.4,4.2-4.2c1.1-1.8,1.6-3.8,1.6-5.9c0-2.1-0.5-4.1-1.6-5.9c-1-1.8-2.4-3.2-4.2-4.2C24.1,8.9,22.1,8.4,20,8.4L20,8.4z M19,22.4c0-1.8,0.4-2.1,1.7-3.4c1-1,2.1-1.9,2.1-3.4c0-1.5-1-2.6-2.5-2.6c-1.6,0-2.7,1.1-2.9,2.6l-2.2-0.2c0.4-2.6,2.5-4.1,5.1-4.1c2.6,0,4.7,1.5,4.7,4.3c0,2.1-1.3,3.3-2.7,4.6c-1,1-1.2,1.3-1.2,2.7v1.1h-2V22.4z M21.4,27.4c0,0.8-0.7,1.4-1.4,1.4s-1.4-0.6-1.4-1.4s0.6-1.4,1.4-1.4S21.4,26.6,21.4,27.4z"/>
	</symbol>
	<symbol id="icon-quote" viewBox="0 0 60 40">
		<desc>Get a Quote Dollar Icon</desc>
		<path d="M32.2,31.6V35h-3.7v-3.4c-4.6-0.8-6.7-4.5-6.7-4.5l2.9-2.5c0,0,2,3.4,5.4,3.4c2,0,4-0.8,4-2.6c0-1.9-1.5-2.6-4.1-3.5c-3.4-1.2-7.1-3-7.1-7.2c0-2.8,2.2-5.5,5.7-6.2V5h3.7v3.5c3.5,0.8,5.4,3.4,5.4,3.4l-2.7,2.7c0,0-1.9-2.6-4.8-2.6c-2,0-3.5,1.2-3.5,2.8c0,2,1.8,2.6,4.9,3.8c3.5,1.3,6.4,2.9,6.4,7C38.1,28.9,35.6,31,32.2,31.6z"/>
	</symbol>
	<symbol id="icon-brochures" viewBox="0 0 60 40">
		<desc>Download a Brochure Icon</desc>
		<path d="M43,11.5l-2.8-0.3L39,25L43,11.5z M38.5,7.7L35.9,8l0.8,19.9L38.5,7.7z M36.4,31.3l-1.4,0.2L24.3,33l11.8,1.5L36.4,31.3zM17,7.9L18,32l16.8-2.5l-1-24.1L17,7.9z"/>
	</symbol>
	<symbol id="icon-service" viewBox="0 0 60 40">
		<desc>Book a Service Spanner Icon</desc>
		<path d="M37.8,10.4C37.1,9.7,37.4,9,38,8.4s3.3-3.2,3.3-3.2s-5-2.2-8.5,1.3s-1.5,8-1.5,8s-13.9,14-15.3,15.2s-1.7,2.2-1.3,3l2.7,2.7c0.8,0.4,1.8,0.1,3-1.3c1.2-1.4,15.3-15.2,15.3-15.2s4.6,2,8-1.5s1.3-8.5,1.3-8.5s-2.7,2.7-3.3,3.2c-0.6,0.6-1.3,0.8-1.9,0.2L37.8,10.4z M19.6,30.6c0.6,0.6,0.6,1.6,0,2.2s-1.6,0.6-2.2,0s-0.6-1.6,0-2.2S19,30,19.6,30.6z"/>
	</symbol>
	<symbol id="icon-test-drive" viewBox="0 0 60 40">
		<desc>Book a Test Drive steering wheel Icon</desc>
		<path d="M30,8.4h-0.2c-4.3,0-8.7,0.2-9.7,1.8c-1,1.6-5.2,9-5.2,10.8v10.5h4.3v-2.8h21.5v2.8H45V21.1c0-1.9-4.2-9.2-5.2-10.8C38.8,8.6,34.3,8.4,30,8.4z M20.8,27h-2.5l-0.5-1.7h3V27z M24.3,21.6l-6.5-0.4v0c0.1-0.4,0.4-1.2,1-2.3l5.5,0.9V21.6z M20.9,14.6c0.5-0.9,1-1.8,1.6-2.7c0.6-0.3,2.4-0.7,7.3-0.7h0.4c4.9,0,6.7,0.3,7.3,0.7c0.5,0.9,1.1,1.9,1.6,2.7H20.9z M41.6,27.1h-2.5v-1.7h3L41.6,27.1z M42.1,21.2l-6.7,0.4v-1.9l5.7-0.9C41.7,19.9,42,20.8,42.1,21.2z"/>
	</symbol>
	<symbol id="icon-arrow-left" viewBox="0 0 11 18">
		<desc>Icon of Left Arrow</desc>
		<polygon points="8.6,17.3 0,8.6 8.6,0 10.1,1.4 2.8,8.6 10.1,15.9"/>
	</symbol>
		<symbol id="icon-list" viewBox="0 0 25 25">
		<desc>Icon of 3 Horizontal Lines</desc>
		<path d="M21.5,7h-18V4h18V7z M21.5,11.01h-18v3h18V11.01z M21.5,18h-18v3h18V18z"/>
	</symbol>
	<symbol id="icon-thumb" viewBox="0 0 25 25">
		<desc>Icon of a 4 square Quandrant</desc>
		<path d="M11,11.01H3v-8h8V11.01z M22,3.01h-8v8h8V3.01z M11,14.01H3v8h8V14.01z M22,14.01h-8v8h8V14.01z"/>
	</symbol>
	<symbol id="icon-gallery" viewBox="0 0 25 25">
		<desc>Icon of a car</desc>
		<path d="M22.5,20.16c0,0.62-0.47,1.13-1.09,1.13h-1.15c-0.63,0-1.09-0.51-1.09-1.13v-1.08H5.83v1.08c0,0.62-0.47,1.13-1.09,1.13H3.59c-0.63,0-1.09-0.51-1.09-1.13v-8.72l2.29-6.57c0.25-0.76,0.78-1.13,1.61-1.13h12.19c0.83,0,1.37,0.37,1.61,1.13l2.29,6.57V20.16z M5.23,15.33c0.33,0.31,0.72,0.46,1.17,0.46c0.46,0,0.85-0.15,1.17-0.46c0.33-0.31,0.49-0.71,0.49-1.18s-0.17-0.87-0.49-1.18c-0.33-0.31-0.72-0.46-1.17-0.46c-0.46,0-0.85,0.15-1.17,0.46c-0.33,0.31-0.5,0.71-0.5,1.18S4.91,15.03,5.23,15.33L5.23,15.33z M17.42,15.33c0.33,0.31,0.72,0.46,1.17,0.46c0.46,0,0.85-0.15,1.17-0.46c0.33-0.31,0.5-0.71,0.5-1.18s-0.17-0.87-0.5-1.18c-0.33-0.31-0.72-0.46-1.17-0.46c-0.46,0-0.85,0.15-1.17,0.46c-0.33,0.31-0.49,0.71-0.49,1.18S17.1,15.03,17.42,15.33L17.42,15.33z M4.74,10.31h15.52l-1.67-4.93H6.41L4.74,10.31z"/>
	</symbol>
	<symbol id="icon-make-offer-sm" viewBox="0 0 25 25">
		<desc>Hand Offering Cash Icon</desc>
		<path d="M6.99,9.92v2.29H4.04c-0.63,0-1.14-0.51-1.14-1.14c0-0.63,0.51-1.15,1.14-1.15H6.99z M2.64,12.85c-0.63,0-1.14,0.51-1.14,1.15c0,0.63,0.51,1.15,1.14,1.15h4.35v-2.29H2.64z M4.04,15.78c-0.63,0-1.14,0.51-1.14,1.15c0,0.63,0.51,1.15,1.14,1.15h2.95v-2.29H4.04z M5.24,6.98c-0.63,0-1.15,0.51-1.15,1.15c0,0.63,0.51,1.14,1.15,1.14h1.76V6.98L5.24,6.98L5.24,6.98z M17.76,15.83h-2.39c-0.69,0-1.25,0.56-1.25,1.25c0,0.69,0.56,1.25,1.25,1.25h2.39h0.51h1.62c1.99,0,3.62-1.77,3.62-3.94v-3.5c0-2.17-1.62-3.94-3.62-3.94h-1.57v8.88H17.76z M8.9,4.2v16.63h7.45v-0.76h-1.27c-1.5,0-2.82-1.4-2.82-2.99c0-1.61,1.29-2.98,2.82-2.98h1.27V4.2H8.9 M14.42,9.7C14.2,9.45,13.8,9.22,13.23,9l-0.34-0.13V7.22c0.47,0.04,0.94,0.15,1.41,0.33l0.33-0.83c-0.55-0.23-1.13-0.35-1.74-0.37V5.61h-0.6v0.76c-0.56,0.06-1,0.22-1.32,0.49c-0.32,0.27-0.49,0.61-0.49,1.03c0,0.39,0.11,0.72,0.34,0.98c0.23,0.26,0.59,0.49,1.08,0.68l0.38,0.14v1.69c-0.27,0-0.59-0.05-0.93-0.13c-0.35-0.09-0.65-0.19-0.91-0.32v0.95c0.48,0.22,1.09,0.33,1.84,0.34v0.96h0.6V12.2c0.6-0.07,1.06-0.24,1.38-0.53c0.32-0.28,0.48-0.64,0.48-1.08C14.75,10.24,14.64,9.94,14.42,9.7z M11.73,7.46c0.13-0.11,0.31-0.19,0.55-0.22v1.41C12,8.54,11.81,8.42,11.7,8.31c-0.11-0.11-0.16-0.26-0.16-0.43C11.54,7.71,11.6,7.57,11.73,7.46z M12.89,11.35V9.9c0.29,0.11,0.49,0.22,0.61,0.33c0.12,0.11,0.18,0.26,0.18,0.43C13.68,11.04,13.42,11.26,12.89,11.35z M7.85,3.15h9.54v12h-2.32c-0.98,0-1.78,0.95-1.78,1.93c0,0.98,0.8,1.95,1.78,1.95h2.32v2.85H7.85V3.15L7.85,3.15z"/>
	</symbol>
	<symbol id="icon-email-sm" viewBox="0 0 25 25">
		<desc>Envelope Icon</desc>
		<path d="M22.5,5.66c0-0.01-0.01-0.03-0.01-0.04c0-0.09-0.02-0.18-0.05-0.26c0-0.01,0-0.02-0.01-0.04c0,0,0-0.01,0-0.01c-0.04-0.09-0.1-0.17-0.16-0.24c-0.02-0.02-0.04-0.03-0.06-0.05c-0.06-0.05-0.12-0.09-0.18-0.12c-0.03-0.01-0.05-0.03-0.08-0.04c-0.09-0.04-0.19-0.06-0.3-0.06H3.37c0,0-0.01,0-0.01,0C2.88,4.8,2.5,5.19,2.5,5.66c0,0.04,0.01,0.08,0.01,0.12v13.59c0,0.01,0.01,0.02,0.01,0.03c0,0.1,0.02,0.2,0.06,0.29c0,0,0,0,0,0c0,0.01,0.01,0.02,0.01,0.02c0.04,0.08,0.09,0.16,0.15,0.22c0.02,0.02,0.04,0.04,0.07,0.06c0.05,0.05,0.11,0.09,0.18,0.12c0.03,0.01,0.05,0.03,0.08,0.04c0.09,0.04,0.19,0.06,0.3,0.06h18.27c0.11,0,0.2-0.02,0.3-0.06c0.03-0.01,0.05-0.03,0.08-0.04c0.06-0.03,0.12-0.07,0.18-0.12c0.02-0.02,0.04-0.04,0.07-0.06c0.06-0.07,0.11-0.14,0.15-0.22c0-0.01,0.01-0.01,0.01-0.02c0,0,0,0,0,0c0.04-0.1,0.05-0.2,0.06-0.29c0-0.01,0.01-0.02,0.01-0.03V5.66z M19.72,6.52l-7.21,7.98L5.3,6.52H19.72z M20.79,7.88v9.44l-4.51-4.45L20.79,7.88z M8.74,12.87l-4.51,4.45V7.88L8.74,12.87z M5.46,18.51l4.43-4.37l1.99,2.2c0.16,0.18,0.39,0.28,0.63,0.28s0.47-0.1,0.63-0.28l1.99-2.2l4.43,4.37H5.46z"/>
	</symbol>
	<symbol id="icon-enquiry-sm" viewBox="0 0 25 25">
		<desc>List Symbol of Lines and Dots Icon</desc>
		<path d="M5.65,7.12c0,0.87-0.7,1.57-1.57,1.57S2.5,7.99,2.5,7.12s0.7-1.57,1.57-1.57S5.65,6.25,5.65,7.12z M7.8,8.55h14.7V5.97H7.8V8.55z M7.8,11.28h14.7v2.58H7.8V11.28z M7.81,16.58H22.5v2.58H7.81V16.58z M5.65,12.72c0,0.87-0.7,1.57-1.57,1.57s-1.57-0.7-1.57-1.57s0.7-1.57,1.57-1.57S5.65,11.85,5.65,12.72z M4.07,16.33c-0.87,0-1.57,0.7-1.57,1.57c0,0.87,0.7,1.57,1.57,1.57s1.57-0.7,1.57-1.57C5.65,17.04,4.94,16.33,4.07,16.33z"/>
	</symbol>
	<symbol id="icon-calculator-sm" viewBox="0 0 25 25">
		<desc>Calculator Icon</desc>
		<path d="M18.2,2.51H6.8C5.25,2.51,4,3.77,4,5.32v14.39v0c0,1.55,1.25,2.8,2.8,2.8H18.2c1.55,0,2.8-1.25,2.8-2.8v0V5.32C21,3.77,19.75,2.51,18.2,2.51z M9.62,19.68c0,0.46-0.37,0.83-0.83,0.83H6.45c-0.46,0-0.83-0.37-0.83-0.83v-0.83c0-0.46,0.37-0.83,0.83-0.83H8.8c0.46,0,0.83,0.37,0.83,0.83V19.68z M9.62,16.04c0,0.46-0.37,0.83-0.83,0.83H6.45c-0.46,0-0.83-0.37-0.83-0.83v-0.83c0-0.46,0.37-0.83,0.83-0.83H8.8c0.46,0,0.83,0.37,0.83,0.83V16.04z M9.62,12.4c0,0.46-0.37,0.83-0.83,0.83H6.45c-0.46,0-0.83-0.37-0.83-0.83v-0.83c0-0.46,0.37-0.83,0.83-0.83H8.8c0.46,0,0.83,0.37,0.83,0.83V12.4z M14.45,19.68c0,0.46-0.37,0.83-0.83,0.83h-2.34c-0.46,0-0.83-0.37-0.83-0.83v-0.83c0-0.46,0.37-0.83,0.83-0.83h2.34c0.46,0,0.83,0.37,0.83,0.83L14.45,19.68L14.45,19.68z M14.45,16.04c0,0.46-0.37,0.83-0.83,0.83h-2.34c-0.46,0-0.83-0.37-0.83-0.83v-0.83c0-0.46,0.37-0.83,0.83-0.83h2.34c0.46,0,0.83,0.37,0.83,0.83L14.45,16.04L14.45,16.04z M14.47,12.47c0,0.46-0.37,0.83-0.83,0.83H11.3c-0.46,0-0.83-0.37-0.83-0.83v-0.83c0-0.46,0.37-0.83,0.83-0.83h2.34c0.46,0,0.83,0.37,0.83,0.83V12.47z M19.28,19.68c0,0.46-0.37,0.83-0.83,0.83h-2.34c-0.46,0-0.83-0.37-0.83-0.83v-0.83c0-0.46,0.37-0.83,0.83-0.83h2.34c0.46,0,0.83,0.37,0.83,0.83L19.28,19.68L19.28,19.68z M19.28,16.04c0,0.46-0.37,0.83-0.83,0.83h-2.34c-0.46,0-0.83-0.37-0.83-0.83v-0.83c0-0.46,0.37-0.83,0.83-0.83h2.34c0.46,0,0.83,0.37,0.83,0.83L19.28,16.04L19.28,16.04z M19.29,12.49c0,0.46-0.37,0.83-0.83,0.83h-2.34c-0.46,0-0.83-0.37-0.83-0.83v-0.83c0-0.46,0.37-0.83,0.83-0.83h2.34c0.46,0,0.83,0.37,0.83,0.83V12.49z M19.46,8.68c0,0.41-0.33,0.75-0.75,0.75H6.22c-0.41,0-0.75-0.33-0.75-0.75v-3.3c0-0.41,0.33-0.75,0.75-0.75h12.5c0.41,0,0.75,0.33,0.75,0.75L19.46,8.68L19.46,8.68z"/>
	</symbol>
	<symbol id="icon-test-drive-sm" viewBox="0 0 25 25">
		<desc>Book a Test Drive steering wheel Icon</desc>
		<path d="M12.5,2.51c-5.38-0.09-10.09,4.62-10,10c-0.09,5.38,4.62,10.09,10,10c5.38,0.09,10.09-4.62,10-10C22.59,7.14,17.88,2.42,12.5,2.51L12.5,2.51z M12.5,5.06c3.21,0,5.94,2.08,7.07,5H5.43C6.56,7.04,9.29,5.06,12.5,5.06L12.5,5.06zM5.05,12.51c3.4,0,6.13,3.3,6.23,7.36C7.78,19.3,5.05,16.19,5.05,12.51L5.05,12.51z M13.73,19.87c0.09-3.96,2.83-7.36,6.23-7.36C19.95,16.19,17.22,19.3,13.73,19.87z"/>
	</symbol>
	<symbol id="icon-quote-sm" viewBox="0 0 25 25">
		<desc>Get a Quote Dollar Icon</desc>
		<path d="M11.6,2h2.1v1.9c1.6,0.2,2.9,0.6,4,1.1l-1,2.7c-0.8-0.4-1.8-0.8-3-1v4.3c1.6,0.5,2.7,1.1,3.5,1.8c0.7,0.7,1.1,1.7,1.1,2.9c0,2.1-0.6,3.4-1.7,4s-2.1,0.9-2.8,1V23h-2.1v-2.3c-0.9-0.1-1.8-0.3-2.7-0.6c-0.9-0.3-1.6-0.6-2.2-1l1-2.6c0.4,0.3,1,0.6,1.8,0.8c0.7,0.3,1.4,0.4,2.1,0.5v-4.4l-0.8-0.3C8.2,12.4,7,10.9,7,8.8c0-1.3,0.4-2.4,1.2-3.3c0.8-0.9,1.9-1.4,3.5-1.6V2z M10.4,9.7c0.2,0.3,0.6,0.6,1.2,0.8V6.5c-1,0.3-1.6,0.9-1.6,1.8C10.1,8.9,10.2,9.3,10.4,9.7z M13.7,14.1v4c1-0.4,1.5-1.1,1.5-2.1C15.2,15,14.7,14.5,13.7,14.1z"/>
	</symbol>
	<symbol id="icon-search-sm" viewBox="0 0 25 25">
		<desc>Icon of a magnifying Glass</desc>
		<path d="M3.85,18.69c-0.59,0.63-0.59,1.63,0.04,2.23c0.59,0.63,1.6,0.63,2.23,0.04l4.53-4.57l0.15-0.19c1.22,0.82,2.6,1.22,4.08,1.22c2.08,0,3.86-0.74,5.35-2.19c1.45-1.45,2.19-3.23,2.19-5.31c0-2.08-0.74-3.86-2.19-5.31c-1.48-1.48-3.27-2.23-5.35-2.23c-2.08,0-3.86,0.74-5.31,2.23C8.12,6.07,7.37,7.85,7.37,9.93c0,1.48,0.41,2.86,1.19,4.08l-0.15,0.15L3.85,18.69L3.85,18.69z M11.27,13.56c-1-1-1.52-2.23-1.52-3.64c0-1.45,0.52-2.64,1.52-3.64s2.19-1.52,3.64-1.52c1.41,0,2.64,0.52,3.64,1.52s1.49,2.19,1.49,3.64c0,1.41-0.48,2.64-1.49,3.64s-2.23,1.49-3.67,1.49C13.46,15.05,12.27,14.57,11.27,13.56z"/>
	</symbol>
	<symbol id="icon-dollar-sm" viewBox="0 0 25 25">
		<desc>Icon of a Dollar Symbol</desc>
		<path d="M13.9,19.86V22h-2.35v-2.14c-2.9-0.49-4.22-2.85-4.22-2.85l1.86-1.59c0,0,1.26,2.14,3.39,2.14c1.26,0,2.52-0.49,2.52-1.64c0-1.2-0.93-1.64-2.63-2.24c-2.14-0.77-4.49-1.92-4.49-4.54c0-1.75,1.37-3.5,3.61-3.94V3h2.35v2.19c2.24,0.49,3.45,2.14,3.45,2.14l-1.7,1.7c0,0-1.2-1.64-3.01-1.64c-1.26,0-2.19,0.77-2.19,1.75c0,1.26,1.15,1.64,3.12,2.41c2.19,0.82,4.05,1.81,4.05,4.44C17.62,18.17,16.03,19.48,13.9,19.86z"/>
	</symbol>
	<symbol id="icon-video-sm" viewBox="0 0 25 25">
		<desc>Video Click to Start Icon</desc>
		<path d="M23,12.51c0,5.77-4.7,10.45-10.5,10.45S2,18.29,2,12.51S6.7,2.06,12.5,2.06S23,6.74,23,12.51z M12.5,4.3c-4.56,0-8.25,3.68-8.25,8.21s3.69,8.21,8.25,8.21s8.25-3.68,8.25-8.21S17.06,4.3,12.5,4.3z M16.62,13.19c0.49-0.37,0.49-0.98,0-1.35l-5.73-4.3c-0.49-0.37-0.9-0.17-0.9,0.45v9.05c0,0.62,0.4,0.82,0.9,0.45L16.62,13.19z"/>
	</symbol>
	<symbol id="icon-printer-sm" viewBox="0 0 25 25">
		<desc>Printer Icon</desc>
		<path d="M8.35,15.7c0-0.35,0.28-0.64,0.63-0.64h7.06c0.35,0,0.63,0.29,0.63,0.64s-0.28,0.64-0.63,0.64H8.98C8.63,16.34,8.35,16.05,8.35,15.7z M8.98,18.9h7.06c0.35,0,0.63-0.29,0.63-0.64c0-0.35-0.28-0.64-0.63-0.64H8.98c-0.35,0-0.63,0.29-0.63,0.64C8.35,18.6,8.63,18.9,8.98,18.9z M23.14,10.65v5.01c0,0.35-0.27,0.68-0.61,0.68h-1.94v4.96c0,0.69-0.5,1.21-1.19,1.21H5.62c-0.69,0-1.2-0.52-1.2-1.21v-4.96H2.49c-0.35,0-0.63-0.33-0.63-0.68v-5.01c0-0.35,0.28-0.69,0.63-0.69h1.93V3.77c0-0.69,0.51-1.25,1.2-1.25H19.4c0.69,0,1.19,0.56,1.19,1.25v6.19h1.94C22.87,9.96,23.14,10.31,23.14,10.65z M18.64,13.79H6.57v2.5v4.07h12.08v-4.07V13.79z M18.64,4.67H6.57v5.29h12.08V4.67z"/>
	</symbol>
	<symbol id="icon-close" viewBox="0 0 18 18">
		<desc>Close Button X</desc>
		<polygon points="18,0.7 17.3,0 9,8.2 0.7,0 0,0.7 8.3,9 0,17.2 0.7,17.9 9,9.7 17.3,17.9 18,17.2 9.7,9"/>
	</symbol>
	<symbol id="icon-close-circle" viewBox="0 0 18.52 18.52">
		<desc>Close Button Circle X</desc>
		<circle cx="9.26" cy="9.26" r="9.26"/><polygon fill="currentColor" points="12.89,6.34 12.18,5.63 9.26,8.55 6.34,5.63 5.63,6.34 8.55,9.26 5.63,12.18 6.34,12.89 9.26,9.97
		12.18,12.89 12.89,12.18 9.97,9.26 "/>
	</symbol>
	<symbol id="icon-star-three-half" viewBox="0 0 86.88 15">
		<desc>Icon of 3.5 star rating</desc>
		<path d="M69.1,5.73l-4.32,3.73L66.07,15l-4.88-2.96L56.32,15l1.29-5.54l-4.29-3.73l5.65-0.48L61.2,0l2.22,5.25L69.1,5.73z M61.2,10.57l2.99,1.81l-0.81-3.36L66,6.72l-3.44-0.3L61.2,3.25V10.57z M86.88,5.69l-4.32,3.73l1.29,5.54l-4.88-2.96l-4.88,2.96l1.29-5.54L71.1,5.69l5.65-0.48L78.97,0l2.22,5.21L86.88,5.69z M78.97,10.57l2.99,1.77l-0.81-3.36l2.62-2.29l-3.44-0.3l-1.37-3.18l-1.33,3.18l-3.44,0.3l2.59,2.29l-0.78,3.36L78.97,10.57z M43.42,12.01l-4.88,2.96l1.29-5.54l-4.29-3.73l5.65-0.48L43.42,0l2.22,5.21l5.69,0.48l-4.32,3.73l1.29,5.54L43.42,12.01z M25.65,12.01l-4.88,2.96l1.29-5.54l-4.29-3.73l5.65-0.48L25.65,0l2.22,5.21l5.69,0.48l-4.32,3.73l1.29,5.54L25.65,12.01z M7.87,12.01l-4.88,2.96l1.29-5.54L0,5.69l5.65-0.48L7.87,0l2.22,5.21l5.69,0.48l-4.32,3.73l1.29,5.54L7.87,12.01z"/>
	</symbol>
	<symbol id="icon-star-four" viewBox="0 0 87.09 15">
		<desc>Icon of 4 star rating</desc>
		<path d="M87.09,5.7l-4.33,3.74l1.3,5.56l-4.89-2.96L74.28,15l1.3-5.56l-4.3-3.74l5.67-0.48L79.17,0l2.22,5.22L87.09,5.7z M79.17,10.59l3,1.78L81.35,9l2.63-2.3l-3.44-0.3l-1.37-3.19l-1.33,3.19l-3.44,0.3L76.98,9l-0.78,3.37L79.17,10.59z M43.53,12.04L38.64,15l1.3-5.56l-4.3-3.74l5.67-0.48L43.53,0l2.22,5.22l5.7,0.48l-4.33,3.74l1.3,5.56L43.53,12.04z M61.58,12.04L56.69,15l1.3-5.56l-4.3-3.74l5.67-0.48L61.58,0l2.22,5.22l5.7,0.48l-4.33,3.74l1.3,5.56L61.58,12.04z M25.71,12.04L20.82,15l1.3-5.56l-4.3-3.74l5.67-0.48L25.71,0l2.22,5.22l5.7,0.48L29.3,9.44L30.6,15L25.71,12.04z M7.89,12.04L3,15l1.3-5.56L0,5.7l5.67-0.48L7.89,0l2.22,5.22l5.7,0.48l-4.33,3.74l1.3,5.56L7.89,12.04z"/>
	</symbol>
	<symbol id="icon-star-empty" viewBox="0 0 15.81 15">
		<desc>Icon of Empty Star Outline</desc>
		<path d="M15.78,5.69l-4.32,3.73l1.29,5.54l-4.88-2.96l-4.88,2.96l1.29-5.54L0,5.69l5.65-0.48L7.87,0l2.22,5.21L15.78,5.69z M7.87,10.57l2.99,1.77l-0.81-3.36l2.62-2.29l-3.44-0.3L7.87,3.21L6.54,6.39L3.1,6.69l2.59,2.29l-0.78,3.36L7.87,10.57z"/>
	</symbol>
	<symbol id="icon-star-full" viewBox="0 0 15.81 15">
		<desc>Icon of Filled Star</desc>
		<path d="M7.89,12.04L3,15l1.3-5.56L0,5.7l5.67-0.48L7.89,0l2.22,5.22l5.7,0.48l-4.33,3.74l1.3,5.56L7.89,12.04z"/>
	</symbol>
	<symbol id="icon-star-half" viewBox="0 0 15.81 15">
		<desc>Icon of Half Filled Star</desc>
		<path d="M15.78,5.73l-4.32,3.73L12.75,15l-4.88-2.96L2.99,15l1.29-5.54L0,5.73l5.65-0.48L7.87,0l2.22,5.25L15.78,5.73z M7.87,10.57l2.99,1.81l-0.81-3.36l2.62-2.29l-3.44-0.3L7.87,3.25V10.57z"/>
	</symbol>
	<symbol id="icon-specials-star" viewBox="0 0 92 32">
		<desc>Icon of Specials Tag and Star</desc>
		<path d="M82.18,31.89H0V0h82.2c1.12,0,2.15,0.62,2.66,1.62l6.63,12.77c0.44,0.86,0.45,1.88,0.01,2.74l-6.65,13.13C84.35,31.26,83.31,31.89,82.18,31.89z"/>
		<path fill="currentColor" d="M13.48,18.48c0-0.43-0.11-0.76-0.33-0.99c-0.22-0.22-0.63-0.45-1.21-0.69c-1.07-0.41-1.84-0.88-2.31-1.42c-0.47-0.54-0.7-1.19-0.7-1.93c0-0.9,0.32-1.62,0.96-2.16c0.64-0.54,1.45-0.82,2.43-0.82c0.65,0,1.24,0.14,1.75,0.41c0.51,0.28,0.91,0.67,1.18,1.17c0.28,0.5,0.41,1.07,0.41,1.71h-2.15c0-0.5-0.11-0.88-0.32-1.14c-0.21-0.26-0.52-0.39-0.92-0.39c-0.38,0-0.67,0.11-0.88,0.33c-0.21,0.22-0.31,0.52-0.31,0.9c0,0.29,0.12,0.56,0.35,0.79c0.23,0.24,0.65,0.48,1.25,0.74c1.04,0.38,1.8,0.84,2.27,1.38c0.47,0.55,0.71,1.24,0.71,2.09c0,0.93-0.3,1.65-0.89,2.18s-1.39,0.78-2.41,0.78c-0.69,0-1.32-0.14-1.88-0.42c-0.57-0.28-1.01-0.69-1.33-1.22c-0.32-0.53-0.48-1.15-0.48-1.87h2.16c0,0.62,0.12,1.06,0.36,1.34s0.63,0.42,1.17,0.42C13.11,19.68,13.48,19.28,13.48,18.48z"/>
		<path fill="currentColor" d="M19.53,17.53v3.75h-2.15V10.62h3.63c1.05,0,1.9,0.33,2.52,0.98c0.63,0.65,0.94,1.5,0.94,2.55s-0.31,1.87-0.93,2.48s-1.48,0.91-2.58,0.91H19.53z M19.53,15.73h1.48c0.41,0,0.73-0.13,0.95-0.4s0.34-0.66,0.34-1.17c0-0.53-0.12-0.96-0.34-1.27c-0.23-0.32-0.54-0.47-0.92-0.48h-1.5V15.73z"/>
		<path fill="currentColor" d="M31.72,16.67h-3.36v2.83h3.97v1.79h-6.12V10.62h6.11v1.79h-3.96v2.52h3.36V16.67z"/>
		<path fill="currentColor" d="M41.1,17.73c-0.05,1.22-0.4,2.14-1.03,2.76s-1.52,0.94-2.67,0.94c-1.21,0-2.13-0.4-2.77-1.19c-0.64-0.79-0.96-1.92-0.96-3.39v-1.79c0-1.46,0.33-2.59,1-3.39c0.66-0.79,1.59-1.19,2.77-1.19c1.16,0,2.04,0.33,2.65,0.97c0.6,0.65,0.95,1.58,1.03,2.8h-2.16c-0.02-0.75-0.13-1.27-0.35-1.56c-0.21-0.29-0.6-0.43-1.17-0.43c-0.58,0-0.98,0.2-1.22,0.6c-0.24,0.4-0.37,1.07-0.38,1.99v2.01c0,1.06,0.12,1.79,0.35,2.18c0.24,0.4,0.64,0.59,1.22,0.59c0.57,0,0.96-0.14,1.17-0.41c0.21-0.28,0.34-0.77,0.37-1.5H41.1z"/>
		<path fill="currentColor" d="M44.98,21.28h-2.15V10.62h2.15V21.28z"/>
		<path fill="currentColor" d="M52.31,19.1h-2.94l-0.57,2.18h-2.28l3.33-10.66h1.97l3.35,10.66h-2.3L52.31,19.1z M49.84,17.3h1.99l-1-3.8L49.84,17.3z"/>
		<path fill="currentColor" d="M58.63,19.49h3.78v1.79h-5.93V10.62h2.15V19.49z"/>
		<path fill="currentColor" d="M74.8,19.55l-4.96,3l1.31-5.63l-4.36-3.79l5.75-0.49l2.25-5.3l2.25,5.3l5.75,0.49l-4.36,3.79l1.31,5.63L74.8,19.55z"/>
	</symbol>
	<symbol id="carousel-arrow-left" viewBox="0 0 20 53">
		<desc>Icon of a Left Arrow for a Carousel</desc>
		<polygon points="17.45,53 0,26.5 17.45,0 20,1.63 3.62,26.5 20,51.37 "/>
	</symbol>
	<symbol id="carousel-arrow-right" viewBox="0 0 20 53">
		<desc>Icon of a Right Arrow for a Carousel</desc>
		<polygon points="2.55,53 0,51.37 16.38,26.5 0,1.63 2.55,0 20,26.5 "/>
	</symbol>
	<symbol id="logo-i-motor" viewBox="0 0 154 11">
		<desc>Powered by I-Motor - link to I-Motor website</desc>
		<path d="M0.98,6.97V9.3H0.2V3.36h2.19c0.65,0,1.16,0.17,1.53,0.5s0.55,0.77,0.55,1.32c0,0.58-0.18,1.02-0.54,1.33C3.56,6.82,3.05,6.97,2.38,6.97C2.38,6.97,0.98,6.97,0.98,6.97z M0.98,6.33h1.41c0.42,0,0.74-0.1,0.96-0.3c0.22-0.2,0.33-0.48,0.33-0.86c0-0.35-0.11-0.64-0.33-0.85C3.12,4.12,2.82,4.01,2.43,4H0.98V6.33z M9.81,6.52c0,0.58-0.1,1.09-0.29,1.52C9.32,8.47,9.05,8.8,8.69,9.03S7.91,9.38,7.43,9.38c-0.47,0-0.88-0.12-1.24-0.34C5.83,8.82,5.55,8.48,5.35,8.05c-0.2-0.42-0.3-0.92-0.31-1.48V6.15c0-0.57,0.1-1.07,0.3-1.51c0.2-0.44,0.48-0.77,0.84-1s0.78-0.35,1.25-0.35c0.48,0,0.9,0.11,1.26,0.34s0.64,0.56,0.84,1s0.29,0.94,0.29,1.52L9.81,6.52L9.81,6.52z M9.03,6.14c0-0.7-0.14-1.24-0.42-1.62C8.33,4.14,7.93,3.95,7.42,3.95c-0.49,0-0.88,0.19-1.17,0.56s-0.43,0.9-0.44,1.57v0.44c0,0.68,0.14,1.22,0.43,1.61c0.29,0.39,0.68,0.58,1.18,0.58c0.51,0,0.9-0.18,1.17-0.55c0.27-0.37,0.42-0.9,0.43-1.58L9.03,6.14L9.03,6.14z M11.95,7.43l0.11,0.78l0.17-0.71l1.17-4.14h0.66l1.15,4.14l0.16,0.72l0.13-0.8l0.92-4.06h0.79L15.77,9.3h-0.71l-1.22-4.33l-0.09-0.45l-0.09,0.45L12.38,9.3h-0.71l-1.44-5.94h0.78L11.95,7.43z M21.52,6.55h-2.57v2.1h2.99V9.3h-3.77V3.36h3.73V4h-2.95v1.91h2.57C21.52,5.91,21.52,6.55,21.52,6.55z M25.17,6.9h-1.39v2.4h-0.79V3.36h1.97c0.67,0,1.18,0.15,1.54,0.46c0.36,0.3,0.54,0.75,0.54,1.33c0,0.37-0.1,0.69-0.3,0.97c-0.2,0.28-0.48,0.48-0.83,0.62l1.39,2.52V9.3h-0.84L25.17,6.9z M23.78,6.26h1.2c0.39,0,0.7-0.1,0.93-0.3c0.23-0.2,0.34-0.47,0.34-0.81c0-0.37-0.11-0.65-0.33-0.85C25.7,4.1,25.39,4,24.97,4h-1.2v2.26C23.77,6.26,23.78,6.26,23.78,6.26z M31.57,6.55H29v2.1h2.99V9.3h-3.77V3.36h3.73V4H29v1.91h2.57C31.57,5.91,31.57,6.55,31.57,6.55z M33.05,9.3V3.36h1.68c0.52,0,0.97,0.11,1.37,0.34c0.4,0.23,0.7,0.55,0.92,0.97c0.22,0.42,0.33,0.91,0.33,1.45V6.5c0,0.56-0.11,1.05-0.32,1.47c-0.22,0.42-0.52,0.75-0.93,0.97s-0.87,0.34-1.4,0.35L33.05,9.3L33.05,9.3z M33.83,4v4.66h0.82c0.6,0,1.07-0.19,1.41-0.56c0.34-0.38,0.5-0.91,0.5-1.6V6.14c0-0.67-0.16-1.2-0.48-1.57C35.77,4.2,35.32,4.01,34.74,4H33.83z M40.76,9.3V3.36h1.94c0.64,0,1.13,0.13,1.45,0.4s0.49,0.66,0.49,1.18c0,0.28-0.08,0.52-0.24,0.74s-0.37,0.38-0.64,0.5c0.32,0.09,0.57,0.26,0.76,0.51s0.28,0.55,0.28,0.9c0,0.53-0.17,0.95-0.52,1.26c-0.35,0.3-0.83,0.46-1.46,0.46h-2.06C40.76,9.31,40.76,9.3,40.76,9.3z M41.54,5.89h1.18c0.34,0,0.62-0.09,0.82-0.26c0.21-0.17,0.31-0.4,0.31-0.7c0-0.33-0.1-0.56-0.29-0.71C43.37,4.07,43.08,4,42.69,4h-1.16L41.54,5.89L41.54,5.89z M41.54,6.52v2.14h1.29c0.36,0,0.65-0.09,0.86-0.28s0.32-0.45,0.32-0.78c0-0.71-0.39-1.07-1.17-1.07L41.54,6.52C41.54,6.53,41.54,6.52,41.54,6.52z M47.63,6.34l1.55-2.98h0.89l-2.05,3.72V9.3h-0.78V7.08l-2.05-3.72h0.9L47.63,6.34z"/>
		<path fill="currentColor" d="M61.1,9.37c-0.18,0.18-0.4,0.27-0.66,0.27s-0.48-0.09-0.66-0.27s-0.27-0.4-0.27-0.66V2.12c0-0.26,0.09-0.48,0.27-0.66s0.4-0.27,0.66-0.27s0.48,0.09,0.66,0.27s0.27,0.4,0.27,0.66v6.59C61.37,8.97,61.28,9.19,61.1,9.37 M84.76,8.71c0,0.26-0.09,0.48-0.27,0.66s-0.4,0.27-0.66,0.27s-0.48-0.09-0.66-0.27s-0.27-0.4-0.27-0.66V4.48c0-0.53-0.03-0.8-0.1-0.8c-0.05,0-0.23,0.17-0.54,0.52l-4.27,4.85c-0.17,0.19-0.38,0.34-0.62,0.44c-0.24,0.1-0.51,0.15-0.79,0.15s-0.55-0.05-0.79-0.15s-0.45-0.24-0.62-0.44L70.91,4.2c-0.3-0.35-0.48-0.52-0.54-0.52s-0.1,0.27-0.1,0.8v4.23c0,0.26-0.09,0.48-0.27,0.66s-0.4,0.27-0.66,0.27s-0.48-0.09-0.66-0.27s-0.27-0.4-0.27-0.66V3.05c0-0.52,0.15-0.96,0.45-1.32c0.3-0.36,0.7-0.54,1.22-0.54c0.31,0,0.59,0.08,0.83,0.23c0.25,0.15,0.47,0.34,0.68,0.56l4.46,5.08c0.06,0.07,0.15,0.13,0.24,0.2c0.1,0.07,0.2,0.11,0.3,0.11c0.11,0,0.21-0.04,0.3-0.11c0.1-0.07,0.18-0.14,0.24-0.2l4.44-5.08h0.02c0.18-0.25,0.4-0.44,0.66-0.58c0.26-0.14,0.54-0.21,0.85-0.21c0.52,0,0.92,0.18,1.22,0.54s0.45,0.8,0.45,1.32L84.76,8.71L84.76,8.71z M102.48,5.42c0,0.49-0.08,0.99-0.24,1.48c-0.16,0.5-0.4,0.95-0.71,1.36c-0.31,0.41-0.68,0.74-1.12,1s-0.94,0.39-1.49,0.39h-8.84c-0.53-0.03-1-0.17-1.42-0.44c-0.41-0.26-0.77-0.6-1.06-1c-0.29-0.4-0.51-0.85-0.67-1.34C86.77,6.38,86.7,5.9,86.7,5.42c0-0.49,0.08-0.98,0.24-1.48c0.16-0.5,0.4-0.95,0.71-1.36s0.69-0.74,1.13-1c0.44-0.26,0.94-0.39,1.49-0.39h8.84c0.53,0.03,1,0.17,1.41,0.44c0.41,0.26,0.77,0.6,1.06,1s0.51,0.85,0.67,1.34C102.4,4.45,102.48,4.94,102.48,5.42 M99.59,7.54c0.29-0.16,0.51-0.36,0.67-0.59c0.16-0.23,0.27-0.49,0.33-0.77c0.06-0.28,0.08-0.53,0.08-0.77c0-0.23-0.03-0.49-0.08-0.77c-0.06-0.28-0.17-0.53-0.33-0.76c-0.16-0.23-0.39-0.43-0.67-0.59s-0.65-0.24-1.08-0.24h-7.83c-0.45,0-0.82,0.08-1.09,0.24c-0.28,0.16-0.5,0.36-0.66,0.59c-0.16,0.23-0.27,0.49-0.33,0.76c-0.06,0.28-0.09,0.53-0.09,0.77c0,0.23,0.03,0.49,0.09,0.77c0.06,0.28,0.17,0.53,0.33,0.77c0.16,0.23,0.38,0.43,0.66,0.59c0.28,0.16,0.64,0.24,1.09,0.24h7.83C98.94,7.78,99.31,7.7,99.59,7.54 M118.86,1.46c0.18,0.18,0.27,0.4,0.27,0.66s-0.09,0.48-0.27,0.66s-0.4,0.27-0.66,0.27h-5.74v5.66c0,0.26-0.09,0.48-0.27,0.66s-0.4,0.27-0.66,0.27s-0.48-0.09-0.66-0.27s-0.27-0.4-0.27-0.66V3.05h-5.81c-0.23-0.03-0.43-0.13-0.6-0.3s-0.25-0.38-0.25-0.63c0-0.26,0.09-0.48,0.27-0.66s0.4-0.27,0.66-0.27h13.34C118.46,1.19,118.68,1.28,118.86,1.46 M136.36,5.42c0,0.49-0.08,0.99-0.24,1.48c-0.16,0.5-0.4,0.95-0.71,1.36c-0.31,0.41-0.68,0.74-1.12,1s-0.94,0.39-1.49,0.39h-8.84c-0.53-0.03-1-0.17-1.42-0.44c-0.41-0.26-0.77-0.6-1.06-1c-0.29-0.4-0.51-0.85-0.67-1.34c-0.16-0.49-0.23-0.97-0.23-1.45c0-0.49,0.08-0.98,0.24-1.48c0.16-0.5,0.39-0.95,0.7-1.36s0.69-0.74,1.13-1c0.44-0.26,0.94-0.39,1.49-0.39h8.84c0.53,0.03,1,0.17,1.42,0.44c0.41,0.26,0.77,0.6,1.06,1s0.51,0.85,0.67,1.34C136.29,4.45,136.36,4.94,136.36,5.42 M133.48,7.54c0.28-0.16,0.51-0.36,0.67-0.59s0.27-0.49,0.33-0.77c0.06-0.28,0.09-0.53,0.09-0.77c0-0.23-0.03-0.49-0.09-0.77s-0.17-0.53-0.33-0.76c-0.16-0.23-0.38-0.43-0.67-0.59s-0.65-0.24-1.09-0.24h-7.83c-0.45,0-0.82,0.08-1.09,0.24c-0.28,0.16-0.5,0.36-0.66,0.59c-0.16,0.23-0.27,0.49-0.33,0.76c-0.06,0.28-0.09,0.53-0.09,0.77c0,0.23,0.03,0.49,0.09,0.77c0.06,0.28,0.17,0.53,0.33,0.77c0.16,0.23,0.38,0.43,0.66,0.59c0.28,0.16,0.64,0.24,1.09,0.24h7.83C132.83,7.78,133.19,7.7,133.48,7.54 M151.83,7.05c0.36,0.25,0.73,0.53,1.1,0.82c0.14,0.1,0.27,0.22,0.37,0.36c0.11,0.14,0.16,0.29,0.16,0.48c0,0.26-0.09,0.48-0.27,0.66c-0.18,0.18-0.4,0.27-0.66,0.27c-0.22,0-0.44-0.09-0.66-0.27c-0.53-0.39-1.07-0.76-1.63-1.12c-0.56-0.36-1.13-0.69-1.74-0.97c-0.6-0.28-1.22-0.51-1.87-0.68c-0.64-0.17-1.32-0.25-2.02-0.25h-3.86c-0.17,0.03-0.31,0.1-0.43,0.23s-0.17,0.29-0.17,0.48v1.65c0,0.26-0.09,0.48-0.28,0.66s-0.4,0.27-0.65,0.27c-0.26,0-0.48-0.09-0.66-0.27c-0.18-0.18-0.27-0.4-0.27-0.66V6.85c0-0.32,0.06-0.63,0.18-0.92c0.12-0.29,0.29-0.54,0.49-0.76c0.21-0.21,0.45-0.38,0.74-0.5c0.28-0.12,0.59-0.19,0.93-0.19h10.27c0.2,0,0.36-0.07,0.51-0.2c0.15-0.14,0.22-0.31,0.22-0.52c0-0.19-0.07-0.36-0.22-0.5s-0.32-0.21-0.51-0.21h-11.69c-0.26,0-0.48-0.09-0.66-0.27c-0.18-0.18-0.27-0.4-0.27-0.66s0.09-0.48,0.27-0.66c0.18-0.18,0.4-0.27,0.66-0.27h11.61c0.36,0,0.7,0.07,1.02,0.2c0.32,0.14,0.59,0.32,0.84,0.55c0.24,0.23,0.43,0.5,0.56,0.81c0.14,0.31,0.2,0.65,0.2,1.01c0,0.36-0.07,0.7-0.2,1.01c-0.13,0.31-0.32,0.58-0.56,0.81c-0.24,0.23-0.52,0.42-0.84,0.55c-0.32,0.14-0.65,0.2-1.02,0.2h-0.08C151.12,6.57,151.47,6.8,151.83,7.05 M67.12,5.21c0,0.52-0.42,0.95-0.95,0.95h-2.53c-0.52,0-0.95-0.42-0.95-0.95c0-0.52,0.42-0.95,0.95-0.95h2.53C66.7,4.27,67.12,4.69,67.12,5.21"/>
	</symbol>
	<symbol id="icon-error-arrow-left" viewBox="0 0 31 31">
		<desc>Icon of Arrow Pointing Left</desc>
		<path d="M26.5,14.5H6.9L19.2,2.2c0.4-0.4,0.4-1,0-1.4s-1-0.4-1.4,0l-14,14c-0.4,0.4-0.4,1,0,1.4l14,14c0.2,0.2,0.5,0.3,0.7,0.3s0.5-0.1,0.7-0.3c0.4-0.4,0.4-1,0-1.4L6.9,16.5h19.6c0.6,0,1-0.4,1-1S27.1,14.5,26.5,14.5z"/>
	</symbol>
	<symbol id="icon-error-home" viewBox="0 0 31 31">
		<desc>Icon of Home Used on Error Pages</desc>
		<polygon points="31,13.6 25.7,10 25.7,4.9 21.7,4.9 21.7,7.4 15.5,3.2 0,13.6 5.3,13.6 5.3,27.8 12.9,27.8 12.9,21.1 18.1,21.1 18.1,27.8 25.7,27.8 25.7,13.6"/>
	</symbol>
	<symbol id="icon-zoom" viewBox="0 0 40 40">
		<desc>Icon of Four Arrows to Indicate Zoom</desc>
		<path d="M0,0v2v12h4V6.8l9.2,9.2l2.8-2.8L6.8,4H14V0H2L0,0L0,0z M26,0v4h7.2L24,13.2l2.8,2.8L36,6.8V14h4V2V0h-2L26,0L26,0z M13.2,24L4,33.2V26H0v12v2h2h12v-4H6.8l9.2-9.2L13.2,24z M26.8,24L24,26.8l9.2,9.2H26v4h12h2v-2V26h-4v7.2L26.8,24z"/>
	</symbol>
</svg>