<?xml version="1.0" standalone="no"?>
<!DOCTYPE svg PUBLIC "-//W3C//DTD SVG 1.1//EN" "http://www.w3.org/Graphics/SVG/1.1/DTD/svg11.dtd" >
<svg xmlns="http://www.w3.org/2000/svg">
<metadata>
Created by FontPrep 20130207 at Mon Oct 12 16:47:35 2015
 By Geoff Schwartz
Copyright (c) 2012 by Nikola &#38; Zoran Kostic. All rights reserved.
</metadata>
<defs>
<font id="8907fa4e0441595346a515922989792f" horiz-adv-x='1024' >
  <font-face 
    font-family="Breakers-Regular"
    font-weight="400"
    font-stretch="normal"
    units-per-em="2048"
    panose-1="2 0 0 0 0 0 0 0 0 0"
    ascent="1638"
    descent="-410"
    x-height="1065"
    cap-height="1352"
    bbox="-74 -434 1761 1778"
    underline-thickness="102"
    underline-position="-102"
    unicode-range="U+000D-FB04"
  />
<missing-glyph horiz-adv-x="748" 
d="M136 68h408v1229h-408v-1229zM68 0v1365h544v-1365h-544z" />
    <glyph glyph-name="uniFB01" unicode="fi" horiz-adv-x="1040" 
d="M39 891v174h143v92q0 192 90 275.5t289 83.5q147 0 307 -52l-26 -149l-23 -12q-141 38 -251 38t-145.5 -41.5t-35.5 -148.5v-86h533v-1065h-205v891h-328v-891h-205v891h-143z" />
    <glyph glyph-name="uniFB02" unicode="fl" horiz-adv-x="1206" 
d="M981 285q0 -135 97 -135q46 0 67 6l22 -23v-131q-61 -27 -149 -27q-127 0 -184.5 73.5t-57.5 217.5v1043q-112 32 -217 32t-138.5 -39t-33.5 -141v-96h254v-174h-254v-891h-205v891h-143v174h143v92q0 194 83.5 276.5t281.5 82.5q88 0 224 -26t210 -56v-1149z" />
    <glyph glyph-name="uniFB03" unicode="ffi" horiz-adv-x="1634" 
d="M39 891v174h143v92q0 191 80.5 275t257.5 84q78 0 130 -10l22 -3l-15 -157l-20 -13q-59 8 -94 8q-90 0 -123 -39.5t-33 -140.5v-96h389v92q0 192 90 275.5t289 83.5q147 0 307 -52l-26 -149l-23 -12q-141 38 -251 38t-145.5 -41.5t-35.5 -148.5v-86h532v-1065h-204v891
h-328v-891h-205v891h-389v-891h-205v891h-143z" />
    <glyph glyph-name="uniFB04" unicode="ffl" horiz-adv-x="1800" 
d="M1575 285q0 -135 97 -135q46 0 67 6l22 -23v-131q-61 -27 -149 -27q-127 0 -184.5 73.5t-57.5 217.5v1043q-112 32 -217 32t-138.5 -39t-33.5 -141v-96h254v-174h-254v-891h-205v891h-389v-891h-205v891h-143v174h143v92q0 191 80.5 275t257.5 84q78 0 130 -10l22 -3
l-15 -157l-20 -13q-59 8 -94 8q-90 0 -123 -39.5t-33 -140.5v-96h389v92q0 194 83.5 276.5t281.5 82.5q88 0 224 -26t210 -56v-1149z" />
    <glyph glyph-name=".notdef" horiz-adv-x="748" 
d="M136 68h408v1229h-408v-1229zM68 0v1365h544v-1365h-544z" />
    <glyph glyph-name="glyph1" horiz-adv-x="2048" 
 />
    <glyph glyph-name="glyph1" horiz-adv-x="2048" 
 />
    <glyph glyph-name="uni000D" unicode="&#xd;" horiz-adv-x="2048" 
 />
    <glyph glyph-name="space" unicode=" " horiz-adv-x="450" 
 />
    <glyph glyph-name="exclam" unicode="!" horiz-adv-x="520" 
d="M152 1335q0 82 92 82h32q53 0 73 -20.5t20 -61.5v-239l-56 -645h-106l-55 645v239zM133 112q0 58 36 94t91 36t91 -36t36 -94t-36 -95t-91 -37t-91 37t-36 95z" />
    <glyph glyph-name="quotedbl" unicode="&#x22;" horiz-adv-x="675" 
d="M385 1356q0 39 16 58.5t58 19.5h57q46 0 60 -18.5t14 -59.5v-70l-55 -319h-95l-55 319v70zM86 1356q0 39 16 58.5t58 19.5h57q46 0 60 -18.5t14 -59.5v-70l-55 -319h-95l-55 319v70z" />
    <glyph glyph-name="numbersign" unicode="#" horiz-adv-x="1290" 
d="M479 532h262l66 328h-262zM88 358l35 174h231l66 328h-236l35 174h234l63 318h125l-63 -318h262l63 318h125l-63 -318h237l-35 -174h-235l-66 -328h240l-35 -174h-237l-70 -358h-125l70 358h-263l-69 -358h-125l70 358h-234z" />
    <glyph glyph-name="dollar" unicode="$" horiz-adv-x="993" 
d="M768 354q0 88 -92 144v-320q92 46 92 176zM553 1161h-41l-61 -2v-391l102 -31v424zM451 150h102v395l-102 33v-428zM236 970q0 -114 92 -159v319q-92 -46 -92 -160zM451 -205h-123v191q-87 7 -146.5 17.5t-64.5 12.5l-6 160l26 12q82 -18 191 -28v454l-6 2
q-156 47 -218.5 131.5t-62.5 218.5t73 223t214 124v203h123v-185q50 4 75 4h27v181h123v-189q65 -7 170 -29l-12 -155l-23 -15q-53 15 -135 23v-451q287 -96 287 -331q0 -154 -66 -249.5t-221 -127.5v-197h-123v182q-18 -2 -55 -2l-47 2v-182z" />
    <glyph glyph-name="percent" unicode="%" horiz-adv-x="1517" 
d="M1157 553q-113 0 -113 -158v-139q0 -158 113 -158q58 0 85.5 44t27.5 114v139q0 69 -27.5 113.5t-85.5 44.5zM891 283v84q0 153 74 231t180 78h26q105 0 178.5 -77.5t73.5 -231.5v-84q0 -152 -73.5 -230t-178.5 -78h-26q-105 0 -179.5 78t-74.5 230zM264 -25l830 1377
h168l-830 -1377h-168zM360 1208q-112 0 -112 -157v-140q0 -157 112 -157q58 0 85.5 43.5t27.5 113.5v140q0 69 -27.5 113t-85.5 44zM94 938v84q0 226 102.5 267.5t151.5 41.5h27q105 0 178.5 -77.5t73.5 -231.5v-84q0 -152 -73.5 -229.5t-178.5 -77.5h-27
q-105 0 -179.5 77.5t-74.5 229.5z" />
    <glyph glyph-name="ampersand" unicode="&#x26;" horiz-adv-x="1230" 
d="M375 1065q0 -63 24 -104.5t93 -122.5l40 -47q100 74 135 132.5t35 131.5t-45.5 110t-117.5 37t-118 -37t-46 -100zM303 354q-1 -204 247 -204q122 0 204 88l-291 340l-25 -19q-135 -103 -135 -205zM539 1376q169 0 268.5 -86t99.5 -235q0 -114 -58 -203t-202 -182v-8
l189 -224l30 -45h6q15 68 15 262h194v-20q0 -145 -16 -230t-61 -159l210 -246h-256l-92 109h-4q-134 -134 -332 -134t-315 96.5t-117 249.5t80.5 232.5t173.5 142.5v9l-28 34q-79 96 -117 165t-37 151q0 149 100 235t269 86z" />
    <glyph glyph-name="quotesingle" unicode="'" horiz-adv-x="376" 
d="M86 1356q0 39 16 58.5t58 19.5h57q46 0 60 -18.5t14 -59.5v-70l-55 -319h-95l-55 319v70z" />
    <glyph glyph-name="parenleft" unicode="(" horiz-adv-x="563" 
d="M102 602q0 138 28 280.5t89 292.5t128 241l28 38h147q-30 -46 -76 -147t-77 -195.5t-56.5 -236.5t-25.5 -274q0 -256 63.5 -466t110.5 -301l20 -39h-147q-149 232 -190.5 450.5t-41.5 356.5z" />
    <glyph glyph-name="parenright" unicode=")" horiz-adv-x="563" 
d="M461 602q0 -268 -76.5 -477t-131.5 -293l-24 -37h-147q24 43 109 258t85 519t-77.5 525t-133.5 317l-24 40h147q39 -50 90.5 -144.5t87.5 -188t65.5 -237.5t29.5 -282z" />
    <glyph glyph-name="asterisk" unicode="*" horiz-adv-x="974" 
d="M401 1444q0 44 10.5 58t49.5 14h53q38 0 48.5 -14t10.5 -58v-51l-47 -277l21 -14l248 131l47 16q41 13 58.5 7t29.5 -42l16 -51q11 -39 1.5 -52.5t-52.5 -25.5l-47 -16l-279 -41l-6 -22l199 -197l31 -41q27 -35 26 -52t-33 -40l-43 -33q-33 -22 -48 -16.5t-46 49.5
t-86 154t-65 128h-23l-125 -249l-28 -41q-27 -37 -42.5 -42t-48.5 17l-43 33q-32 23 -32.5 40t26.5 52l31 41l199 197l-9 22l-276 41l-47 16q-43 12 -52.5 25.5t1.5 52.5l16 51q12 36 29.5 42t58.5 -7l47 -16l248 -131l18 14l-45 277v51z" />
    <glyph glyph-name="plus" unicode="+" 
d="M61 532v154h373v379h154v-379h375v-154h-375v-368h-154v368h-373z" />
    <glyph glyph-name="comma" unicode="," horiz-adv-x="450" 
d="M98 120q0 52 36.5 87t91.5 35t90.5 -37t35.5 -108t-73 -197l-93 -156h-77v31l59 205v8q-70 29 -70 132z" />
    <glyph glyph-name="hyphen" unicode="-" horiz-adv-x="684" 
d="M86 532v154h512v-154h-512z" />
    <glyph glyph-name="period" unicode="." horiz-adv-x="450" 
d="M98 112q0 58 36 94t91 36t91 -36t36 -94t-36 -95t-91 -37t-91 37t-36 95z" />
    <glyph glyph-name="slash" unicode="/" horiz-adv-x="1015" 
d="M41 -205l766 1721h168l-766 -1721h-168z" />
    <glyph glyph-name="zero" unicode="0" horiz-adv-x="1105" 
d="M307 559q0 -409 246 -409t246 409v229q0 414 -246 414t-246 -414v-229zM102 594v164q0 304 120.5 461t320.5 157h18q202 0 322.5 -157t120.5 -461v-164q0 -306 -120.5 -462.5t-322.5 -156.5h-18q-200 0 -320.5 157t-120.5 462z" />
    <glyph glyph-name="one" unicode="1" horiz-adv-x="583" 
d="M41 1075v92l266 185h123v-1352h-205v1075h-184z" />
    <glyph glyph-name="two" unicode="2" horiz-adv-x="978" 
d="M472 1376q200 0 312.5 -108t112.5 -285v-16q0 -127 -39 -197.5t-66.5 -99.5t-43 -44.5t-49.5 -42.5t-52 -40t-59 -43l-170 -125q-86 -64 -110.5 -99.5t-24.5 -87.5v-14h594v-174h-799v164q0 108 44.5 189.5t156.5 162.5l223 160q100 73 145 137t45 150v10
q0 102 -63 165.5t-191 63.5t-257 -49l-42 -16l-22 10q-13 77 -17 143q172 86 372 86z" />
    <glyph glyph-name="three" unicode="3" horiz-adv-x="929" 
d="M366 150q131 0 204 70.5t73 174.5v11q0 100 -66.5 157.5t-195.5 57.5h-188v153h194q94 0 159.5 63t65.5 152v10q0 89 -61.5 146t-169.5 57t-222 -38l-36 -13l-27 10q-12 73 -16 139q0 3 38.5 20.5t120 36.5t175.5 19t172.5 -29.5t149.5 -105t71 -217.5v-14
q0 -98 -46 -169.5t-120 -111.5v-6q86 -36 146.5 -120.5t60.5 -203.5v-16q0 -180 -121.5 -294t-335.5 -114q-86 0 -168.5 15.5t-122 29.5t-39.5 17l15 141l24 12q135 -40 266 -40z" />
    <glyph glyph-name="four" unicode="4" horiz-adv-x="993" 
d="M51 236v174l391 942h209l-389 -942h352v409h205v-409h154v-174h-154v-236h-205v236h-563z" />
    <glyph glyph-name="five" unicode="5" horiz-adv-x="966" 
d="M416 150q248 0 248 270v41q0 225 -213 225q-49 0 -98 -18t-73 -36l-24 -18l-143 37l39 701h634v-174h-440l-22 -367h4q92 49 200 49q161 0 250.5 -97t89.5 -282v-61q0 -215 -102.5 -330t-308.5 -115q-87 0 -173 17.5t-128 35.5l-43 17l16 143l23 11q147 -49 264 -49z" />
    <glyph glyph-name="six" unicode="6" horiz-adv-x="1064" 
d="M307 528q0 -218 66 -298t167 -80q102 0 160 66t58 187v66q0 108 -56 165.5t-166 57.5t-229 -88v-76zM645 1202q-168 0 -251 -100.5t-87 -335.5h6q136 100 303 100t257 -106t90 -279v-61q0 -206 -105 -325.5t-318 -119.5t-325.5 146t-112.5 442v133q0 680 523 680
q113 0 206 -30l31 -9q-16 -149 -16 -155l-21 -13q-86 33 -180 33z" />
    <glyph glyph-name="seven" unicode="7" horiz-adv-x="901" 
d="M51 1178v174h819v-174l-524 -1178h-223l530 1161v17h-602z" />
    <glyph glyph-name="eight" unicode="8" horiz-adv-x="1064" 
d="M311 1030q0 -74 43 -120t148 -99l57 -29q146 93 169.5 147.5t23.5 94.5q0 82 -57 130t-163 48t-163.5 -49t-57.5 -123zM297 346q0 -88 63.5 -142t171.5 -54t172 52t64 134t-42.5 131t-164.5 108l-67 33q-105 -53 -151 -113.5t-46 -148.5zM946 1024q0 -208 -215 -315v-13
q117 -65 179.5 -147.5t62.5 -200.5q0 -179 -122 -276t-319 -97t-318.5 97t-121.5 276q0 222 223 334v16q-147 93 -172.5 176.5t-25.5 149.5q0 165 115 258.5t300 93.5t299.5 -93.5t114.5 -258.5z" />
    <glyph glyph-name="nine" unicode="9" horiz-adv-x="1064" 
d="M758 821q0 381 -222 381q-104 0 -166.5 -72.5t-62.5 -197.5v-31q0 -120 56.5 -181t152.5 -61q139 0 242 76v86zM102 879v53q0 205 116 324.5t320 119.5t314.5 -144t110.5 -413v-164q0 -353 -130.5 -516.5t-392.5 -163.5q-119 0 -206 29l-31 10q8 123 16 156l21 10
q100 -30 190 -30q158 0 242 102t84 332q-134 -99 -300 -99t-260 109t-94 285z" />
    <glyph glyph-name="colon" unicode=":" horiz-adv-x="450" 
d="M98 894q0 58 36 94t91 36t91 -36t36 -94t-36 -95t-91 -37t-91 37t-36 95zM98 112q0 58 36 94t91 36t91 -36t36 -94t-36 -95t-91 -37t-91 37t-36 95z" />
    <glyph glyph-name="semicolon" unicode=";" horiz-adv-x="452" 
d="M100 120q0 52 36.5 87t91.5 35t90.5 -37t35.5 -108t-73 -197l-93 -156h-77v31l59 205v8q-70 29 -70 132zM98 894q0 58 36 94t91 36t91 -36t36 -94t-36 -95t-91 -37t-91 37t-36 95z" />
    <glyph glyph-name="less" unicode="&#x3c;" 
d="M883 1090v-150l-541 -346v-6l541 -342v-148h-52l-690 434v119l690 439h52z" />
    <glyph glyph-name="equal" unicode="=" 
d="M102 696v154h820v-154h-820zM102 338v154h820v-154h-820z" />
    <glyph glyph-name="greater" unicode="&#x3e;" 
d="M141 98v150l541 346v6l-541 342v148h52l690 -435v-118l-690 -439h-52z" />
    <glyph glyph-name="question" unicode="?" horiz-adv-x="843" 
d="M203 112q0 58 36 94t91 36t91 -36t36 -94t-36 -95t-91 -37t-91 37t-36 95zM772 1040v-16q0 -192 -193 -322q-101 -68 -124 -101.5t-23 -98.5v-99h-205v109q0 108 34 163.5t138 126.5t136 115t32 107v10q0 75 -58.5 121.5t-155.5 46.5t-182 -30l-28 -11l-24 13
q-13 61 -21 147q0 3 67 29t237 26q169 0 269.5 -91.5t100.5 -244.5z" />
    <glyph glyph-name="at" unicode="@" horiz-adv-x="1710" 
d="M623 489q1 -196 111 -196q54 0 117.5 71t154.5 238l57 281q-97 53 -177 53t-141.5 -68.5t-91.5 -172.5t-30 -206zM969 354q-79 -215 -275 -215q-100 0 -172.5 85.5t-72.5 222.5t27 247.5t78 199.5t132 142.5t195 53.5t235 -95l53 70h109l-125 -627q-17 -83 10 -126.5
t81 -43.5q106 0 189 123.5t83 351.5v76q0 244 -166 380t-463 136h-43q-195 0 -343 -87.5t-227 -242.5t-79 -356v-129q0 -303 170 -473t469 -170h22q235 0 492 49l14 -102q-240 -70 -506 -70h-22q-359 0 -560.5 202.5t-201.5 563.5v129q0 239 92.5 421.5t268 285t411.5 102.5
h43q358 0 554.5 -167.5t196.5 -471.5v-76q0 -142 -35.5 -258.5t-126 -231t-262.5 -114.5q-103 0 -166 55t-69 160h-10z" />
    <glyph glyph-name="A" unicode="A" horiz-adv-x="1048" 
d="M362 492h324l-131 507l-25 121h-12q-12 -76 -24 -121zM25 0l362 1352h275l362 -1352h-211l-82 317h-414l-81 -317h-211z" />
    <glyph glyph-name="B" unicode="B" horiz-adv-x="1021" 
d="M338 758h215q74 0 114 45.5t40 128.5v45q0 211 -224 211h-145v-430zM338 164h227q93 0 138 54t45 140v56q0 90 -48 140t-147 50h-215v-440zM133 0v1352h373q202 0 303.5 -92t101.5 -269v-16q0 -106 -33 -174.5t-120 -104.5v-8q74 -21 119 -70.5t60 -107t15 -133.5v-17
q0 -143 -78 -251.5t-266 -108.5h-475z" />
    <glyph glyph-name="C" unicode="C" horiz-adv-x="886" 
d="M98 614v72q0 524 195 607t305 83t182 -21l25 -7l-19 -152l-20 -12q-72 18 -152 18q-166 0 -236.5 -138t-70.5 -382v-43q0 -258 76.5 -373.5t241.5 -115.5q74 0 149 18l25 6l20 -10q11 -62 19 -148q-26 -15 -95 -28t-147 -13t-196.5 28t-210 174t-91.5 437z" />
    <glyph glyph-name="D" unicode="D" horiz-adv-x="1091" 
d="M338 174h207q122 0 182.5 79t60.5 269v283q0 204 -74.5 288.5t-219.5 84.5h-156v-1004zM133 0v1352h393q220 0 343.5 -134t123.5 -405v-342q0 -229 -104.5 -350t-300.5 -121h-455z" />
    <glyph glyph-name="E" unicode="E" horiz-adv-x="827" 
d="M133 0v1352h635v-174h-430v-400h369v-153h-369v-451h450v-174h-655z" />
    <glyph glyph-name="F" unicode="F" horiz-adv-x="806" 
d="M133 0v1352h635v-174h-430v-410h369v-164h-369v-604h-205z" />
    <glyph glyph-name="G" unicode="G" horiz-adv-x="1038" 
d="M98 625v71q0 440 162.5 560t370.5 120q118 0 238 -30l40 -9l-16 -155l-21 -11q-134 31 -240 31t-215.5 -68.5t-109.5 -449.5v-63q0 -276 69 -373.5t191 -97.5q87 0 176 67v520h205v-737h-112l-31 84q-126 -109 -277 -109q-430 0 -430 650z" />
    <glyph glyph-name="H" unicode="H" horiz-adv-x="1146" 
d="M133 0v1352h205v-584h471v584h205v-1352h-205v594h-471v-594h-205z" />
    <glyph glyph-name="I" unicode="I" horiz-adv-x="471" 
d="M133 0v1352h205v-1352h-205z" />
    <glyph glyph-name="J" unicode="J" horiz-adv-x="688" 
d="M186 150q92 0 128 62t36 220v920h205v-953q0 -225 -78 -324.5t-250 -99.5q-93 0 -161 17l-25 6l12 147l23 15q53 -10 110 -10z" />
    <glyph glyph-name="K" unicode="K" horiz-adv-x="1005" 
d="M133 0v1352h205v-584h92l322 584h223l-367 -666q63 -113 188.5 -343t188.5 -343h-231l-328 594h-88v-594h-205z" />
    <glyph glyph-name="L" unicode="L" horiz-adv-x="772" 
d="M133 0v1352h205v-1178h410v-174h-615z" />
    <glyph glyph-name="M" unicode="M" horiz-adv-x="1454" 
d="M133 0v1352h252l291 -789q24 -62 41 -126l6 -23h8q22 81 47 149l291 789h252v-1352h-205v748l6 241l-14 2q-31 -118 -43 -151l-293 -799h-90l-293 799q-17 46 -37 124l-8 27l-14 -2q8 -169 8 -241v-748h-205z" />
    <glyph glyph-name="N" unicode="N" horiz-adv-x="1212" 
d="M133 0v1352h209l494 -906q19 -36 34 -88l13 2l-9 148v844h205v-1352h-209l-493 901q-10 20 -37 92l-12 -2l10 -147v-844h-205z" />
    <glyph glyph-name="O" unicode="O" horiz-adv-x="1077" 
d="M307 623q0 -244 55 -358.5t173 -114.5h6q119 0 173 113.5t54 359.5v106q0 244 -54.5 358.5t-172.5 114.5h-6q-119 0 -173.5 -113.5t-54.5 -359.5v-106zM98 633v84q0 659 428 659h23q430 0 430 -659v-84q0 -658 -430 -658h-23q-428 0 -428 658z" />
    <glyph glyph-name="P" unicode="P" horiz-adv-x="978" 
d="M338 614h158q221 0 221 226v67q0 139 -58.5 205t-183.5 66h-137v-564zM133 0v1352h369q420 0 420 -437v-75q0 -189 -100.5 -284t-278.5 -95h-205v-461h-205z" />
    <glyph glyph-name="Q" unicode="Q" horiz-adv-x="1077" 
d="M307 623q0 -244 55 -358.5t173 -114.5h6q119 0 173 113.5t54 359.5v106q0 244 -54.5 358.5t-172.5 114.5h-6q-119 0 -173.5 -113.5t-54.5 -359.5v-106zM98 633v84q0 659 428 659h23q430 0 430 -659v-84q0 -400 -160 -557l107 -201l-154 -80l-102 197q-63 -17 -121 -17
h-23q-428 0 -428 658z" />
    <glyph glyph-name="R" unicode="R" horiz-adv-x="1044" 
d="M338 707h166q126 0 185 51.5t59 156.5v21q0 132 -63 187t-204 55h-143v-471zM952 922q0 -250 -213 -332v-4q27 -22 54 -94l194 -492h-219l-203 504q-11 27 -27.5 38t-48.5 11h-151v-553h-205v1352h369q450 0 450 -402v-28z" />
    <glyph glyph-name="S" unicode="S" horiz-adv-x="968" 
d="M414 150q260 0 260 233q0 71 -39.5 119.5t-132.5 81.5l-150 51q-262 90 -262 348q0 185 110 289t330 104q117 0 217 -20l35 -6l-12 -158l-22 -14q-101 24 -207 24q-246 0 -246 -209q0 -73 31 -118t108 -72l148 -51q297 -103 297 -359q0 -418 -451 -418q-153 0 -293 35
l-6 162l27 12q123 -34 258 -34z" />
    <glyph glyph-name="T" unicode="T" horiz-adv-x="806" 
d="M25 1178v174h757v-174h-276v-1178h-205v1178h-276z" />
    <glyph glyph-name="U" unicode="U" horiz-adv-x="1105" 
d="M123 479v873h205v-906q0 -296 225 -296t225 296v906h205v-873q0 -258 -109 -381t-307 -123h-30q-198 0 -306 122.5t-108 381.5z" />
    <glyph glyph-name="V" unicode="V" horiz-adv-x="1048" 
d="M25 1352h211l243 -942q16 -61 30 -152l5 -33h21q18 124 34 185l244 942h211l-350 -1352h-299z" />
    <glyph glyph-name="W" unicode="W" horiz-adv-x="1441" 
d="M25 1352h208l162 -840l25 -170h14q17 109 31 170l190 799h131l191 -799q16 -68 27 -142l4 -28h14q30 205 102.5 577.5t83.5 432.5h209l-262 -1352h-237l-173 737q-2 10 -18 115h-12q-9 -74 -19 -115l-172 -737h-237z" />
    <glyph glyph-name="X" unicode="X" horiz-adv-x="1007" 
d="M25 0l315 692l-299 660h219l195 -422q27 -58 39 -110l6 -21h8q20 78 45 131l195 422h219l-299 -660l315 -692h-219l-219 469q-17 36 -37 104h-8q-17 -61 -37 -104l-219 -469h-219z" />
    <glyph glyph-name="Y" unicode="Y" horiz-adv-x="1044" 
d="M625 0h-205v440l-395 912h221l215 -492q35 -80 49 -153l6 -27h12q21 98 56 180l215 492h221l-395 -914v-438z" />
    <glyph glyph-name="Z" unicode="Z" horiz-adv-x="876" 
d="M70 0v100l462 996q8 17 43 73v9h-471v174h703v-101l-461 -995q-18 -38 -43 -74v-8h504v-174h-737z" />
    <glyph glyph-name="bracketleft" unicode="[" horiz-adv-x="577" 
d="M147 -246v1700h390v-123h-205v-1454h205v-123h-390z" />
    <glyph glyph-name="backslash" unicode="\" horiz-adv-x="1015" 
d="M41 1516h168l766 -1721h-168z" />
    <glyph glyph-name="bracketright" unicode="]" horiz-adv-x="577" 
d="M41 -123h205v1454h-205v123h389v-1700h-389v123z" />
    <glyph glyph-name="asciicircum" unicode="^" horiz-adv-x="1005" 
d="M70 573l368 758h129l369 -758h-172l-256 523h-10l-258 -523h-170z" />
    <glyph glyph-name="underscore" unicode="_" 
d="M0 -143h1024v-82h-1024v82z" />
    <glyph glyph-name="grave" unicode="`" horiz-adv-x="593" 
d="M129 1475h182l185 -256l-15 -31h-119l-233 215v72z" />
    <glyph glyph-name="a" unicode="a" horiz-adv-x="1050" 
d="M438 150q129 0 236 141v241l-225 -30q-175 -24 -175 -174v-11q0 -77 45 -122t119 -45zM70 297v10q0 288 307 328l297 37v14q0 119 -58.5 174t-187.5 55t-230 -23l-34 -7l-21 16q0 31 29 158q119 31 266 31q239 0 340 -99t101 -311v-401q0 -64 20 -92.5t66 -36.5l36 -7
l11 -20l-27 -111q-37 -37 -106 -37q-155 0 -193 170h-6q-46 -76 -123 -123t-180 -47q-138 0 -222.5 93.5t-84.5 228.5z" />
    <glyph glyph-name="b" unicode="b" horiz-adv-x="1040" 
d="M530 150q226 0 226 352v53q0 196 -50 278t-155 82q-50 0 -115 -20.5t-110 -50.5v-608q35 -35 97 -60.5t107 -25.5zM121 0v1434h205v-449h2q136 105 292 105t248.5 -130t92.5 -393v-75q0 -253 -99 -385t-267 -132t-296 138h-4l-51 -113h-123z" />
    <glyph glyph-name="c" unicode="c" horiz-adv-x="796" 
d="M544 915q-68 0 -111.5 -17t-95.5 -80.5t-52 -287.5v-26q0 -209 72.5 -281.5t161.5 -72.5t167 24l25 8l18 -10q15 -62 21 -149q-106 -48 -234 -48q-217 0 -326.5 127.5t-109.5 399.5v30q0 293 109 425.5t331 132.5q105 0 183 -24l26 -7l-18 -154l-19 -10q-80 20 -148 20z
" />
    <glyph glyph-name="d" unicode="d" horiz-adv-x="1091" 
d="M285 498q0 -183 47.5 -265.5t159.5 -82.5t223 141v557q-101 67 -201 67q-229 0 -229 -360v-57zM80 481v86q0 261 105 392t290 131q137 0 236 -76h4v420h205v-1155q0 -61 19 -91.5t67 -37.5l36 -7l11 -20l-27 -111q-37 -37 -106 -37q-151 0 -191 160h-12
q-46 -70 -119.5 -115t-169.5 -45q-159 0 -253.5 123.5t-94.5 382.5z" />
    <glyph glyph-name="e" unicode="e" horiz-adv-x="958" 
d="M285 614h399v72q0 229 -178 229h-10q-90 0 -150.5 -66t-60.5 -196v-39zM522 -25q-442 0 -442 527v71q0 240 116 378.5t304 138.5h10q174 0 271.5 -107.5t97.5 -316.5v-33q0 -54 -13 -145l-4 -27h-577q0 -167 64.5 -239t211.5 -72q104 0 172.5 25.5t69.5 25.5l22 -13
l17 -139q-44 -29 -139 -51.5t-181 -22.5z" />
    <glyph glyph-name="f" unicode="f" horiz-adv-x="690" 
d="M39 891v174h143v92q0 191 80.5 275t257.5 84q66 0 138 -12l24 -3l-14 -158l-21 -12q-69 10 -104 10q-90 0 -123 -39.5t-33 -140.5v-96h254v-174h-254v-891h-205v891h-143z" />
    <glyph glyph-name="g" unicode="g" horiz-adv-x="1046" 
d="M274 713q0 -93 49 -147t146 -54t146 54t49 147v35q0 85 -50.5 136.5t-144.5 51.5t-144.5 -51.5t-50.5 -136.5v-35zM264 -132q0 -70 53.5 -109.5t151.5 -39.5h51q236 0 236 148v6q0 57 -41.5 92t-124.5 35h-213q-31 0 -47 2q-66 -64 -66 -134zM920 891q-33 0 -78 -29
q26 -70 26 -145t-31.5 -164t-131.5 -142t-222 -53h-28q-72 0 -133 17q-39 -65 -39 -107t27.5 -68t74.5 -26h233q161 0 252 -80.5t91 -195.5v-21q0 -133 -107 -222t-324 -89h-71q-192 0 -296 72t-104 184v8q0 59 35.5 117.5t98.5 95.5v8q-84 58 -84 164t90 217
q-129 91 -129 289q0 159 104.5 264t280.5 105h28q180 0 287 -113h2q81 88 195 88h34v-162l-20 -16q-28 4 -61 4z" />
    <glyph glyph-name="h" unicode="h" horiz-adv-x="1054" 
d="M121 0v1434h205v-471h4q149 127 319 127q133 0 212 -84.5t79 -231.5v-774h-205v739q0 176 -160 176q-130 0 -249 -96v-819h-205z" />
    <glyph glyph-name="i" unicode="i" horiz-adv-x="446" 
d="M121 0v1065h205v-1065h-205zM96 1318q0 56 34 86t92 30t92 -30.5t34 -85.5t-34 -85.5t-92 -30.5t-92 30t-34 86z" />
    <glyph glyph-name="j" unicode="j" horiz-adv-x="477" 
d="M127 1318q0 56 34.5 86t92.5 30t91.5 -30.5t33.5 -85.5t-33.5 -85.5t-91.5 -30.5t-92.5 30t-34.5 86zM55 -260q97 0 97 154v1171h204v-1188q0 -158 -59.5 -234.5t-190.5 -76.5q-86 0 -152 24l-22 7l17 133l24 20q39 -10 82 -10z" />
    <glyph glyph-name="k" unicode="k" horiz-adv-x="958" 
d="M121 0v1434h205v-820h63l301 451h219l-338 -512l359 -553h-240l-299 461h-65v-461h-205z" />
    <glyph glyph-name="l" unicode="l" horiz-adv-x="550" 
d="M326 285q0 -135 96 -135q45 0 67 6l23 -23v-131q-62 -27 -150 -27q-127 0 -184 73.5t-57 217.5v1168h205v-1149z" />
    <glyph glyph-name="m" unicode="m" horiz-adv-x="1566" 
d="M121 0v1065h123l57 -123q72 68 145.5 108t163.5 40q180 0 250 -152q69 69 145.5 110.5t188.5 41.5t185 -78.5t73 -216.5v-795h-205v760q0 75 -38.5 115t-100.5 40q-113 0 -223 -96q4 -35 4 -98v-721h-205v760q0 155 -139 155q-112 0 -219 -92v-823h-205z" />
    <glyph glyph-name="n" unicode="n" horiz-adv-x="1054" 
d="M121 0v1065h123l59 -125q163 150 346 150q135 0 213 -86t78 -230v-774h-205v739q0 176 -160 176q-130 0 -249 -96v-819h-205z" />
    <glyph glyph-name="o" unicode="o" horiz-adv-x="999" 
d="M285 438q0 -288 215 -288q107 0 161 75t54 213v189q0 137 -53.5 212.5t-161.5 75.5t-161.5 -75.5t-53.5 -212.5v-189zM80 489v86q0 244 108 379.5t299 135.5h23q192 0 301 -136t109 -379v-86q0 -243 -109 -378.5t-301 -135.5h-23q-191 0 -299 135t-108 379z" />
    <glyph glyph-name="p" unicode="p" horiz-adv-x="1040" 
d="M530 150q226 0 226 352v53q0 196 -50 278t-155 82q-50 0 -115 -20.5t-110 -50.5v-608q35 -35 97 -60.5t107 -25.5zM121 -410v1475h123l51 -107q117 96 188.5 114t128.5 18q349 0 349 -523v-75q0 -256 -100 -386.5t-256 -130.5t-275 107h-4v-492h-205z" />
    <glyph glyph-name="q" unicode="q" horiz-adv-x="1040" 
d="M285 508q0 -195 48.5 -276.5t156.5 -81.5t225 141v557q-107 67 -209 67t-161.5 -83.5t-59.5 -276.5v-47zM80 492v75q0 392 155 457.5t225 65.5q128 0 189.5 -38t104.5 -79l43 92h123v-1475h-205v529h-6q-116 -144 -279 -144t-256.5 128t-93.5 389z" />
    <glyph glyph-name="r" unicode="r" horiz-adv-x="655" 
d="M121 0v1065h123l55 -123h2q44 71 105.5 109.5t156.5 38.5l58 -7l-17 -178l-26 -16q-27 6 -75 6t-99 -30.5t-78 -82.5v-782h-205z" />
    <glyph glyph-name="s" unicode="s" horiz-adv-x="886" 
d="M70 777q0 137 106 225t313 88q96 0 166 -13t70 -14l-14 -158l-25 -12q-116 22 -216 22q-196 0 -196 -147q0 -100 127 -127l131 -27q285 -58 285 -303q0 -336 -420 -336q-154 0 -245 20l-31 7q-10 68 -15 132l-2 26l25 16q123 -26 256 -26q227 0 227 161q0 57 -36.5 89.5
t-129.5 52.5l-116 24q-131 27 -195.5 95t-64.5 205z" />
    <glyph glyph-name="t" unicode="t" horiz-adv-x="692" 
d="M387 311q0 -161 118 -161q54 0 118 10l20 -10v-148q-64 -27 -156 -27q-162 0 -233.5 81.5t-71.5 252.5v582h-143v174h143l51 246h154v-246h256v-174h-256v-580z" />
    <glyph glyph-name="u" unicode="u" horiz-adv-x="1112" 
d="M121 342v723h205v-707q0 -208 163 -208q140 0 246 141v774h205v-786q0 -64 20 -92.5t66 -36.5l37 -7l10 -20l-26 -111q-14 -14 -44.5 -25.5t-62.5 -11.5q-154 0 -192 170h-7q-115 -170 -313 -170q-151 0 -229 96.5t-78 270.5z" />
    <glyph glyph-name="v" unicode="v" horiz-adv-x="942" 
d="M33 1065h203l174 -614l53 -246h16l53 246l175 614h202l-305 -1065h-266z" />
    <glyph glyph-name="w" unicode="w" horiz-adv-x="1425" 
d="M33 1065h200l150 -684l27 -156h18q31 173 108 483.5t87 356.5h180l166 -684l28 -156h19q28 172 97.5 483.5t78.5 356.5h201l-236 -1065h-270l-144 578l-20 129h-21q-14 -100 -20 -129l-143 -578h-271z" />
    <glyph glyph-name="x" unicode="x" horiz-adv-x="925" 
d="M39 0l270 537l-260 528h217l152 -307l39 -119h12l39 119l151 307h218l-261 -528l271 -537h-217l-164 324l-37 106h-12l-37 -106l-164 -324h-217z" />
    <glyph glyph-name="y" unicode="y" horiz-adv-x="980" 
d="M279 -430q-74 0 -142 24l19 140l24 20q33 -10 73 -10t67 30.5t55 116.5l35 109l-377 1065h205l219 -614q20 -60 33 -135l6 -29h16q17 101 37 164l192 614h207l-375 -1192q-53 -169 -112.5 -236t-181.5 -67z" />
    <glyph glyph-name="z" unicode="z" horiz-adv-x="862" 
d="M59 0v121l433 704l49 62l-4 8l-72 -4h-385v174h723v-92l-455 -744l-45 -55l4 -6l76 6h420v-174h-744z" />
    <glyph glyph-name="braceleft" unicode="{" horiz-adv-x="604" 
d="M338 18q0 -141 129 -141l96 6v-119q-70 -10 -121 -10q-143 0 -214.5 71t-71.5 187t40 244t40 174t-31.5 79.5t-83.5 33.5h-49v123h49q52 0 83.5 33t31.5 79t-40 174.5t-40 225.5q0 276 286 276q26 0 121 -10v-119q-53 6 -96 6q-129 0 -129 -141q0 -47 34 -175.5
t34 -207.5t-44.5 -131t-117.5 -68v-8q73 -16 117.5 -68t44.5 -131t-34 -207.5t-34 -175.5z" />
    <glyph glyph-name="bar" unicode="|" horiz-adv-x="489" 
d="M168 -205v1721h154v-1721h-154z" />
    <glyph glyph-name="braceright" unicode="}" horiz-adv-x="604" 
d="M162 -246q-26 0 -121 10v119q53 -6 96 -6q129 0 129 141q0 47 -33.5 175.5t-33.5 207.5t44 131t117 68v8q-73 16 -117 68t-44 131t33.5 207.5t33.5 175.5q0 141 -129 141l-96 -6v119q70 10 121 10q143 0 215 -70.5t72 -186.5t-40 -244.5t-40 -174.5t31 -79t83 -33h49
v-123h-49q-51 0 -82.5 -33t-31.5 -80t40 -174.5t40 -243.5t-72 -187t-215 -71z" />
    <glyph glyph-name="asciitilde" unicode="~" horiz-adv-x="1261" 
d="M78 389q0 190 77 300t212 110t214.5 -69.5t153.5 -138.5t145 -69q70 0 115 61t45 195h144q0 -191 -76.5 -300t-209.5 -109t-213.5 69t-156.5 138t-147 69q-72 0 -116 -60t-44 -196h-143z" />
    <glyph glyph-name="uni00A0" unicode="&#xa0;" horiz-adv-x="450" 
 />
    <glyph glyph-name="exclamdown" unicode="&#xa1;" horiz-adv-x="520" 
d="M369 -332q0 -82 -93 -82h-32q-52 0 -72 20.5t-20 61.5v240l55 645h106l56 -645v-240zM133 892q0 58 36 95t91 37t91 -37t36 -95t-36 -94t-91 -36t-91 36t-36 94z" />
    <glyph glyph-name="cent" unicode="&#xa2;" horiz-adv-x="802" 
d="M72 639v25q0 192 80 309t239 147v232h154v-224q82 -4 154 -20l22 -6l-19 -156l-18 -10q-80 20 -162 20q-246 0 -246 -292v-23q0 -266 250 -266q75 0 150 26l26 9l19 -9q9 -27 20 -159q-83 -35 -196 -43v-219h-154v229q-152 27 -235.5 134t-83.5 296z" />
    <glyph glyph-name="sterling" unicode="&#xa3;" horiz-adv-x="890" 
d="M461 532q0 -181 -158 -344v-14h547v-174h-799v143q201 175 205 389h-184v134h151q-16 31 -23 44l-72 112q-65 99 -65 192q0 153 122 235t317 82q126 0 206 -19.5t80 -21.5l-18 -153l-22 -13q-110 33 -226 33t-185 -44.5t-69 -129.5q0 -46 28.5 -96.5t72 -112t63.5 -108.5
h295v-134h-266z" />
    <glyph glyph-name="currency" unicode="&#xa4;" horiz-adv-x="1234" 
d="M309 656q0 -128 89.5 -218t217.5 -90t218 90t90 217t-90 217.5t-218 90.5t-217.5 -89.5t-89.5 -217.5zM156 656q0 150 86 268l-170 170l108 108l170 -172q120 86 265 86t268 -86l172 172l108 -108l-172 -172q86 -123 86 -268t-86 -265l172 -172l-108 -108l-172 172
q-119 -86 -267 -86t-266 84l-170 -170l-108 108l170 170q-86 119 -86 269z" />
    <glyph glyph-name="yen" unicode="&#xa5;" horiz-adv-x="1040" 
d="M967 645v-133h-314l-30 -74v-80h344v-133h-344v-225h-205v225h-344v133h344v82l-31 72h-313v133h254l-297 686h221l207 -471l51 -180h20l52 180l206 471h222l-299 -686h256z" />
    <glyph glyph-name="brokenbar" unicode="&#xa6;" horiz-adv-x="489" 
d="M168 778v778h154v-778h-154zM168 -205v778h154v-778h-154z" />
    <glyph glyph-name="section" unicode="&#xa7;" horiz-adv-x="915" 
d="M297 625q0 -55 31 -90t114 -62l43 -14q133 28 133 145q0 55 -31 90t-114 62l-45 14q-131 -28 -131 -145zM92 625q0 152 135 231v8q-90 82 -90 214t95.5 215t273.5 83q97 0 151 -12t54 -14l-15 -158l-24 -12q-78 22 -159 22t-126 -35.5t-45 -88.5t25.5 -84t81.5 -48
l126 -39q129 -40 188.5 -114.5t59.5 -166.5q0 -176 -135 -253v-11q90 -80 90 -212t-95 -214.5t-273 -82.5q-97 0 -151 12t-54 14l14 158l25 12q77 -22 158 -22t126 35.5t45 88.5t-25 84t-81 48l-127 39q-129 40 -188.5 115t-59.5 188z" />
    <glyph glyph-name="dieresis" unicode="&#xa8;" horiz-adv-x="856" 
d="M510 1332q0 46 29 75t71 29t71.5 -30t29.5 -75t-29.5 -74.5t-71.5 -29.5t-71 29.5t-29 75.5zM145 1331q0 45 29.5 75t71.5 30t71 -30t29 -75t-29 -74.5t-71 -29.5t-71.5 29.5t-29.5 74.5z" />
    <glyph glyph-name="copyright" unicode="&#xa9;" horiz-adv-x="1466" 
d="M612 678q0 -207 151 -207q68 0 146 29l15 -6q8 -62 12 -109q-78 -37 -196 -37t-194.5 76t-76.5 240v43q0 337 299 337q75 0 143 -20l-8 -111l-14 -6q-58 15 -105 15q-88 0 -130 -50.5t-42 -166.5v-27zM221 696q0 -139 69 -257t187 -186.5t256 -68.5q212 0 362 150
t150 362t-150 362t-362 150q-138 0 -256 -68.5t-187 -186.5t-69 -257zM98 696q0 129 50.5 246.5t135.5 202.5t202.5 135.5t246.5 50.5t246.5 -50.5t202.5 -135.5t135.5 -202.5t50.5 -246.5t-50.5 -246.5t-135.5 -202.5t-202.5 -135.5t-246.5 -50.5t-246.5 50.5t-202.5 135.5
t-135.5 202.5t-50.5 246.5z" />
    <glyph glyph-name="ordfeminine" unicode="&#xaa;" horiz-adv-x="749" 
d="M236 745q0 -44 24.5 -68t67.5 -24q84 0 145 86v133l-129 -18q-108 -14 -108 -109zM614 520q-104 0 -131 98h-8q-70 -98 -196 -98q-88 0 -142.5 57.5t-54.5 147.5v14q0 107 64 153.5t192 59.5l135 15q0 70 -30 101.5t-114 31.5t-159 -18l-25 -5l-18 17q0 9 7.5 54t12.5 62
q89 23 185 23q152 0 223.5 -59.5t71.5 -180.5v-272q0 -58 45 -64l35 -4l8 -24l-9 -44q-8 -44 -39.5 -54.5t-52.5 -10.5z" />
    <glyph glyph-name="guillemotleft" unicode="&#xab;" horiz-adv-x="929" 
d="M457 451l231 450h148l-181 -450l181 -451h-148zM74 451l231 450h148l-181 -450l181 -451h-148z" />
    <glyph glyph-name="logicalnot" unicode="&#xac;" 
d="M102 614v154h820v-492h-154v338h-666z" />
    <glyph glyph-name="uni00AD" unicode="&#xad;" horiz-adv-x="684" 
d="M86 532v154h512v-154h-512z" />
    <glyph glyph-name="registered" unicode="&#xae;" horiz-adv-x="847" 
d="M449 997q49 1 49 57t-72 56h-57v-113h80zM436 1192q154 0 154 -149q0 -76 -66 -105l58 -137h-97l-51 125h-65v-125h-93v391h160zM133 992q0 -122 84.5 -206t206.5 -84t206.5 84t84.5 206t-84.5 207t-206.5 85t-206.5 -85t-84.5 -207zM41 993q0 160 111.5 271.5
t271.5 111.5t271.5 -111.5t111.5 -271.5t-111.5 -271.5t-271.5 -111.5t-271.5 111.5t-111.5 271.5z" />
    <glyph glyph-name="macron" unicode="&#xaf;" horiz-adv-x="716" 
d="M113 1260v133h491v-133h-491z" />
    <glyph glyph-name="degree" unicode="&#xb0;" horiz-adv-x="806" 
d="M229 1058q0 -70 52 -121.5t122 -51.5t122.5 51.5t52.5 121.5t-52 122.5t-123 52.5t-122.5 -52.5t-51.5 -122.5zM96 1058q0 128 89.5 218t217.5 90t218 -90t90 -218t-90.5 -217t-217.5 -89t-217 89t-90 217z" />
    <glyph glyph-name="plusminus" unicode="&#xb1;" 
d="M61 594v154h373v317h154v-317h375v-154h-375v-307h-154v307h-373zM61 51v154h902v-154h-902z" />
    <glyph glyph-name="uni00B2" unicode="&#xb2;" horiz-adv-x="655" 
d="M72 860v135q0 55 23.5 94t97.5 95l94 71q90 68 117.5 104.5t25.5 84.5q0 110 -156 110q-66 0 -138 -27l-23 -9l-19 8q-6 59 -8 110q0 2 61.5 27t175.5 25t187.5 -70t73.5 -168t-43.5 -157t-159.5 -146l-92 -70q-64 -48 -64 -71v-13h346v-133h-499z" />
    <glyph glyph-name="uni00B3" unicode="&#xb3;" horiz-adv-x="606" 
d="M280 1688q117 0 183.5 -62t66.5 -168t-84 -160v-4q107 -60 107 -184t-72.5 -193t-202.5 -69t-202 24l-25 9l10 112l17 8q84 -20 160 -20t118.5 34t42.5 95q0 111 -143 111h-127v112h133q53 0 84 30t31 82q0 109 -141 109q-55 0 -124 -22l-22 -8l-16 8q-7 61 -13 110
q102 46 219 46z" />
    <glyph glyph-name="acute" unicode="&#xb4;" horiz-adv-x="962" 
d="M766 1475v-72l-234 -215h-118l-15 31l185 256h182z" />
    <glyph glyph-name="uni00B5" unicode="&#xb5;" horiz-adv-x="1095" 
d="M113 -410v1475h204v-707q0 -208 164 -208q140 0 246 141v774h205v-786q0 -64 20 -92.5t66 -36.5l37 -7l10 -20l-27 -111q-37 -37 -106 -37q-155 0 -193 170h-6q-115 -170 -313 -170q-56 0 -103 15v-400h-204z" />
    <glyph glyph-name="paragraph" unicode="&#xb6;" horiz-adv-x="1087" 
d="M82 982q0 176 85.5 273t254.5 97h604v-133h-143v-1342h-133v1342h-185v-1342h-133v741h-49q-138 0 -219.5 94t-81.5 270z" />
    <glyph glyph-name="periodcentered" unicode="&#xb7;" horiz-adv-x="540" 
d="M143 614q0 58 36 94.5t91 36.5t91 -36.5t36 -94.5t-36 -94.5t-91 -36.5t-91 36.5t-36 94.5z" />
    <glyph glyph-name="cedilla" unicode="&#xb8;" horiz-adv-x="626" 
d="M240 -332q104 0 104 70q0 51 -68 51h-116l28 211h113l-8 -119h41q153 0 153 -143q0 -82 -53.5 -127t-147.5 -45t-158 14l-22 4l13 97q68 -13 121 -13z" />
    <glyph glyph-name="uni00B9" unicode="&#xb9;" horiz-adv-x="520" 
d="M61 1425v91l222 159h98v-815h-154v627l-8 4l-100 -66h-58z" />
    <glyph glyph-name="ordmasculine" unicode="&#xba;" horiz-adv-x="737" 
d="M236 821q0 -85 35.5 -126.5t97.5 -41.5t97.5 41.5t35.5 126.5v111q0 85 -35.5 126.5t-97.5 41.5t-97.5 -41.5t-35.5 -126.5v-111zM82 842v69q0 152 77.5 237t198.5 85h21q121 0 198.5 -85t77.5 -237v-69q0 -152 -77.5 -237t-198.5 -85h-21q-121 0 -198.5 85t-77.5 237z
" />
    <glyph glyph-name="guillemotright" unicode="&#xbb;" horiz-adv-x="929" 
d="M477 0q100 255 180 451q-91 225 -180 450h148l231 -450l-231 -451h-148zM94 0q100 255 180 451q-92 225 -180 450h148l231 -450l-231 -451h-148z" />
    <glyph glyph-name="onequarter" unicode="&#xbc;" horiz-adv-x="1462" 
d="M836 154v133l208 524h154l-209 -524h170l41 225h113v-225h108v-133h-108v-154h-154v154h-323zM178 -25l844 1401h168l-844 -1401h-168zM61 1102v90l222 160h98v-815h-154v626l-8 4l-100 -65h-58z" />
    <glyph glyph-name="onehalf" unicode="&#xbd;" horiz-adv-x="1525" 
d="M942 0v135q0 55 23.5 94t97.5 95l94 71q90 68 117.5 104.5t25.5 84.5q0 110 -155 110q-72 0 -139 -28l-23 -9l-18 9q-7 59 -9 110q0 2 60 26.5t176 24.5t189 -69.5t73 -167.5t-43.5 -157t-159.5 -146l-92 -70q-37 -28 -50 -42t-13 -30v-12h346v-133h-500zM178 -25
l844 1401h168l-844 -1401h-168zM61 1102v90l222 160h98v-815h-154v626l-8 4l-100 -65h-58z" />
    <glyph glyph-name="threequarters" unicode="&#xbe;" horiz-adv-x="1538" 
d="M911 154v133l209 524h154l-209 -524h170l41 225h113v-225h108v-133h-108v-154h-154v154h-324zM281 -25l843 1401h168l-843 -1401h-168zM238 657q76 0 118.5 34t42.5 95q0 111 -143 111h-127v113h133q53 0 84 29.5t31 81.5q0 110 -141 110q-61 0 -124 -23l-22 -8l-16 8
q-7 62 -13 111q94 45 215 45t187.5 -62t66.5 -168t-84 -159v-4q107 -60 107 -184t-72.5 -193.5t-202.5 -69.5t-202 24l-25 9l10 113l17 8q84 -21 160 -21z" />
    <glyph glyph-name="questiondown" unicode="&#xbf;" horiz-adv-x="843" 
d="M387 892q0 58 36 95t91 37t91 -37t36 -95t-36 -94t-91 -36t-91 36t-36 94zM72 -20q0 97 45.5 174.5t146.5 145.5t124.5 102.5t23.5 99.5v98h204v-108q0 -108 -34 -164t-138 -126t-136 -114.5t-32 -107.5v-11q0 -75 59 -121.5t155 -46.5t182 31l28 10l25 -12
q12 -61 20 -147q0 -3 -65.5 -29.5t-236.5 -26.5q-170 0 -270.5 91.5t-100.5 244.5v17z" />
    <glyph glyph-name="Agrave" unicode="&#xc0;" horiz-adv-x="1048" 
d="M362 492h324l-131 507l-25 121h-12q-12 -76 -24 -121zM276 1761h183l184 -256l-14 -30h-119l-234 215v71zM25 0l362 1352h275l362 -1352h-211l-82 317h-414l-81 -317h-211z" />
    <glyph glyph-name="Aacute" unicode="&#xc1;" horiz-adv-x="1048" 
d="M821 1761v-71l-233 -215h-119l-14 30l184 256h182zM362 492h324l-131 507l-25 121h-12q-12 -76 -24 -121zM25 0l362 1352h275l362 -1352h-211l-82 317h-414l-81 -317h-211z" />
    <glyph glyph-name="Acircumflex" unicode="&#xc2;" horiz-adv-x="1048" 
d="M362 492h324l-131 507l-25 121h-12q-12 -76 -24 -121zM231 1516l211 245h172l209 -245l-14 -41h-109l-172 143l-174 -143h-106zM25 0l362 1352h275l362 -1352h-211l-82 317h-414l-81 -317h-211z" />
    <glyph glyph-name="Atilde" unicode="&#xc3;" horiz-adv-x="1048" 
d="M362 492h324l-131 507l-25 121h-12q-12 -76 -24 -121zM406 1614q-76 0 -130 -137l-104 32q37 133 93.5 190.5t133.5 57.5t153.5 -68.5t115.5 -68.5q67 0 123 137l102 -33q-39 -133 -92 -190t-128 -57t-148.5 68.5t-118.5 68.5zM25 0l362 1352h275l362 -1352h-211l-82 317
h-414l-81 -317h-211z" />
    <glyph glyph-name="Adieresis" unicode="&#xc4;" horiz-adv-x="1048" 
d="M606 1618q0 45 29 74.5t71 29.5t71.5 -29.5t29.5 -74.5t-29.5 -75t-71.5 -30t-71 30t-29 75zM362 492h324l-131 507l-25 121h-12q-12 -76 -24 -121zM242 1618q0 46 29 75t71 29t71 -29.5t29 -74.5t-29 -75t-71 -30t-71 29.5t-29 75.5zM25 0l362 1352h275l362 -1352h-211
l-82 317h-414l-81 -317h-211z" />
    <glyph glyph-name="Aring" unicode="&#xc5;" horiz-adv-x="1048" 
d="M422 1490q0 -44 29 -71.5t60 -27.5t53.5 6.5t42.5 32t20 64.5q0 40 -29.5 68.5t-73.5 28.5t-73 -28.5t-29 -72.5zM358 492h332l-133 532l-22 113h-21q-26 -132 -86.5 -370.5t-69.5 -274.5zM299 1492q0 88 62.5 146t162.5 58t163 -58.5t63 -145.5t-62 -146l336 -1346h-211
l-80 317h-420l-77 -317h-211l335 1346q-61 58 -61 146z" />
    <glyph glyph-name="AE" unicode="&#xc6;" horiz-adv-x="1294" 
d="M600 492v686h-47q-15 -57 -33 -123l-151 -563h231zM1235 1352v-174h-430v-400h369v-153h-369v-451h450v-174h-655v317h-278l-86 -317h-211l374 1352h836z" />
    <glyph glyph-name="Ccedilla" unicode="&#xc7;" horiz-adv-x="886" 
d="M618 -119q154 0 154 -143q0 -82 -53.5 -127t-148.5 -45t-156 14l-23 4l12 97q68 -13 121 -13q105 0 105 70q0 51 -68 51h-117l27 199q-276 55 -324.5 263.5t-48.5 362.5v72q0 524 195 607t305 83t182 -21l25 -7l-19 -152l-20 -12q-72 18 -152 18q-166 0 -236.5 -138
t-70.5 -382v-43q0 -258 76.5 -373.5t241.5 -115.5q74 0 149 18l25 6l20 -10q11 -62 19 -148q-26 -15 -94.5 -28t-133.5 -13h-26l-6 -94h40z" />
    <glyph glyph-name="Egrave" unicode="&#xc8;" horiz-adv-x="827" 
d="M186 1761h183l184 -256l-14 -30h-119l-234 215v71zM133 0v1352h635v-174h-430v-400h369v-153h-369v-451h450v-174h-655z" />
    <glyph glyph-name="Eacute" unicode="&#xc9;" horiz-adv-x="827" 
d="M717 1761v-71l-234 -215h-118l-15 30l185 256h182zM133 0v1352h635v-174h-430v-400h369v-153h-369v-451h450v-174h-655z" />
    <glyph glyph-name="Ecircumflex" unicode="&#xca;" horiz-adv-x="827" 
d="M154 1516l211 245h172l208 -245l-14 -41h-108l-172 143l-175 -143h-106zM133 0v1352h635v-174h-430v-400h369v-153h-369v-451h450v-174h-655z" />
    <glyph glyph-name="Edieresis" unicode="&#xcb;" horiz-adv-x="827" 
d="M543 1600q0 46 28.5 75t70.5 29t71.5 -30t29.5 -75t-29.5 -74.5t-71.5 -29.5t-70.5 29.5t-28.5 75.5zM178 1599q0 45 29 75t71 30t71.5 -30t29.5 -75t-29.5 -74.5t-71.5 -29.5t-71 29.5t-29 74.5zM133 0v1352h635v-174h-430v-400h369v-153h-369v-451h450v-174h-655z" />
    <glyph glyph-name="Igrave" unicode="&#xcc;" horiz-adv-x="471" 
d="M133 0v1352h205v-1352h-205zM-31 1761h183l184 -256l-14 -30h-119l-234 215v71z" />
    <glyph glyph-name="Iacute" unicode="&#xcd;" horiz-adv-x="471" 
d="M502 1761v-71l-234 -215h-118l-15 30l184 256h183zM133 0v1352h205v-1352h-205z" />
    <glyph glyph-name="Icircumflex" unicode="&#xce;" horiz-adv-x="471" 
d="M133 0v1352h205v-1352h-205zM-59 1516l211 245h172l208 -245l-14 -41h-108l-172 143l-175 -143h-106z" />
    <glyph glyph-name="Idieresis" unicode="&#xcf;" horiz-adv-x="471" 
d="M317 1602q0 45 29.5 74.5t71.5 29.5t71 -29.5t29 -74.5t-29 -75t-71 -30t-71.5 30t-29.5 75zM133 0v1352h205v-1352h-205zM-47 1602q0 46 28.5 75t70.5 29t72 -29.5t30 -74.5t-30 -75t-72 -30t-70.5 29.5t-28.5 75.5z" />
    <glyph glyph-name="Eth" unicode="&#xd0;" horiz-adv-x="1091" 
d="M338 174h207q122 0 182.5 79t60.5 269v283q0 204 -74.5 288.5t-219.5 84.5h-156v-441h174v-153h-174v-410zM0 584v153h133v615h393q220 0 343.5 -134t123.5 -405v-342q0 -229 -104.5 -350t-300.5 -121h-455v584h-133z" />
    <glyph glyph-name="Ntilde" unicode="&#xd1;" horiz-adv-x="1212" 
d="M512 1634q-75 0 -129 -137l-104 33q37 133 93 190.5t133 57.5t153 -69t116 -69q66 0 123 138l102 -33q-40 -133 -92.5 -190.5t-127.5 -57.5t-148.5 68.5t-118.5 68.5zM133 0v1352h209l494 -906q19 -36 34 -88l13 2l-9 148v844h205v-1352h-209l-493 901q-10 20 -37 92
l-12 -2l10 -147v-844h-205z" />
    <glyph glyph-name="Ograve" unicode="&#xd2;" horiz-adv-x="1077" 
d="M307 623q0 -244 55 -358.5t173 -114.5h6q119 0 173 113.5t54 359.5v106q0 244 -54.5 358.5t-172.5 114.5h-6q-119 0 -173.5 -113.5t-54.5 -359.5v-106zM242 1761h182l184 -256l-14 -30h-119l-233 215v71zM98 633v84q0 659 428 659h23q430 0 430 -659v-84
q0 -658 -430 -658h-23q-428 0 -428 658z" />
    <glyph glyph-name="Oacute" unicode="&#xd3;" horiz-adv-x="1077" 
d="M842 1761v-71l-234 -215h-119l-14 30l184 256h183zM307 623q0 -244 55 -358.5t173 -114.5h6q119 0 173 113.5t54 359.5v106q0 244 -54.5 358.5t-172.5 114.5h-6q-119 0 -173.5 -113.5t-54.5 -359.5v-106zM98 633v84q0 659 428 659h23q430 0 430 -659v-84
q0 -658 -430 -658h-23q-428 0 -428 658z" />
    <glyph glyph-name="Ocircumflex" unicode="&#xd4;" horiz-adv-x="1077" 
d="M307 623q0 -244 55 -358.5t173 -114.5h6q119 0 173 113.5t54 359.5v106q0 244 -54.5 358.5t-172.5 114.5h-6q-119 0 -173.5 -113.5t-54.5 -359.5v-106zM240 1516l211 245h172l208 -245l-14 -41h-108l-172 143l-175 -143h-106zM98 633v84q0 659 428 659h23q430 0 430 -659
v-84q0 -658 -430 -658h-23q-428 0 -428 658z" />
    <glyph glyph-name="Otilde" unicode="&#xd5;" horiz-adv-x="1077" 
d="M307 623q0 -244 55 -358.5t173 -114.5h6q119 0 173 113.5t54 359.5v106q0 244 -54.5 358.5t-172.5 114.5h-6q-119 0 -173.5 -113.5t-54.5 -359.5v-106zM416 1634q-75 0 -129 -137l-105 33q37 133 93.5 190.5t133.5 57.5t153 -69t116 -69q66 0 123 138l102 -33
q-40 -133 -92.5 -190.5t-127.5 -57.5t-148.5 68.5t-118.5 68.5zM98 633v84q0 659 428 659h23q430 0 430 -659v-84q0 -658 -430 -658h-23q-428 0 -428 658z" />
    <glyph glyph-name="Odieresis" unicode="&#xd6;" horiz-adv-x="1077" 
d="M618 1593q0 45 29 75t71 30t71.5 -30t29.5 -75t-29.5 -74.5t-71.5 -29.5t-71 29.5t-29 74.5zM307 623q0 -244 55 -358.5t173 -114.5h6q119 0 173 113.5t54 359.5v106q0 244 -54.5 358.5t-172.5 114.5h-6q-119 0 -173.5 -113.5t-54.5 -359.5v-106zM254 1594q0 46 29 75
t71 29t71.5 -30t29.5 -75t-29.5 -74.5t-71.5 -29.5t-71 29.5t-29 75.5zM98 633v84q0 659 428 659h23q430 0 430 -659v-84q0 -658 -430 -658h-23q-428 0 -428 658z" />
    <glyph glyph-name="multiply" unicode="&#xd7;" 
d="M139 350l264 264l-264 265l109 108l264 -264l264 264l109 -108l-264 -265l264 -264l-109 -108l-264 264l-264 -264z" />
    <glyph glyph-name="Oslash" unicode="&#xd8;" horiz-adv-x="1077" 
d="M535 150h6q119 0 173 113.5t54 359.5v106q0 108 -14 215h-6l-31 -74l-332 -647q55 -73 150 -73zM307 623q0 -139 19 -244h8l26 63l340 668q-56 92 -159 92h-6q-119 0 -173.5 -113.5t-54.5 -359.5v-106zM98 633v84q0 659 428 659h23q151 0 246 -80l75 146l111 -56
l-98 -192q96 -169 96 -477v-84q0 -658 -430 -658h-23q-138 0 -233 68l-68 -133l-108 55l88 174q-107 162 -107 494z" />
    <glyph glyph-name="Ugrave" unicode="&#xd9;" horiz-adv-x="1105" 
d="M285 1761h182l184 -256l-14 -30h-119l-233 215v71zM123 479v873h205v-906q0 -296 225 -296t225 296v906h205v-873q0 -258 -109 -381t-307 -123h-30q-198 0 -306 122.5t-108 381.5z" />
    <glyph glyph-name="Uacute" unicode="&#xda;" horiz-adv-x="1105" 
d="M850 1761v-71l-234 -215h-118l-15 30l185 256h182zM123 479v873h205v-906q0 -296 225 -296t225 296v906h205v-873q0 -258 -109 -381t-307 -123h-30q-198 0 -306 122.5t-108 381.5z" />
    <glyph glyph-name="Ucircumflex" unicode="&#xdb;" horiz-adv-x="1105" 
d="M262 1516l211 245h172l209 -245l-14 -41h-109l-172 143l-174 -143h-106zM123 479v873h205v-906q0 -296 225 -296t225 296v906h205v-873q0 -258 -109 -381t-307 -123h-30q-198 0 -306 122.5t-108 381.5z" />
    <glyph glyph-name="Udieresis" unicode="&#xdc;" horiz-adv-x="1105" 
d="M637 1592q0 46 28.5 75t70.5 29t72 -30t30 -75t-30 -74.5t-72 -29.5t-70.5 29.5t-28.5 75.5zM272 1591q0 45 29 75t71 30t71.5 -30t29.5 -75t-29.5 -74.5t-71.5 -29.5t-71 29.5t-29 74.5zM123 479v873h205v-906q0 -296 225 -296t225 296v906h205v-873q0 -258 -109 -381
t-307 -123h-30q-198 0 -306 122.5t-108 381.5z" />
    <glyph glyph-name="Yacute" unicode="&#xdd;" horiz-adv-x="1044" 
d="M815 1761v-71l-233 -215h-119l-14 30l184 256h182zM625 0h-205v440l-395 912h221l215 -492q35 -80 49 -153l6 -27h12q21 98 56 180l215 492h221l-395 -914v-438z" />
    <glyph glyph-name="Thorn" unicode="&#xde;" horiz-adv-x="989" 
d="M338 379h158q221 0 221 225v68q0 139 -58.5 204.5t-183.5 65.5h-137v-563zM133 0v1352h205v-236h164q420 0 420 -436v-76q0 -189 -100.5 -284t-278.5 -95h-205v-225h-205z" />
    <glyph glyph-name="germandbls" unicode="&#xdf;" horiz-adv-x="1142" 
d="M643 150q116 0 170.5 52t54.5 161t-127 182l-57 33q-78 45 -109 89t-33 106t26 107.5t86 103.5t74.5 95.5t16.5 103.5t-50.5 112t-153.5 46q-215 0 -215 -286v-1055h-205v1055q0 230 110.5 345.5t302.5 115.5t304 -91t112 -245t-123 -273q-55 -55 -68.5 -75t-13.5 -44
t14.5 -38.5t53.5 -36.5l66 -37q194 -110 194 -307q0 -394 -409 -394l-144 9v159l21 15q53 -8 102 -8z" />
    <glyph glyph-name="agrave" unicode="&#xe0;" horiz-adv-x="1050" 
d="M438 150q129 0 236 141v241l-225 -30q-175 -24 -175 -174v-11q0 -77 45 -122t119 -45zM246 1475h182l184 -256l-14 -31h-119l-233 215v72zM70 297v10q0 288 307 328l297 37v14q0 119 -58.5 174t-187.5 55t-230 -23l-34 -7l-21 16q0 31 29 158q119 31 266 31
q239 0 340 -99t101 -311v-401q0 -64 20 -92.5t66 -36.5l36 -7l11 -20l-27 -111q-37 -37 -106 -37q-155 0 -193 170h-6q-46 -76 -123 -123t-180 -47q-138 0 -222.5 93.5t-84.5 228.5z" />
    <glyph glyph-name="aacute" unicode="&#xe1;" horiz-adv-x="1050" 
d="M768 1475v-72l-233 -215h-119l-15 31l185 256h182zM438 150q129 0 236 141v241l-225 -30q-175 -24 -175 -174v-11q0 -77 45 -122t119 -45zM70 297v10q0 288 307 328l297 37v14q0 119 -58.5 174t-187.5 55t-230 -23l-34 -7l-21 16q0 31 29 158q119 31 266 31
q239 0 340 -99t101 -311v-401q0 -64 20 -92.5t66 -36.5l36 -7l11 -20l-27 -111q-37 -37 -106 -37q-155 0 -193 170h-6q-46 -76 -123 -123t-180 -47q-138 0 -222.5 93.5t-84.5 228.5z" />
    <glyph glyph-name="acircumflex" unicode="&#xe2;" horiz-adv-x="1050" 
d="M438 150q129 0 236 141v241l-225 -30q-175 -24 -175 -174v-11q0 -77 45 -122t119 -45zM207 1229l211 246h172l209 -246l-15 -41h-108l-172 143l-174 -143h-107zM70 297v10q0 288 307 328l297 37v14q0 119 -58.5 174t-187.5 55t-230 -23l-34 -7l-21 16q0 31 29 158
q119 31 266 31q239 0 340 -99t101 -311v-401q0 -64 20 -92.5t66 -36.5l36 -7l11 -20l-27 -111q-37 -37 -106 -37q-155 0 -193 170h-6q-46 -76 -123 -123t-180 -47q-138 0 -222.5 93.5t-84.5 228.5z" />
    <glyph glyph-name="atilde" unicode="&#xe3;" horiz-adv-x="1050" 
d="M438 150q129 0 236 141v241l-225 -30q-175 -24 -175 -174v-11q0 -77 45 -122t119 -45zM375 1337q-75 0 -129 -137l-105 33q37 133 93.5 190.5t133.5 57.5t153 -69t116 -69q66 0 123 138l102 -33q-40 -133 -92.5 -190.5t-127.5 -57.5t-148.5 68.5t-118.5 68.5zM70 297v10
q0 288 307 328l297 37v14q0 119 -58.5 174t-187.5 55t-230 -23l-34 -7l-21 16q0 31 29 158q119 31 266 31q239 0 340 -99t101 -311v-401q0 -64 20 -92.5t66 -36.5l36 -7l11 -20l-27 -111q-37 -37 -106 -37q-155 0 -193 170h-6q-46 -76 -123 -123t-180 -47
q-138 0 -222.5 93.5t-84.5 228.5z" />
    <glyph glyph-name="adieresis" unicode="&#xe4;" horiz-adv-x="1050" 
d="M586 1310q0 46 29 75.5t71 29.5t71 -29.5t29 -74.5t-29 -75t-71 -30t-71 29t-29 75zM438 150q129 0 236 141v241l-225 -30q-175 -24 -175 -174v-11q0 -77 45 -122t119 -45zM221 1311q0 45 29.5 74.5t71.5 29.5t71 -29.5t29 -74.5t-29 -75t-71 -30t-71.5 30t-29.5 75z
M70 297v10q0 288 307 328l297 37v14q0 119 -58.5 174t-187.5 55t-230 -23l-34 -7l-21 16q0 31 29 158q119 31 266 31q239 0 340 -99t101 -311v-401q0 -64 20 -92.5t66 -36.5l36 -7l11 -20l-27 -111q-37 -37 -106 -37q-155 0 -193 170h-6q-46 -76 -123 -123t-180 -47
q-138 0 -222.5 93.5t-84.5 228.5z" />
    <glyph glyph-name="aring" unicode="&#xe5;" horiz-adv-x="1050" 
d="M383 1388q0 -44 29 -72t73 -28t73.5 28t29.5 72t-29.5 72.5t-73.5 28.5t-73 -28.5t-29 -72.5zM438 150q129 0 236 141v241l-225 -30q-175 -24 -175 -174v-11q0 -77 45 -122t119 -45zM260 1389q0 88 62 146t162 58t163.5 -58.5t63.5 -146.5t-63.5 -146t-163.5 -58
t-162 58.5t-62 146.5zM70 297v10q0 288 307 328l297 37v14q0 119 -58.5 174t-187.5 55t-230 -23l-34 -7l-21 16q0 31 29 158q119 31 266 31q239 0 340 -99t101 -311v-401q0 -64 20 -92.5t66 -36.5l36 -7l11 -20l-27 -111q-37 -37 -106 -37q-155 0 -193 170h-6
q-46 -76 -123 -123t-180 -47q-138 0 -222.5 93.5t-84.5 228.5z" />
    <glyph glyph-name="ae" unicode="&#xe6;" horiz-adv-x="1552" 
d="M879 625h399v61q0 229 -178 229h-10q-88 0 -148 -63t-63 -186v-41zM274 307q0 -70 44.5 -113.5t116.5 -43.5t143 46t112 119q-16 75 -16 156h-205q-99 0 -147 -41.5t-48 -112.5v-10zM1116 -25q-269 0 -375 193h-6q-65 -91 -144 -142t-215 -51t-221 92.5t-85 229.5v10
q0 146 90.5 232t257.5 86h256v61q0 119 -58.5 174t-187.5 55t-230 -23l-34 -7l-21 16q0 31 29 158q119 31 266 31q250 0 359 -134h6q118 134 291 134h10q174 0 271.5 -107.5t97.5 -316.5v-23q0 -54 -13 -145l-4 -27h-577q0 -175 64 -248t212 -73q104 0 172.5 25.5t69.5 25.5
l22 -13l17 -139q-44 -29 -139 -51.5t-181 -22.5z" />
    <glyph glyph-name="ccedilla" unicode="&#xe7;" horiz-adv-x="796" 
d="M544 915q-68 0 -111.5 -17t-95.5 -80.5t-52 -287.5v-26q0 -209 72.5 -281.5t161.5 -72.5t167 24l25 8l18 -10q15 -62 21 -149q-106 -48 -234 -48h-6l-6 -94h41q153 0 153 -143q0 -82 -53.5 -127t-148.5 -45t-156 14l-23 4l13 97q68 -13 121 -13q104 0 104 70q0 51 -68 51
h-116l26 199q-317 60 -317 514v30q0 293 109 425.5t331 132.5q105 0 183 -24l26 -7l-18 -154l-19 -10q-80 20 -148 20z" />
    <glyph glyph-name="egrave" unicode="&#xe8;" horiz-adv-x="958" 
d="M285 614h399v72q0 229 -178 229h-10q-90 0 -150.5 -66t-60.5 -196v-39zM233 1475h183l184 -256l-14 -31h-119l-234 215v72zM522 -25q-442 0 -442 527v71q0 240 116 378.5t304 138.5h10q174 0 271.5 -107.5t97.5 -316.5v-33q0 -54 -13 -145l-4 -27h-577q0 -167 64.5 -239
t211.5 -72q104 0 172.5 25.5t69.5 25.5l22 -13l17 -139q-44 -29 -139 -51.5t-181 -22.5z" />
    <glyph glyph-name="eacute" unicode="&#xe9;" horiz-adv-x="958" 
d="M770 1475v-72l-233 -215h-119l-15 31l185 256h182zM285 614h399v72q0 229 -178 229h-10q-90 0 -150.5 -66t-60.5 -196v-39zM522 -25q-442 0 -442 527v71q0 240 116 378.5t304 138.5h10q174 0 271.5 -107.5t97.5 -316.5v-33q0 -54 -13 -145l-4 -27h-577q0 -167 64.5 -239
t211.5 -72q104 0 172.5 25.5t69.5 25.5l22 -13l17 -139q-44 -29 -139 -51.5t-181 -22.5z" />
    <glyph glyph-name="ecircumflex" unicode="&#xea;" horiz-adv-x="958" 
d="M285 614h399v72q0 229 -178 229h-10q-90 0 -150.5 -66t-60.5 -196v-39zM205 1229l211 246h172l209 -246l-15 -41h-108l-172 143l-174 -143h-107zM522 -25q-442 0 -442 527v71q0 240 116 378.5t304 138.5h10q174 0 271.5 -107.5t97.5 -316.5v-33q0 -54 -13 -145l-4 -27
h-577q0 -167 64.5 -239t211.5 -72q104 0 172.5 25.5t69.5 25.5l22 -13l17 -139q-44 -29 -139 -51.5t-181 -22.5z" />
    <glyph glyph-name="edieresis" unicode="&#xeb;" horiz-adv-x="958" 
d="M590 1306q0 46 29 75.5t71 29.5t71.5 -29.5t29.5 -74.5t-29.5 -75t-71.5 -30t-71 29t-29 75zM285 614h399v72q0 229 -178 229h-10q-90 0 -150.5 -66t-60.5 -196v-39zM225 1307q0 45 29.5 74.5t71.5 29.5t71 -29.5t29 -74.5t-29 -75t-71 -30t-71.5 30t-29.5 75zM522 -25
q-442 0 -442 527v71q0 240 116 378.5t304 138.5h10q174 0 271.5 -107.5t97.5 -316.5v-33q0 -54 -13 -145l-4 -27h-577q0 -167 64.5 -239t211.5 -72q104 0 172.5 25.5t69.5 25.5l22 -13l17 -139q-44 -29 -139 -51.5t-181 -22.5z" />
    <glyph glyph-name="igrave" unicode="&#xec;" horiz-adv-x="446" 
d="M121 0v1065h205v-1065h-205zM-45 1475h182l185 -256l-15 -31h-119l-233 215v72z" />
    <glyph glyph-name="iacute" unicode="&#xed;" horiz-adv-x="446" 
d="M504 1475v-72l-234 -215h-118l-15 31l185 256h182zM121 0v1065h205v-1065h-205z" />
    <glyph glyph-name="icircumflex" unicode="&#xee;" horiz-adv-x="446" 
d="M121 0v1065h205v-1065h-205zM-74 1229l211 246h172l209 -246l-14 -41h-109l-172 143l-174 -143h-106z" />
    <glyph glyph-name="idieresis" unicode="&#xef;" horiz-adv-x="446" 
d="M305 1303q0 45 29.5 74.5t71.5 29.5t71 -29.5t29 -74.5t-29 -75t-71 -30t-71.5 30t-29.5 75zM121 0v1065h205v-1065h-205zM-59 1302q0 46 28.5 75.5t70.5 29.5t71.5 -29.5t29.5 -74.5t-29.5 -75t-71.5 -30t-70.5 29t-28.5 75z" />
    <glyph glyph-name="eth" unicode="&#xf0;" horiz-adv-x="999" 
d="M285 438q0 -288 215 -288q107 0 161 75t54 213v164q0 137 -54.5 213t-161.5 76t-160.5 -76t-53.5 -213v-164zM80 489v62q0 255 105.5 384.5t273.5 129.5q86 0 153.5 -37.5t92.5 -89.5l8 4q-30 190 -176 311l-312 -137l-47 111l238 104q-85 40 -172 60l-64 14l23 111
q217 -15 385 -109l243 106l48 -110l-179 -78q220 -201 220 -569v-267q0 -243 -109 -378.5t-301 -135.5h-23q-191 0 -299 135t-108 379z" />
    <glyph glyph-name="ntilde" unicode="&#xf1;" horiz-adv-x="1054" 
d="M403 1335q-75 0 -129 -137l-104 33q37 133 93 190.5t133 57.5t154 -69t116 -69q65 0 122 138l103 -33q-40 -133 -92.5 -190.5t-126.5 -57.5t-149.5 68.5t-119.5 68.5zM121 0v1065h123l59 -125q163 150 346 150q135 0 213 -86t78 -230v-774h-205v739q0 176 -160 176
q-130 0 -249 -96v-819h-205z" />
    <glyph glyph-name="ograve" unicode="&#xf2;" horiz-adv-x="999" 
d="M285 438q0 -288 215 -288q107 0 161 75t54 213v189q0 137 -53.5 212.5t-161.5 75.5t-161.5 -75.5t-53.5 -212.5v-189zM231 1475h183l184 -256l-14 -31h-119l-234 215v72zM80 489v86q0 244 108 379.5t299 135.5h23q192 0 301 -136t109 -379v-86q0 -243 -109 -378.5
t-301 -135.5h-23q-191 0 -299 135t-108 379z" />
    <glyph glyph-name="oacute" unicode="&#xf3;" horiz-adv-x="999" 
d="M766 1475v-72l-234 -215h-118l-15 31l185 256h182zM285 438q0 -288 215 -288q107 0 161 75t54 213v189q0 137 -53.5 212.5t-161.5 75.5t-161.5 -75.5t-53.5 -212.5v-189zM80 489v86q0 244 108 379.5t299 135.5h23q192 0 301 -136t109 -379v-86q0 -243 -109 -378.5
t-301 -135.5h-23q-191 0 -299 135t-108 379z" />
    <glyph glyph-name="ocircumflex" unicode="&#xf4;" horiz-adv-x="999" 
d="M285 438q0 -288 215 -288q107 0 161 75t54 213v189q0 137 -53.5 212.5t-161.5 75.5t-161.5 -75.5t-53.5 -212.5v-189zM203 1229l211 246h172l209 -246l-15 -41h-108l-172 143l-174 -143h-107zM80 489v86q0 244 108 379.5t299 135.5h23q192 0 301 -136t109 -379v-86
q0 -243 -109 -378.5t-301 -135.5h-23q-191 0 -299 135t-108 379z" />
    <glyph glyph-name="otilde" unicode="&#xf5;" horiz-adv-x="999" 
d="M285 438q0 -288 215 -288q107 0 161 75t54 213v189q0 137 -53.5 212.5t-161.5 75.5t-161.5 -75.5t-53.5 -212.5v-189zM373 1331q-75 0 -129 -137l-105 33q37 133 93.5 190.5t133.5 57.5t153 -69t116 -69q66 0 123 138l102 -33q-40 -133 -92.5 -190.5t-127.5 -57.5
t-148.5 68.5t-118.5 68.5zM80 489v86q0 244 108 379.5t299 135.5h23q192 0 301 -136t109 -379v-86q0 -243 -109 -378.5t-301 -135.5h-23q-191 0 -299 135t-108 379z" />
    <glyph glyph-name="odieresis" unicode="&#xf6;" horiz-adv-x="999" 
d="M582 1308q0 46 29 75.5t71 29.5t71 -29.5t29 -74.5t-29 -75t-71 -30t-71 29t-29 75zM285 438q0 -288 215 -288q107 0 161 75t54 213v189q0 137 -53.5 212.5t-161.5 75.5t-161.5 -75.5t-53.5 -212.5v-189zM217 1308q0 46 28.5 75.5t70.5 29.5t72 -29.5t30 -74.5t-30 -75
t-72 -30t-70.5 29t-28.5 75zM80 489v86q0 244 108 379.5t299 135.5h23q192 0 301 -136t109 -379v-86q0 -243 -109 -378.5t-301 -135.5h-23q-191 0 -299 135t-108 379z" />
    <glyph glyph-name="divide" unicode="&#xf7;" 
d="M406 974q0 50 30.5 79.5t75.5 29.5t75.5 -29.5t30.5 -79.5t-30.5 -81t-75.5 -31t-75.5 31t-30.5 81zM406 256q0 50 30.5 80.5t75.5 30.5t75.5 -30.5t30.5 -80.5t-30.5 -80.5t-75.5 -30.5t-75.5 30.5t-30.5 80.5zM102 532v154h820v-154h-820z" />
    <glyph glyph-name="oslash" unicode="&#xf8;" horiz-adv-x="999" 
d="M512 150q95 0 149 75t54 213v189q0 64 -13 121h-8l-41 -82l-282 -478q46 -38 141 -38zM285 438q0 -79 14 -131h6l35 70l293 495q-53 43 -147 43t-147.5 -75.5t-53.5 -212.5v-189zM80 489v86q0 244 108 379.5t299 135.5h23q124 0 215 -60l70 117l106 -64l-84 -139
q103 -137 103 -369v-86q0 -243 -109 -378.5t-301 -135.5h-23q-122 0 -211 56l-71 -123l-105 63l84 144q-104 135 -104 374z" />
    <glyph glyph-name="ugrave" unicode="&#xf9;" horiz-adv-x="1112" 
d="M252 1475h182l184 -256l-14 -31h-119l-233 215v72zM121 342v723h205v-707q0 -208 163 -208q140 0 246 141v774h205v-786q0 -64 20 -92.5t66 -36.5l37 -7l10 -20l-26 -111q-14 -14 -44.5 -25.5t-62.5 -11.5q-154 0 -192 170h-7q-115 -170 -313 -170q-151 0 -229 96.5
t-78 270.5z" />
    <glyph glyph-name="uacute" unicode="&#xfa;" horiz-adv-x="1112" 
d="M817 1475v-72l-233 -215h-119l-14 31l184 256h182zM121 342v723h205v-707q0 -208 163 -208q140 0 246 141v774h205v-786q0 -64 20 -92.5t66 -36.5l37 -7l10 -20l-26 -111q-14 -14 -44.5 -25.5t-62.5 -11.5q-154 0 -192 170h-7q-115 -170 -313 -170q-151 0 -229 96.5
t-78 270.5z" />
    <glyph glyph-name="ucircumflex" unicode="&#xfb;" horiz-adv-x="1112" 
d="M240 1229l211 246h172l208 -246l-14 -41h-108l-172 143l-175 -143h-106zM121 342v723h205v-707q0 -208 163 -208q140 0 246 141v774h205v-786q0 -64 20 -92.5t66 -36.5l37 -7l10 -20l-26 -111q-14 -14 -44.5 -25.5t-62.5 -11.5q-154 0 -192 170h-7q-115 -170 -313 -170
q-151 0 -229 96.5t-78 270.5z" />
    <glyph glyph-name="udieresis" unicode="&#xfc;" horiz-adv-x="1112" 
d="M616 1303q0 45 29 74.5t71 29.5t71.5 -29.5t29.5 -74.5t-29.5 -75t-71.5 -30t-71 30t-29 75zM252 1302q0 46 29 75.5t71 29.5t71.5 -29.5t29.5 -74.5t-29.5 -75t-71.5 -30t-71 29t-29 75zM121 342v723h205v-707q0 -208 163 -208q140 0 246 141v774h205v-786
q0 -64 20 -92.5t66 -36.5l37 -7l10 -20l-26 -111q-14 -14 -44.5 -25.5t-62.5 -11.5q-154 0 -192 170h-7q-115 -170 -313 -170q-151 0 -229 96.5t-78 270.5z" />
    <glyph glyph-name="yacute" unicode="&#xfd;" horiz-adv-x="980" 
d="M799 1475v-72l-234 -215h-119l-14 31l184 256h183zM279 -430q-74 0 -142 24l19 140l24 20q33 -10 73 -10t67 30.5t55 116.5l35 109l-377 1065h205l219 -614q20 -60 33 -135l6 -29h16q17 101 37 164l192 614h207l-375 -1192q-53 -169 -112.5 -236t-181.5 -67z" />
    <glyph glyph-name="thorn" unicode="&#xfe;" horiz-adv-x="1040" 
d="M530 150q226 0 226 352v53q0 196 -50 278t-155 82q-50 0 -115 -20.5t-110 -50.5v-608q35 -35 97 -60.5t107 -25.5zM121 -410v1844h205v-447h4q135 103 282 103q349 0 349 -523v-75q0 -256 -100 -386.5t-256 -130.5t-275 107h-4v-492h-205z" />
    <glyph glyph-name="ydieresis" unicode="&#xff;" horiz-adv-x="980" 
d="M584 1304q0 46 29 75.5t71 29.5t71 -29.5t29 -74.5t-29 -75t-71 -30t-71 29t-29 75zM219 1304q0 46 28.5 75.5t70.5 29.5t72 -29.5t30 -74.5t-30 -75t-72 -30t-70.5 29t-28.5 75zM279 -430q-74 0 -142 24l19 140l24 20q33 -10 73 -10t67 30.5t55 116.5l35 109l-377 1065
h205l219 -614q20 -60 33 -135l6 -29h16q17 101 37 164l192 614h207l-375 -1192q-53 -169 -112.5 -236t-181.5 -67z" />
    <glyph glyph-name="OE" unicode="&#x152;" horiz-adv-x="1421" 
d="M307 623q0 -244 55 -358.5t173 -114.5h6q119 0 173 113.5t54 359.5v106q0 244 -54.5 358.5t-172.5 114.5h-6q-119 0 -173.5 -113.5t-54.5 -359.5v-106zM98 633v84q0 659 428 659h23q81 0 149 -24h664v-174h-461l-6 -7q76 -152 82 -393h323v-153h-321q-3 -289 -84 -445
l6 -6h481v-174h-684q-70 -25 -149 -25h-23q-428 0 -428 658z" />
    <glyph glyph-name="oe" unicode="&#x153;" horiz-adv-x="1593" 
d="M920 614h399v72q0 229 -178 229h-11q-90 0 -150 -66t-60 -196v-39zM285 438q0 -288 215 -288q107 0 161 75t54 213v189q0 137 -53.5 212.5t-161.5 75.5t-161.5 -75.5t-53.5 -212.5v-189zM1157 -25q-234 0 -338 154h-8q-102 -154 -301 -154h-23q-191 0 -299 135t-108 379
v86q0 244 108 379.5t299 135.5h23q204 0 307 -162h8q109 162 310 162h10q174 0 271 -107t97 -317v-33q0 -61 -12 -145l-4 -27h-577q0 -167 64.5 -239t211.5 -72q104 0 172.5 25.5t69.5 25.5l22 -13l17 -139q-44 -29 -139 -51.5t-181 -22.5z" />
    <glyph glyph-name="Ydieresis" unicode="&#x178;" horiz-adv-x="1044" 
d="M604 1581q0 45 29 75t71 30t71.5 -30t29.5 -75t-29.5 -74.5t-71.5 -29.5t-71 29.5t-29 74.5zM240 1582q0 46 29 75t71 29t71 -30t29 -75t-29 -74.5t-71 -29.5t-71 29.5t-29 75.5zM625 0h-205v440l-395 912h221l215 -492q35 -80 49 -153l6 -27h12q21 98 56 180l215 492
h221l-395 -914v-438z" />
    <glyph glyph-name="circumflex" unicode="&#x2c6;" horiz-adv-x="1705" 
d="M522 1229l211 246h172l209 -246l-14 -41h-109l-172 143l-174 -143h-106z" />
    <glyph glyph-name="tilde" unicode="&#x2dc;" horiz-adv-x="974" 
d="M360 1348q-75 0 -129 -138l-104 33q37 133 93 190.5t133 57.5t154.5 -68.5t115.5 -68.5q66 0 122 137l103 -33q-40 -133 -92.5 -190.5t-127.5 -57.5t-149 69t-119 69z" />
    <glyph glyph-name="uni2000" unicode="&#x2000;" horiz-adv-x="889" 
 />
    <glyph glyph-name="uni2001" unicode="&#x2001;" horiz-adv-x="1778" 
 />
    <glyph glyph-name="uni2002" unicode="&#x2002;" horiz-adv-x="889" 
 />
    <glyph glyph-name="uni2003" unicode="&#x2003;" horiz-adv-x="1778" 
 />
    <glyph glyph-name="uni2004" unicode="&#x2004;" horiz-adv-x="592" 
 />
    <glyph glyph-name="uni2005" unicode="&#x2005;" horiz-adv-x="444" 
 />
    <glyph glyph-name="uni2006" unicode="&#x2006;" horiz-adv-x="296" 
 />
    <glyph glyph-name="uni2007" unicode="&#x2007;" horiz-adv-x="296" 
 />
    <glyph glyph-name="uni2008" unicode="&#x2008;" horiz-adv-x="222" 
 />
    <glyph glyph-name="uni2009" unicode="&#x2009;" horiz-adv-x="355" 
 />
    <glyph glyph-name="uni200A" unicode="&#x200a;" horiz-adv-x="98" 
 />
    <glyph glyph-name="uni2010" unicode="&#x2010;" horiz-adv-x="684" 
d="M86 532v154h512v-154h-512z" />
    <glyph glyph-name="uni2011" unicode="&#x2011;" horiz-adv-x="684" 
d="M86 532v154h512v-154h-512z" />
    <glyph glyph-name="figuredash" unicode="&#x2012;" horiz-adv-x="684" 
d="M86 532v154h512v-154h-512z" />
    <glyph glyph-name="endash" unicode="&#x2013;" 
d="M102 532v154h820v-154h-820z" />
    <glyph glyph-name="emdash" unicode="&#x2014;" horiz-adv-x="1515" 
d="M92 532v154h1331v-154h-1331z" />
    <glyph glyph-name="quoteleft" unicode="&#x2018;" horiz-adv-x="425" 
d="M270 1190q70 -28 70 -132q0 -52 -36 -87t-92 -35t-91 37t-35 107t74 198l92 156h78v-31l-60 -205v-8z" />
    <glyph glyph-name="quoteright" unicode="&#x2019;" horiz-adv-x="425" 
d="M86 1312q0 52 36.5 87t91.5 35t90.5 -37t35.5 -107t-74 -198l-92 -156h-78v31l60 204v9q-70 29 -70 132z" />
    <glyph glyph-name="quotesinglbase" unicode="&#x201a;" horiz-adv-x="425" 
d="M86 120q0 52 36.5 87t91.5 35t90.5 -37t35.5 -107t-74 -198l-92 -156h-78v31l60 205v8q-70 29 -70 132z" />
    <glyph glyph-name="quotedblleft" unicode="&#x201c;" horiz-adv-x="755" 
d="M600 1190q70 -28 70 -132q0 -52 -36 -87t-92 -35t-91 37t-35 108t73 197l93 156h77v-31l-59 -205v-8zM270 1190q70 -28 70 -132q0 -52 -36 -87t-92 -35t-91 37t-35 107t74 198l92 156h78v-31l-60 -205v-8z" />
    <glyph glyph-name="quotedblright" unicode="&#x201d;" horiz-adv-x="755" 
d="M416 1312q0 52 36.5 87t91.5 35t90.5 -37t35.5 -107t-74 -198l-92 -156h-78v31l59 204v9q-69 29 -69 132zM86 1312q0 52 36.5 87t91.5 35t90.5 -37t35.5 -107t-74 -198l-92 -156h-78v31l60 204v9q-70 29 -70 132z" />
    <glyph glyph-name="quotedblbase" unicode="&#x201e;" horiz-adv-x="755" 
d="M416 120q0 52 36.5 87t91.5 35t90.5 -37t35.5 -107t-74 -198l-92 -156h-78v31l59 205v8q-69 29 -69 132zM86 120q0 52 36.5 87t91.5 35t90.5 -37t35.5 -107t-74 -198l-92 -156h-78v31l60 205v8q-70 29 -70 132z" />
    <glyph glyph-name="bullet" unicode="&#x2022;" horiz-adv-x="686" 
d="M154 674q0 82 54 136t134 54t135 -55t55 -135t-55 -134.5t-135 -54.5t-134 53.5t-54 135.5z" />
    <glyph glyph-name="ellipsis" unicode="&#x2026;" horiz-adv-x="1318" 
d="M930 112q0 58 36 94t91 36t91 -36t36 -94t-36 -95t-91 -37t-91 37t-36 95zM532 112q0 58 36 94t91 36t91 -36t36 -94t-36 -95t-91 -37t-91 37t-36 95zM135 112q0 58 36 94t91 36t91 -36t36 -94t-36 -95t-91 -37t-91 37t-36 95z" />
    <glyph glyph-name="uni202F" unicode="&#x202f;" horiz-adv-x="355" 
 />
    <glyph glyph-name="guilsinglleft" unicode="&#x2039;" horiz-adv-x="546" 
d="M74 451l231 450h148l-181 -450l181 -451h-148z" />
    <glyph glyph-name="guilsinglright" unicode="&#x203a;" horiz-adv-x="546" 
d="M94 0q100 255 180 451q-92 225 -180 450h148l231 -450l-231 -451h-148z" />
    <glyph glyph-name="uni205F" unicode="&#x205f;" horiz-adv-x="444" 
 />
    <glyph glyph-name="Euro" unicode="&#x20ac;" horiz-adv-x="1017" 
d="M197 584v123h-166l53 133h123q31 255 162 373t354 118q99 0 199 -25l32 -8l-22 -151l-21 -12q-98 22 -174 22q-139 0 -217 -74t-104 -243h473l-21 -133h-462v-123h446l-18 -133h-418q23 -159 98 -230t209 -71q73 0 157 21l27 7l21 -10q10 -68 18 -152q-1 0 -52.5 -20.5
t-169.5 -20.5q-119 0 -200 23t-186 103t-135 350h-172l53 133h113z" />
    <glyph glyph-name="trademark" unicode="&#x2122;" horiz-adv-x="1175" 
d="M508 676v676h151l119 -308q14 -37 24 -88l5 -20h12q17 73 29 108l119 308h151v-676h-123v297l4 139l-18 2l-29 -106l-110 -301h-58l-112 301l-29 106l-16 -2l4 -139v-297h-123zM41 1249v103h389v-103h-133v-573h-123v573h-133z" />
    <glyph glyph-name="uniE000" unicode="&#xe000;" horiz-adv-x="1064" 
d="M0 0v1065h1065v-1065h-1065z" />
    </font>
</defs>
</svg>
