<?xml version="1.0" standalone="no"?>
<!DOCTYPE svg PUBLIC "-//W3C//DTD SVG 1.1//EN" "http://www.w3.org/Graphics/SVG/1.1/DTD/svg11.dtd" >
<svg xmlns="http://www.w3.org/2000/svg">
<metadata>
Created by FontPrep 20130207 at Mon Oct 12 16:47:33 2015
 By Geoff Schwartz
Copyright (c) 2012 by Nikola &#38; Zoran Kostic. All rights reserved.
</metadata>
<defs>
<font id="eedc94a365ae73f68009c2c904365f6b" horiz-adv-x='1024' >
  <font-face 
    font-family="Breakers-Bold"
    font-weight="700"
    font-stretch="normal"
    units-per-em="2048"
    panose-1="2 0 0 0 0 0 0 0 0 0"
    ascent="1638"
    descent="-410"
    x-height="1065"
    cap-height="1352"
    bbox="-92 -434 1849 1790"
    underline-thickness="102"
    underline-position="-102"
    unicode-range="U+000D-FB04"
  />
<missing-glyph horiz-adv-x="748" 
d="M136 68h408v1229h-408v-1229zM68 0v1365h544v-1365h-544z" />
    <glyph glyph-name="uniFB01" unicode="fi" horiz-adv-x="1095" 
d="M31 836v229h133v76q0 205 102 290t297 85t363 -52q-11 -84 -31 -174l-6 -28l-23 -13q-150 35 -254 35t-138 -33t-34 -118v-68h564v-1065h-277v836h-287v-836h-276v836h-133z" />
    <glyph glyph-name="uniFB02" unicode="fl" horiz-adv-x="1259" 
d="M31 836v229h133v76q0 205 93.5 290t293.5 85q96 0 206.5 -20.5t172.5 -41.5l63 -20h62v-1115q0 -114 92 -114l59 6l29 -27v-174q-81 -35 -205 -35q-252 0 -252 316v966q-98 29 -188 29t-120 -33t-30 -114v-74h203v-229h-203v-836h-276v836h-133z" />
    <glyph glyph-name="uniFB03" unicode="ffi" horiz-adv-x="1710" 
d="M31 836v229h133v76q0 204 92 289.5t281 85.5q77 0 129 -10l22 -3l-20 -213l-23 -12q-49 8 -98 8q-107 0 -107 -137v-84h338v76q0 205 102 290t297 85t363 -52q-11 -84 -31 -174l-6 -28l-22 -13q-149 35 -253 35t-138.5 -33t-34.5 -118v-68h563v-1065h-277v836h-286v-836
h-277v836h-338v-836h-276v836h-133z" />
    <glyph glyph-name="uniFB04" unicode="ffl" horiz-adv-x="1873" 
d="M1669 319q0 -114 92 -114l60 6l28 -27v-174q-81 -35 -205 -35q-252 0 -251 316v966q-99 29 -189 29t-119.5 -32.5t-29.5 -114.5v-74h202v-229h-202v-836h-277v836h-338v-836h-276v836h-133v229h133v76q0 204 92 289.5t281 85.5q77 0 129 -10l22 -3l-20 -213l-23 -12
q-49 8 -98 8q-107 0 -107 -137v-84h338v76q0 205 93.5 290t293.5 85q96 0 207 -20.5t174 -41.5l62 -20h61v-1115z" />
    <glyph glyph-name=".notdef" horiz-adv-x="748" 
d="M136 68h408v1229h-408v-1229zM68 0v1365h544v-1365h-544z" />
    <glyph glyph-name="glyph1" horiz-adv-x="2048" 
 />
    <glyph glyph-name="glyph1" horiz-adv-x="2048" 
 />
    <glyph glyph-name="uni000D" unicode="&#xd;" horiz-adv-x="2048" 
 />
    <glyph glyph-name="space" unicode=" " horiz-adv-x="450" 
 />
    <glyph glyph-name="exclam" unicode="!" horiz-adv-x="565" 
d="M141 1311q0 54 27 80t94 26h41q67 0 94 -26t27 -80v-252l-72 -572h-139l-72 572v252zM123 143q0 72 45.5 118t114.5 46t114 -46t45 -118t-45 -117.5t-114 -45.5t-114.5 45.5t-45.5 117.5z" />
    <glyph glyph-name="quotedbl" unicode="&#x22;" horiz-adv-x="792" 
d="M440 1343q0 46 20.5 68.5t71.5 22.5h82q51 0 72 -23t21 -68v-81l-74 -359h-119l-74 359v81zM86 1343q0 46 20.5 68.5t71.5 22.5h82q51 0 71.5 -22.5t20.5 -68.5v-81l-73 -359h-119l-74 359v81z" />
    <glyph glyph-name="numbersign" unicode="#" horiz-adv-x="1290" 
d="M510 573h219l47 246h-219zM86 344l45 229h221l49 246h-225l45 230h223l62 303h156l-60 -303h219l60 303h157l-59 -303h225l-45 -230h-225l-49 -246h229l-45 -229h-227l-68 -344h-158l70 344h-219l-70 -344h-155l67 344h-223z" />
    <glyph glyph-name="dollar" unicode="$" horiz-adv-x="997" 
d="M451 205q114 0 161 43t47 133q0 121 -139 156l-69 16v-348zM336 950q0 -113 129 -143l88 -23v322h-10q-109 0 -158 -39t-49 -117zM936 395q0 -300 -231 -383v-217h-152v185q-77 -5 -94 -5h-8v-180h-152v189q-119 13 -182 34q-8 84 -8 182v33l28 15q76 -19 162 -31v375
q-110 36 -175 122.5t-65 221.5q0 284 240 364v216h152v-185q54 4 86 4h16v181h152v-191q40 -5 147 -29q-3 -58 -14 -177l-4 -32l-27 -16q-45 11 -102 21v-349q113 -43 172 -134.5t59 -213.5z" />
    <glyph glyph-name="percent" unicode="%" horiz-adv-x="1585" 
d="M1212 522q-82 0 -82 -135v-123q0 -135 82 -135t82 135v123q0 135 -82 135zM930 283v84q0 224 107 266.5t157 42.5h37q102 0 182 -76t80 -233v-84q0 -156 -80 -232t-182 -76h-37q-102 0 -183 75.5t-81 232.5zM375 1178q-82 0 -82 -136v-122q0 -136 82 -136t82 136v122
q0 136 -82 136zM285 -25l827 1375h205l-828 -1375h-204zM92 938v84q0 224 107 266.5t157 42.5h37q102 0 182 -76t80 -233v-84q0 -223 -106.5 -265t-155.5 -42h-37q-102 0 -183 74.5t-81 232.5z" />
    <glyph glyph-name="ampersand" unicode="&#x26;" horiz-adv-x="1275" 
d="M571 1147q-122 0 -122 -113q0 -38 16.5 -68t62.5 -87l45 -54q121 97 121 203q0 59 -33.5 89t-89.5 30zM563 205q86 0 144 49l-246 295l-23 -21q-68 -62 -71 -155q0 -168 196 -168zM172 1028q0 167 105 257.5t291 90.5t289.5 -86t103.5 -224t-56.5 -221.5t-195.5 -170.5
v-10l135 -160q9 -11 18 -28.5t10 -18.5h9q10 53 10 198h252q0 -143 -19 -233.5t-71 -169.5l211 -252h-344l-76 92h-2q-120 -117 -324 -117t-316 94.5t-112 277.5t96 253.5t140 99.5v11l-27 32q-127 152 -127 285z" />
    <glyph glyph-name="quotesingle" unicode="'" horiz-adv-x="438" 
d="M86 1343q0 46 20.5 68.5t71.5 22.5h82q51 0 71.5 -22.5t20.5 -68.5v-81l-73 -359h-119l-74 359v81z" />
    <glyph glyph-name="parenleft" unicode="(" horiz-adv-x="610" 
d="M94 581q0 123 16 230t56 237.5t104 239t97 147.5l16 19h186q-145 -241 -187 -480.5t-42 -372.5q0 -257 62 -468t106 -299l20 -39h-186q-155 202 -201.5 432.5t-46.5 353.5z" />
    <glyph glyph-name="parenright" unicode=")" horiz-adv-x="600" 
d="M506 581q0 -123 -26 -255t-81.5 -271.5t-116.5 -224.5l-26 -35h-186q22 38 106 253.5t84 519.5t-77 531t-130 315l-24 40h186q95 -111 193 -334.5t98 -538.5z" />
    <glyph glyph-name="asterisk" unicode="*" horiz-adv-x="985" 
d="M381 1444q0 42 15 57t57 15h77q44 0 58 -14.5t14 -57.5v-68l-65 -252l18 -12l219 139l66 21q40 13 58 3t32 -50l24 -74q13 -41 4 -58.5t-51 -31.5l-63 -21l-260 -14l-9 -25l201 -163l41 -56q25 -34 21.5 -54.5t-37.5 -45.5l-64 -45q-36 -25 -53.5 -22t-44.5 38l-41 54
l-94 241h-23l-96 -241l-41 -54q-26 -34 -46 -37.5t-52 21.5l-64 45q-36 26 -38.5 46.5t22.5 53.5l41 56l199 163l-7 23l-260 16l-63 21q-41 13 -50.5 32.5t3.5 57.5l24 74q13 42 31.5 51.5t58.5 -4.5l66 -21l217 -141l18 14l-63 252v68z" />
    <glyph glyph-name="plus" unicode="+" 
d="M61 512v199h351v354h198v-354h353v-199h-353v-348h-198v348h-351z" />
    <glyph glyph-name="comma" unicode="," horiz-adv-x="499" 
d="M90 153q0 62 45 108t115 46t115 -46t45 -131t-91 -224l-118 -178h-95v36l72 220v8q-88 41 -88 161z" />
    <glyph glyph-name="hyphen" unicode="-" horiz-adv-x="684" 
d="M86 512v199h512v-199h-512z" />
    <glyph glyph-name="period" unicode="." horiz-adv-x="499" 
d="M90 143q0 72 45.5 118t114.5 46t114.5 -46t45.5 -118t-45.5 -117.5t-114.5 -45.5t-114.5 45.5t-45.5 117.5z" />
    <glyph glyph-name="slash" unicode="/" horiz-adv-x="1067" 
d="M41 -205l766 1721h219l-766 -1721h-219z" />
    <glyph glyph-name="zero" unicode="0" horiz-adv-x="1105" 
d="M371 506q0 -301 182 -301t182 301v338q0 301 -182 301t-182 -301v-338zM92 592v166q0 457 175 537.5t272 80.5h26q198 0 323.5 -152t125.5 -466v-166q0 -456 -175.5 -536.5t-273.5 -80.5h-26q-201 0 -324 155t-123 462z" />
    <glyph glyph-name="one" unicode="1" horiz-adv-x="628" 
d="M41 1001v127l297 224h164v-1352h-277v1001h-184z" />
    <glyph glyph-name="two" unicode="2" horiz-adv-x="978" 
d="M68 0v164q0 125 37.5 201t144.5 163l242 197q74 61 106.5 112t32.5 115v11q0 79 -54.5 130.5t-167.5 51.5t-233 -43l-39 -15l-26 13q-15 102 -21 190q0 3 44.5 23t136 41.5t186.5 21.5q217 0 333.5 -109.5t116.5 -289.5v-19q0 -190 -94.5 -292.5t-214.5 -192.5l-152 -123
q-50 -40 -63.5 -60.5t-13.5 -51.5v-9h518v-229h-819z" />
    <glyph glyph-name="three" unicode="3" horiz-adv-x="929" 
d="M817 1008q0 -181 -141 -273v-6q81 -44 131.5 -126t50.5 -193v-19q0 -187 -123.5 -301.5t-343.5 -114.5q-89 0 -173.5 17t-125.5 32.5t-41 18.5q7 92 17 160l4 28l26 15q134 -41 248 -41t175 57t61 146v10q0 176 -230 176h-170v201h197q75 0 124.5 49t49.5 127v10
q0 74 -51 120t-150 46t-198 -35l-35 -12l-29 12q-14 100 -20 188q0 3 40 20.5t123.5 36.5t179.5 19q200 0 302 -102t102 -248v-18z" />
    <glyph glyph-name="four" unicode="4" horiz-adv-x="997" 
d="M45 211v227l361 914h286l-358 -912h233l72 379h205v-379h133v-229h-133v-211h-277v211h-522z" />
    <glyph glyph-name="five" unicode="5" horiz-adv-x="966" 
d="M400 205q202 0 202 223v29q0 182 -172 182q-79 0 -144 -40l-20 -13l-166 39l41 727h656v-230h-394l-16 -293h4q72 35 154 35q162 0 248 -95.5t86 -276.5v-68q0 -221 -107 -335t-317 -114q-90 0 -179.5 18t-134.5 34.5t-45 19.5l23 191l24 12q153 -45 257 -45z" />
    <glyph glyph-name="six" unicode="6" horiz-adv-x="1064" 
d="M696 469q0 178 -162 178q-80 0 -165 -53v-72q0 -256 64 -286.5t104 -30.5q74 0 116.5 53t42.5 148v63zM537 -25q-445 0 -445 588v133q0 353 134 516.5t403 163.5q119 0 212 -30l31 -9l-22 -209l-23 -12q-84 31 -170 31q-149 0 -215.5 -80t-72.5 -276h4q121 86 274 86
t239.5 -105.5t86.5 -279.5v-66q0 -211 -107.5 -331t-328.5 -120z" />
    <glyph glyph-name="seven" unicode="7" horiz-adv-x="911" 
d="M45 1122v230h840v-232l-471 -1120h-301l483 1104v18h-551z" />
    <glyph glyph-name="eight" unicode="8" horiz-adv-x="1085" 
d="M371 1008q0 -62 38.5 -98.5t122.5 -75.5l62 -27q119 99 119 197q0 67 -42.5 105t-126.5 38t-128.5 -38.5t-44.5 -100.5zM362 362q0 -73 47 -115t133 -42t133.5 40.5t47.5 108.5t-35.5 109t-134.5 82l-64 26q-127 -75 -127 -209zM86 342q0 225 186 322v16
q-163 119 -163 309t118.5 288.5t314.5 98.5t314.5 -94.5t118.5 -267.5q0 -203 -182 -289v-12q206 -129 206 -333t-120 -304.5t-328 -100.5t-336.5 88t-128.5 279z" />
    <glyph glyph-name="nine" unicode="9" horiz-adv-x="1064" 
d="M369 891q1 -186 167 -186q86 0 160 45v77q0 173 -40.5 246.5t-119.5 73.5t-123 -56.5t-44 -154.5v-45zM92 862v64q0 210 120 330t327 120t320.5 -142t113.5 -400v-179q0 -354 -133 -517t-406 -163q-120 0 -210 29l-31 10q14 192 22 207l23 12q92 -28 176 -28
q142 0 209 79.5t71 272.5q-114 -82 -266 -82t-244 105t-92 282z" />
    <glyph glyph-name="colon" unicode=":" horiz-adv-x="499" 
d="M90 860q0 72 46 118t115 46t114 -46t45 -118t-46 -118t-114 -46t-114 46t-46 118zM90 144q0 72 46 117.5t115 45.5t114 -45.5t45 -117.5t-46 -118t-114 -46t-114 46t-46 118z" />
    <glyph glyph-name="semicolon" unicode=";" horiz-adv-x="499" 
d="M90 860q0 72 46 118t115 46t114 -46t45 -118t-46 -118t-114 -46t-114 46t-46 118zM90 153q0 62 45 108t115 46t115 -46t45 -131t-91 -224l-118 -178h-95v36l72 220v8q-88 41 -88 161z" />
    <glyph glyph-name="less" unicode="&#x3c;" 
d="M893 1090v-197l-487 -299v-2q166 -107 487 -299v-195h-62l-700 420v148l700 424h62z" />
    <glyph glyph-name="equal" unicode="=" 
d="M102 686v199h820v-199h-820zM102 303v199h820v-199h-820z" />
    <glyph glyph-name="greater" unicode="&#x3e;" 
d="M131 1090h62l700 -422v-146l-700 -424h-62v197l490 301v4q-379 226 -490 295v195z" />
    <glyph glyph-name="question" unicode="?" horiz-adv-x="872" 
d="M195 143q0 72 45 118t114 46t114.5 -46t45.5 -118t-45.5 -117.5t-114.5 -45.5t-114 45.5t-45 117.5zM408 1376q204 0 303.5 -95t99.5 -255v-18q0 -113 -49 -192t-166 -152q-69 -44 -85.5 -76.5t-16.5 -95.5v-56h-277v137q0 99 33.5 149t129.5 109t125.5 94t29.5 83v10
q0 58 -48 93.5t-136 35.5t-181 -31l-29 -10l-26 12q-15 95 -23 193q0 3 37 17.5t115.5 31t163.5 16.5z" />
    <glyph glyph-name="at" unicode="@" horiz-adv-x="1720" 
d="M676 468q0 -136 88 -136q101 0 182 149l76 375q-69 33 -123 33q-88 0 -135.5 -65t-67.5 -178q-20 -112 -20 -178zM862 -246h-22q-373 0 -576 202t-203 566v125q0 241 93 423.5t273.5 285t426.5 102.5h43q372 0 567 -167t195 -476v-80q0 -148 -38.5 -264.5t-137 -224
t-287.5 -107.5t-235 158h-9q-36 -71 -101 -114.5t-144 -43.5q-119 0 -191 83.5t-72 249.5t49.5 308t146 226t225.5 84t231 -95l61 70h141l-124 -633q-12 -67 4.5 -100t68.5 -33q105 0 181.5 112.5t76.5 323.5v80q0 234 -156.5 362t-451.5 128h-43q-294 0 -466.5 -182
t-172.5 -476v-125q0 -291 164 -452.5t461 -161.5h22q240 0 494 45l16 -129q-248 -70 -510 -70z" />
    <glyph glyph-name="A" unicode="A" horiz-adv-x="1069" 
d="M412 492h243l-71 327q-12 56 -36 206l-7 50h-15q-23 -174 -41 -256zM23 0l315 1352h393l316 -1352h-283l-59 262h-343l-57 -262h-282z" />
    <glyph glyph-name="B" unicode="B" horiz-adv-x="1042" 
d="M393 778h150q116 0 116 144v45q0 84 -38.5 126t-122.5 42h-105v-357zM393 217h176q131 0 131 152v57q0 152 -157 152h-150v-361zM117 0v1352h413q202 0 304 -92.5t102 -268.5v-16q0 -107 -34 -175.5t-122 -101.5v-8q115 -32 156 -116.5t41 -196.5v-17q0 -143 -78 -251.5
t-266 -108.5h-516z" />
    <glyph glyph-name="C" unicode="C" horiz-adv-x="886" 
d="M88 614v72q0 690 528 690q102 0 174 -21l25 -7l-24 -203l-23 -12q-65 14 -131 14q-142 0 -206 -109.5t-64 -355.5v-43q0 -232 66 -333t206 -101q61 0 133 18l23 6l22 -12q17 -101 25 -201q-103 -41 -220 -41t-236.5 29t-208.5 175t-89 435z" />
    <glyph glyph-name="D" unicode="D" horiz-adv-x="1085" 
d="M393 229h135q95 0 144 59.5t49 213.5v309q0 186 -60 248.5t-180 62.5h-88v-893zM117 0v1352h413q222 0 344.5 -130.5t122.5 -402.5v-352q0 -229 -104.5 -348t-300.5 -119h-475z" />
    <glyph glyph-name="E" unicode="E" horiz-adv-x="831" 
d="M117 0v1352h655v-230h-379v-323h318v-201h-318v-369h400v-229h-676z" />
    <glyph glyph-name="F" unicode="F" horiz-adv-x="811" 
d="M117 0v1352h655v-230h-379v-338h318v-217h-318v-567h-276z" />
    <glyph glyph-name="G" unicode="G" horiz-adv-x="1032" 
d="M88 625v71q0 384 138 532t370 148q160 0 282 -30l42 -9q-6 -81 -18 -175l-5 -32l-23 -10q-132 27 -226 27t-185.5 -60.5t-91.5 -404.5v-64q0 -254 39 -317.5t72.5 -79.5t87.5 -16t112 39v493h276v-737h-149l-37 80q-125 -105 -260 -105q-312 0 -368 234t-56 416z" />
    <glyph glyph-name="H" unicode="H" horiz-adv-x="1134" 
d="M117 0v1352h276v-559h348v559h277v-1352h-277v563h-348v-563h-276z" />
    <glyph glyph-name="I" unicode="I" horiz-adv-x="509" 
d="M117 0v1352h276v-1352h-276z" />
    <glyph glyph-name="J" unicode="J" horiz-adv-x="692" 
d="M166 205q77 0 105 53.5t28 194.5v899h276v-942q0 -241 -82.5 -338t-265.5 -97q-92 0 -169 17l-27 6l16 197l25 18q51 -8 94 -8z" />
    <glyph glyph-name="K" unicode="K" horiz-adv-x="1052" 
d="M117 0v1352h276v-559h58l274 559h295l-324 -666l336 -686h-307l-276 563h-56v-563h-276z" />
    <glyph glyph-name="L" unicode="L" horiz-adv-x="784" 
d="M117 0v1352h276v-1123h359v-229h-635z" />
    <glyph glyph-name="M" unicode="M" horiz-adv-x="1441" 
d="M117 0v1352h352l213 -635l33 -125h12q19 82 33 125l213 635h352v-1352h-276v565l8 305l-17 2q-43 -165 -53 -196l-211 -635h-110l-211 635q-16 48 -43 159l-9 37l-18 -2q8 -180 8 -305v-565h-276z" />
    <glyph glyph-name="N" unicode="N" horiz-adv-x="1210" 
d="M117 0v1352h307l352 -752q15 -33 34 -101l7 -22l10 2l-10 172v701h277v-1352h-308l-352 752q-15 33 -35 100l-6 20l-12 -2l12 -170v-700h-276z" />
    <glyph glyph-name="O" unicode="O" horiz-adv-x="1077" 
d="M369 596q0 -213 39 -302t131 -89t131 89t39 302v158q0 214 -39 303.5t-131 89.5t-131 -89.5t-39 -303.5v-158zM88 633v84q0 334 104 496.5t334 162.5h25q232 0 335 -162.5t103 -496.5v-84q0 -334 -103 -496t-335 -162h-25q-230 0 -334 162t-104 496z" />
    <glyph glyph-name="P" unicode="P" horiz-adv-x="1009" 
d="M676 901q0 221 -193 221h-90v-487h111q172 0 172 188v78zM117 0v1352h411q213 0 318.5 -108t105.5 -333v-86q0 -196 -97.5 -293.5t-274.5 -97.5h-187v-434h-276z" />
    <glyph glyph-name="Q" unicode="Q" horiz-adv-x="1077" 
d="M369 596q0 -213 39 -302t131 -89t131 89t39 302v158q0 214 -39 303.5t-131 89.5t-131 -89.5t-39 -303.5v-158zM88 633v84q0 334 104 496.5t334 162.5h25q232 0 335 -162.5t103 -496.5v-84q0 -404 -149 -553l98 -186l-201 -99l-94 189q-43 -9 -92 -9h-25q-230 0 -334 162
t-104 496z" />
    <glyph glyph-name="R" unicode="R" horiz-adv-x="1058" 
d="M393 733h115q101 0 146.5 39.5t45.5 130.5v21q0 109 -48.5 153.5t-166.5 44.5h-92v-389zM117 0v1352h411q231 0 340 -106t109 -302v-33q0 -247 -201 -333v-7q42 -26 72 -110l172 -461h-293l-178 477q-11 30 -27 42.5t-45 12.5h-84v-532h-276z" />
    <glyph glyph-name="S" unicode="S" horiz-adv-x="954" 
d="M551 1147q-205 0 -205 -170q0 -107 107 -148l153 -57q142 -53 210.5 -141.5t68.5 -224.5q0 -210 -109.5 -320.5t-357.5 -110.5q-158 0 -301 33q-8 84 -8 182v33l28 15q129 -33 251 -33t171 47.5t49 121.5t-30 110.5t-99 62.5l-160 59q-249 92 -249 357q0 413 467 413
q118 0 187 -12.5t69 -13.5q-5 -93 -15 -177l-4 -32l-26 -17q-101 23 -197 23z" />
    <glyph glyph-name="T" unicode="T" horiz-adv-x="808" 
d="M25 1122v230h759v-230h-241v-1122h-277v1122h-241z" />
    <glyph glyph-name="U" unicode="U" horiz-adv-x="1105" 
d="M113 479v873h276v-922q0 -225 164 -225t164 225v922h276v-873q0 -504 -424 -504h-34q-422 0 -422 504z" />
    <glyph glyph-name="V" unicode="V" horiz-adv-x="1069" 
d="M23 1352h282l176 -811l39 -244h29q25 181 39 244l176 811h283l-306 -1352h-413z" />
    <glyph glyph-name="W" unicode="W" horiz-adv-x="1445" 
d="M23 1352h278l109 -631l24 -213h27q16 135 26 178l152 625h168l151 -625q12 -59 22 -143l5 -35h27q14 150 24 213l109 631h278l-239 -1352h-295l-131 543q-6 22 -19 137l-4 37h-24q-15 -143 -23 -174l-131 -543h-295z" />
    <glyph glyph-name="X" unicode="X" horiz-adv-x="1052" 
d="M23 0l278 692l-264 660h295l153 -385q12 -33 31 -115l4 -23h12q15 85 35 138l154 385h295l-264 -660l278 -692h-297l-168 420q-15 39 -28 103l-5 24h-12q-19 -92 -33 -127l-168 -420h-296z" />
    <glyph glyph-name="Y" unicode="Y" horiz-adv-x="1083" 
d="M680 0h-277v414l-380 938h299l159 -414q22 -54 44 -172l7 -37h19q24 141 51 209l160 414h299l-381 -938v-414z" />
    <glyph glyph-name="Z" unicode="Z" horiz-adv-x="888" 
d="M66 0v121l401 917q11 29 45 76v8h-412v230h723v-123l-397 -918q-12 -28 -45 -71v-11h442v-229h-757z" />
    <glyph glyph-name="bracketleft" unicode="[" horiz-adv-x="610" 
d="M139 -246v1700h441v-154h-195v-1392h195v-154h-441z" />
    <glyph glyph-name="backslash" unicode="\" horiz-adv-x="1067" 
d="M41 1516h219l766 -1721h-219z" />
    <glyph glyph-name="bracketright" unicode="]" horiz-adv-x="600" 
d="M31 -92h194v1392h-194v154h440v-1700h-440v154z" />
    <glyph glyph-name="asciicircum" unicode="^" horiz-adv-x="1013" 
d="M63 573l361 758h164l360 -758h-219l-217 453h-14l-215 -453h-220z" />
    <glyph glyph-name="underscore" unicode="_" 
d="M0 -143h1024v-93h-1024v93z" />
    <glyph glyph-name="grave" unicode="`" horiz-adv-x="593" 
d="M104 1475h240l170 -252l-18 -35h-156l-236 198v89z" />
    <glyph glyph-name="a" unicode="a" horiz-adv-x="1034" 
d="M328 322q0 -55 33.5 -90t89.5 -35q83 0 157 90v225l-157 -33q-123 -24 -123 -133v-24zM51 285v32q0 280 289 318l268 35v10q0 94 -51 137t-166 43t-211 -18l-33 -6l-24 18q0 14 15 97t24 114q115 25 252 25q254 0 362.5 -99t108.5 -311v-371q0 -49 16 -71.5t55 -28.5
l41 -6l13 -27l-35 -147q-54 -54 -161 -54q-58 0 -110 38t-75 108h-8q-102 -146 -277 -146q-133 0 -213 89t-80 221z" />
    <glyph glyph-name="b" unicode="b" horiz-adv-x="1028" 
d="M514 197q91 0 136.5 75t45.5 242v37q0 173 -35 241t-113 68t-179 -45v-571q82 -47 145 -47zM92 0v1434h277v-439h2q122 95 262 95q340 0 340 -531v-67q0 -257 -98.5 -387t-260.5 -130t-286 131h-4l-68 -106h-164z" />
    <glyph glyph-name="c" unicode="c" horiz-adv-x="774" 
d="M739 23q-106 -48 -228 -48t-202.5 27t-167 117t-86.5 383v30q0 300 111.5 429t339.5 129q109 0 187 -24l26 -7l-25 -205l-20 -12q-78 18 -130 18t-99 -13t-80 -88t-33 -231v-24q0 -183 56 -241t134 -58q77 0 170 31l21 -13q13 -26 26 -200z" />
    <glyph glyph-name="d" unicode="d" horiz-adv-x="1085" 
d="M332 512q0 -315 164 -315q80 0 163 75v549q-83 37 -145 37q-91 0 -136.5 -69.5t-45.5 -237.5v-39zM55 485v74q0 531 400 531q94 0 204 -54v398h277v-1125q0 -46 16 -70t56 -30l41 -6l12 -27l-35 -147q-17 -20 -58.5 -37t-97.5 -17t-108.5 38t-75.5 96h-14
q-101 -134 -263 -134t-258 125t-96 385z" />
    <glyph glyph-name="e" unicode="e" horiz-adv-x="931" 
d="M332 618h282v74q0 109 -30 153t-95 44h-4q-63 0 -108 -48t-45 -149v-74zM504 -25q-224 0 -336.5 129t-112.5 398v71q0 241 116.5 379t307.5 138h23q181 0 278 -108.5t97 -319.5v-35q0 -69 -14 -147l-5 -29h-526q0 -130 49 -188t163 -58t249 45l26 -12l21 -189
q-2 -5 -40.5 -21t-122 -34.5t-173.5 -18.5z" />
    <glyph glyph-name="f" unicode="f" horiz-adv-x="718" 
d="M31 836v229h133v76q0 204 92 289.5t281 85.5q84 0 144 -10l24 -3l-21 -213l-22 -12q-56 8 -109 8q-113 0 -113 -137v-84h244v-229h-244v-836h-276v836h-133z" />
    <glyph glyph-name="g" unicode="g" horiz-adv-x="1058" 
d="M328 711q0 -164 143 -164q69 0 106 38.5t37 110.5v43q0 158 -143 158t-143 -158v-28zM322 -138q0 -124 194 -124t195 125v12q0 52 -35.5 82.5t-102.5 30.5h-219q-32 -62 -32 -126zM45 -172q0 59 34.5 112.5t92.5 84.5v6q-84 55 -84 159t107 234q-144 93 -144 295
q0 163 109.5 267t294.5 104h30q194 0 308 -117q78 92 190 92h41v-215l-27 -19q-23 5 -61 5t-62 -17q17 -55 17 -125t-31.5 -141.5t-115 -135t-259.5 -63.5h-30q-54 0 -111 13q-25 -47 -25 -83t23 -55.5t59 -19.5h232q169 0 261.5 -84t92.5 -207v-39q0 -159 -125.5 -236
t-308.5 -77h-102q-194 0 -300 68t-106 178v16z" />
    <glyph glyph-name="h" unicode="h" horiz-adv-x="1040" 
d="M92 0v1434h277v-459h4q133 115 278 115t223 -84t78 -224v-782h-276v737q0 123 -121 123q-102 0 -186 -65v-795h-277z" />
    <glyph glyph-name="i" unicode="i" horiz-adv-x="460" 
d="M92 0v1065h277v-1065h-277zM68 1319q0 69 44 106t117 37t117.5 -37t44.5 -106t-44.5 -106t-117.5 -37t-117 37t-44 106z" />
    <glyph glyph-name="j" unicode="j" horiz-adv-x="475" 
d="M82 1319q0 69 44.5 106t117.5 37t117.5 -37t44.5 -106t-44.5 -106t-117.5 -37t-117.5 37t-44.5 106zM25 -205q81 0 81 121v1149h277v-1174q0 -166 -63.5 -245.5t-206.5 -79.5q-103 0 -179 28l-26 9l20 176l29 26q32 -10 68 -10z" />
    <glyph glyph-name="k" unicode="k" horiz-adv-x="985" 
d="M92 0v1434h277v-799h47l239 430h293l-284 -516l305 -549h-314l-241 434h-45v-434h-277z" />
    <glyph glyph-name="l" unicode="l" horiz-adv-x="573" 
d="M92 291v1143h277v-1115q0 -114 92 -114l59 6l29 -27v-174q-81 -35 -205 -35q-252 0 -252 316z" />
    <glyph glyph-name="m" unicode="m" horiz-adv-x="1552" 
d="M1188 748q0 112 -126 112q-67 0 -149 -61l2 -115v-684h-276v748q0 112 -111 112q-82 0 -159 -59v-801h-277v1065h164q38 -61 78 -123q66 68 137 108t161 40q180 0 251 -146q65 67 136 106.5t183 39.5t187 -80.5t75 -216.5v-793h-276v748z" />
    <glyph glyph-name="n" unicode="n" horiz-adv-x="1040" 
d="M92 0v1065h164l80 -123q152 148 330 148q132 0 209 -84.5t77 -223.5v-782h-276v737q0 123 -121 123q-102 0 -186 -65v-795h-277z" />
    <glyph glyph-name="o" unicode="o" horiz-adv-x="970" 
d="M445.5 868q-113.5 0 -113.5 -206v-256q0 -103 39.5 -156t113.5 -53t114 53t40 156v256q0 102 -40 154t-153.5 52zM55 489v86q0 242 112 378.5t304 136.5h29q192 0 303.5 -136t111.5 -379v-86q0 -242 -111.5 -378t-303.5 -136h-29q-192 0 -304 136t-112 378z" />
    <glyph glyph-name="p" unicode="p" horiz-adv-x="1028" 
d="M537 860q-82 0 -168 -43v-571q12 -12 60 -30.5t87 -18.5q91 0 135.5 74.5t44.5 242.5v37q0 171 -38.5 240t-120.5 69zM625 1090q348 0 348 -531v-67q0 -259 -94.5 -388t-246.5 -129t-259 93h-4v-478h-277v1475h164l70 -109q139 134 299 134z" />
    <glyph glyph-name="q" unicode="q" horiz-adv-x="1028" 
d="M332 506q0 -250 64 -279.5t106 -29.5q76 0 157 77v545q-4 1 -50 21t-101 20q-89 0 -132.5 -74.5t-43.5 -244.5v-35zM55 481v68q0 408 153 474.5t238 66.5q144 0 271 -113l55 88h164v-1475h-277v494h-4q-103 -109 -257 -109t-248.5 123t-94.5 383z" />
    <glyph glyph-name="r" unicode="r" horiz-adv-x="671" 
d="M92 0v1065h164l74 -121h2q43 69 102.5 107.5t157.5 38.5l49 -5l-18 -245l-35 -19q-29 6 -64 6q-105 0 -155 -71v-756h-277z" />
    <glyph glyph-name="s" unicode="s" horiz-adv-x="886" 
d="M498 860q-174 0 -174 -106q0 -73 86 -90l135 -27q153 -30 222 -105t69 -200q0 -178 -103.5 -267.5t-335.5 -89.5q-164 0 -255 20l-33 7q-15 81 -21 178l-2 35l27 16q139 -26 253 -26t156.5 28.5t42.5 77.5t-24.5 74t-85.5 35l-146 26q-253 48 -256 281q-6 363 445 363
q99 0 171 -13t72 -14q-7 -105 -17 -179l-3 -30l-27 -14q-114 20 -196 20z" />
    <glyph glyph-name="t" unicode="t" horiz-adv-x="708" 
d="M548 205q64 0 103 10l23 -10v-199q-80 -31 -182 -31q-197 0 -266.5 96t-69.5 275v490h-131v229h131l75 246h201v-246h242v-229h-242v-486q0 -78 26 -111.5t90 -33.5z" />
    <glyph glyph-name="u" unicode="u" horiz-adv-x="1101" 
d="M92 338v727h277v-707q0 -153 133 -153q96 0 174 86v774h276v-756q0 -47 16.5 -70.5t55.5 -29.5l41 -6l12 -27l-35 -147q-17 -20 -59 -37t-86 -17q-152 0 -201 146h-10q-110 -146 -287 -146q-147 0 -227 92.5t-80 270.5z" />
    <glyph glyph-name="v" unicode="v" horiz-adv-x="987" 
d="M20 1065h279l145 -549l37 -240h25l37 240l145 549h279l-297 -1065h-353z" />
    <glyph glyph-name="w" unicode="w" horiz-adv-x="1458" 
d="M1438 1065l-221 -1065h-353l-108 481l-17 121h-20l-17 -121l-108 -481h-352q-36 177 -111 532.5t-111 532.5h273l110 -553l29 -205h23l30 205l125 553h238l125 -553l31 -205h22l29 205l110 553h273z" />
    <glyph glyph-name="x" unicode="x" horiz-adv-x="962" 
d="M20 0l244 535l-231 530h291l127 -313l22 -97h16l23 97l127 313h291q-156 -352 -232 -528q135 -301 244 -537h-295l-137 319l-21 91h-16l-20 -91l-138 -319h-295z" />
    <glyph glyph-name="y" unicode="y" horiz-adv-x="1019" 
d="M264 -201q35 0 54.5 22t39.5 85l31 94l-369 1065h283l180 -549q6 -18 19 -112l4 -29h20q15 106 25 141l168 549h280l-376 -1206q-48 -155 -110 -224t-170 -69q-109 0 -186 28l-22 9l25 182l30 27q39 -13 74 -13z" />
    <glyph glyph-name="z" unicode="z" horiz-adv-x="858" 
d="M47 0v162l363 604l49 63l-4 11l-74 -4h-324v229h754v-123l-393 -659l-45 -54l4 -8l76 8h358v-229h-764z" />
    <glyph glyph-name="braceleft" unicode="{" horiz-adv-x="618" 
d="M485 1300q-100 0 -100 -109q0 -51 26.5 -177t26.5 -210q0 -165 -188 -196v-10q188 -28 188 -209q0 -69 -26.5 -195.5t-26.5 -166.5q0 -119 100 -119l93 4v-148q-81 -10 -132 -10q-307 0 -307 295q0 90 35 213.5t35 165.5t-30.5 70t-74.5 28h-49v154h49q45 0 75 29t30 71
t-35 161t-35 218q0 295 307 295q54 0 110 -8l22 -2v-148z" />
    <glyph glyph-name="bar" unicode="|" horiz-adv-x="485" 
d="M143 -205v1721h199v-1721h-199z" />
    <glyph glyph-name="braceright" unicode="}" horiz-adv-x="618" 
d="M172 1454q307 0 307 -295q0 -96 -34.5 -216.5t-34.5 -162.5t29.5 -71t74.5 -29h49v-154h-49q-44 0 -74 -28t-30 -70t34.5 -165.5t34.5 -213.5q0 -295 -307 -295q-51 0 -110 8l-21 2v148l92 -4q100 0 100 119q0 40 -26.5 166.5t-26.5 195.5q0 181 189 209v10
q-189 31 -189 211q0 69 26.5 195t26.5 177q0 109 -100 109l-92 -4v148q80 10 131 10z" />
    <glyph glyph-name="asciitilde" unicode="~" horiz-adv-x="1245" 
d="M59 379q0 193 81.5 311.5t232.5 118.5q110 0 195.5 -60.5t161.5 -125t138 -64.5q63 0 98 59t35 170h185q0 -197 -75.5 -313.5t-227.5 -116.5q-120 0 -200.5 62.5t-155 125t-141.5 62.5q-68 0 -105 -59t-37 -170h-185z" />
    <glyph glyph-name="uni00A0" unicode="&#xa0;" horiz-adv-x="450" 
 />
    <glyph glyph-name="exclamdown" unicode="&#xa1;" horiz-adv-x="565" 
d="M424 -307q0 -54 -27 -80.5t-94 -26.5h-41q-67 0 -94 26.5t-27 80.5v252l72 571h139l72 -571v-252zM123 860q0 72 45.5 118t114.5 46t114 -46t45 -118t-45 -118t-114 -46t-114.5 46t-45.5 118z" />
    <glyph glyph-name="cent" unicode="&#xa2;" horiz-adv-x="800" 
d="M66 641v29q0 377 294 444v238h199v-224q84 -6 149 -22l21 -6l-24 -207l-21 -12q-78 18 -160 18t-132 -54.5t-50 -176.5v-23q0 -215 203 -215q61 0 133 24l24 7l21 -10q12 -12 27 -207q-82 -35 -191 -43v-221h-199v233q-294 65 -294 428z" />
    <glyph glyph-name="sterling" unicode="&#xa3;" horiz-adv-x="905" 
d="M45 0v195q173 150 188 327h-167v168h135q-12 22 -57.5 88t-68 119t-22.5 123t35.5 133t129 120.5t288.5 57.5q129 0 213 -19.5t84 -21.5l-25 -205l-24 -14q-100 31 -204 31t-162 -38.5t-58 -111.5q0 -41 23 -82t62 -93t58 -87h268v-168h-233q-6 -80 -46.5 -152.5
t-94.5 -121.5v-19h497v-229h-819z" />
    <glyph glyph-name="currency" unicode="&#xa4;" horiz-adv-x="1247" 
d="M346 654q0 -114 82 -194.5t196 -80.5t194.5 80.5t80.5 194.5t-80.5 196t-194.5 82t-196 -82t-82 -196zM622 1130q142 0 261 -77q80 84 164 164l139 -140q-84 -80 -164 -164q78 -123 78 -259t-78 -259l164 -164l-139 -139l-164 164q-121 -78 -261 -78t-257 78l-164 -164
l-140 139l164 164q-78 113 -78 259t78 261l-164 162l140 140l164 -164q115 77 257 77z" />
    <glyph glyph-name="yen" unicode="&#xa5;" horiz-adv-x="1071" 
d="M997 680v-168h-284l-39 -98v-41h323v-168h-323v-205h-277v205h-323v168h323v41l-41 98h-282v168h215l-264 651h299l151 -393q13 -34 43 -162l8 -37h19q26 136 51 199l152 393h299l-265 -651h215z" />
    <glyph glyph-name="brokenbar" unicode="&#xa6;" horiz-adv-x="485" 
d="M143 778v778h199v-778h-199zM143 -205v778h199v-778h-199z" />
    <glyph glyph-name="section" unicode="&#xa7;" horiz-adv-x="917" 
d="M326 633q0 -83 100 -115l76 -24q92 26 92 110q0 43 -27 71t-90 48l-53 16q-98 -23 -98 -106zM78 636q0 138 115 220v4q-66 86 -66 193q0 156 99 239.5t296 83.5q112 0 190 -18l27 -6l-18 -189l-25 -12q-85 20 -162 20t-119 -28.5t-42 -75.5t22 -68.5t64 -35.5l139 -45
q242 -78 242 -306q0 -159 -113 -241v-4q64 -83 64 -217t-101.5 -215.5t-290.5 -81.5q-90 0 -161 12t-74 14l4 189l25 14q97 -25 183 -25t128.5 30t42.5 83q0 82 -94 109l-144 43q-112 34 -171.5 105t-59.5 209z" />
    <glyph glyph-name="dieresis" unicode="&#xa8;" horiz-adv-x="856" 
d="M498 1330q0 54 35 89t87 35t86.5 -35.5t34.5 -88.5t-34.5 -88.5t-86.5 -35.5t-87 35t-35 89zM113 1330q0 54 35.5 89t87.5 35t86 -35.5t34 -88.5t-34.5 -88.5t-86.5 -35.5t-87 35t-35 89z" />
    <glyph glyph-name="copyright" unicode="&#xa9;" horiz-adv-x="1462" 
d="M779 496q62 0 124 22l15 -6q12 -72 16 -129q-76 -35 -174 -35q-297 0 -297 316v43q0 337 305 337q56 0 141 -18l-10 -135l-14 -6q-51 10 -109 10q-128 0 -129 -190v-27q0 -102 35 -142t97 -40zM250 696q0 -199 141.5 -340t339.5 -141q131 0 241.5 64.5t175 175
t64.5 241.5q0 198 -141 340t-340 142q-130 0 -241 -65t-175.5 -176t-64.5 -241zM96 696q0 129 50.5 246.5t135.5 202.5t202.5 135.5t246.5 50.5t246.5 -50.5t202.5 -135.5t135.5 -202.5t50.5 -246.5t-50.5 -246.5t-135.5 -202.5t-202.5 -135.5t-246.5 -50.5t-246.5 50.5
t-202.5 135.5t-135.5 202.5t-50.5 246.5z" />
    <glyph glyph-name="ordfeminine" unicode="&#xaa;" horiz-adv-x="749" 
d="M340 668q60 0 100 55v129l-88 -16q-80 -16 -80 -92t68 -76zM446 608q-62 -88 -198 -88q-71 0 -123.5 55.5t-52.5 145.5v20q0 87 45.5 137.5t128.5 61.5l194 25v18q0 80 -127 80q-75 0 -151 -14l-27 -5l-20 17q0 12 9.5 71t16.5 82q91 19 183 19q173 0 245 -68t72 -213
v-209q0 -46 35 -49l35 -4l10 -28l-21 -101q-15 -15 -48 -28t-62 -13q-99 0 -135 88h-9z" />
    <glyph glyph-name="guillemotleft" unicode="&#xab;" horiz-adv-x="997" 
d="M489 451l228 450h190l-162 -450l162 -451h-190zM70 451l225 450h190l-159 -450l159 -451h-190z" />
    <glyph glyph-name="logicalnot" unicode="&#xac;" 
d="M102 645v199h820v-574h-199v375h-621z" />
    <glyph glyph-name="uni00AD" unicode="&#xad;" horiz-adv-x="684" 
d="M86 512v199h512v-199h-512z" />
    <glyph glyph-name="registered" unicode="&#xae;" horiz-adv-x="847" 
d="M381 1001h53q51 1 51 51t-61 50h-43v-101zM438 1186q154 0 154 -133q0 -87 -64 -115l56 -133h-111l-49 121h-43v-121h-107v381h164zM150 992q0 -116 78.5 -196.5t194.5 -80.5t195.5 80.5t79.5 196.5t-79.5 196t-195.5 80t-194.5 -80t-78.5 -196zM41 993
q0 160 111.5 271.5t271.5 111.5t271.5 -111.5t111.5 -271.5t-111.5 -271.5t-271.5 -111.5t-271.5 111.5t-111.5 271.5z" />
    <glyph glyph-name="macron" unicode="&#xaf;" horiz-adv-x="716" 
d="M106 1243v170h502v-170h-502z" />
    <glyph glyph-name="degree" unicode="&#xb0;" horiz-adv-x="806" 
d="M260 1058q0 -58 42.5 -100.5t100.5 -42.5t101 42.5t43 100.5t-42.5 101t-101.5 43t-101 -43t-42 -101zM92 1058q0 130 90 221t220 91t221.5 -91t91.5 -221t-91.5 -221.5t-221.5 -91.5t-220 91.5t-90 221.5z" />
    <glyph glyph-name="plusminus" unicode="&#xb1;" 
d="M61 584v198h351v283h198v-283h353v-198h-353v-277h-198v277h-351zM61 31v198h902v-198h-902z" />
    <glyph glyph-name="uni00B2" unicode="&#xb2;" horiz-adv-x="655" 
d="M61 860v141q0 61 32 103.5t126 120.5l62 51q67 56 89.5 84.5t22.5 66.5t-30 65.5t-96 27.5t-140 -26l-23 -9l-18 8q-6 69 -10 143q0 2 61.5 27t181.5 25t197.5 -70.5t77.5 -179.5q0 -75 -21.5 -117t-56.5 -79.5t-115 -102.5l-77 -66q-29 -25 -29 -39v-6h287v-168h-521z
" />
    <glyph glyph-name="uni00B3" unicode="&#xb3;" horiz-adv-x="606" 
d="M358 1118q0 90 -131 90h-108v138h127q94 2 94 88t-117 86q-66 0 -121 -22l-20 -7l-16 8q-9 86 -15 143q100 46 226 46t195 -63t69 -165t-78 -157v-5q100 -62 100 -186t-73.5 -194t-209.5 -70t-212 26l-27 9l12 143l17 8q88 -18 147 -18q141 0 141 102z" />
    <glyph glyph-name="acute" unicode="&#xb4;" horiz-adv-x="962" 
d="M793 1475v-89l-236 -198h-156l-18 35l170 252h240z" />
    <glyph glyph-name="uni00B5" unicode="&#xb5;" horiz-adv-x="1101" 
d="M92 -410v1475h277v-721q0 -67 34 -103t99 -36q96 0 174 86v774h276v-756q0 -47 16.5 -70.5t55.5 -29.5l41 -6l12 -27l-35 -147q-17 -20 -59 -37t-86 -17q-152 0 -201 146h-10q-110 -146 -287 -146q-20 0 -30 2v-387h-277z" />
    <glyph glyph-name="paragraph" unicode="&#xb6;" horiz-adv-x="1091" 
d="M72 976q0 177 85.5 276.5t254.5 99.5h628v-168h-133v-1307h-168v1307h-153v-1307h-168v731h-51q-137 0 -216 95.5t-79 272.5z" />
    <glyph glyph-name="periodcentered" unicode="&#xb7;" horiz-adv-x="548" 
d="M115 615q0 72 45.5 117.5t114.5 45.5t114 -46t45 -118t-46 -117.5t-114 -45.5t-113.5 46t-45.5 118z" />
    <glyph glyph-name="cedilla" unicode="&#xb8;" horiz-adv-x="626" 
d="M219 -311q94 0 94 55q0 43 -57 43h-113l31 213h137l-4 -106h33q158 0 158 -150q0 -178 -228 -178q-89 0 -153 14l-23 4l15 115q61 -10 110 -10z" />
    <glyph glyph-name="uni00B9" unicode="&#xb9;" horiz-adv-x="505" 
d="M51 1409v107l221 159h129v-815h-200v549h-150z" />
    <glyph glyph-name="ordmasculine" unicode="&#xba;" horiz-adv-x="737" 
d="M272 811q0 -63 26.5 -93t70.5 -30t70 30t26 93v131q0 63 -26 93t-70 30t-70.5 -30t-26.5 -93v-131zM72 842v69q0 152 80.5 237t205.5 85h21q124 0 205.5 -85.5t81.5 -236.5v-69q0 -151 -81.5 -236.5t-205.5 -85.5h-21q-125 0 -205.5 85t-80.5 237z" />
    <glyph glyph-name="guillemotright" unicode="&#xbb;" horiz-adv-x="997" 
d="M510 0l160 451l-160 450h190l226 -450l-226 -451h-190zM90 0l160 451l-160 450h191l225 -450l-225 -451h-191z" />
    <glyph glyph-name="onequarter" unicode="&#xbc;" horiz-adv-x="1488" 
d="M852 133v172l199 506h196l-198 -510h127l59 211h125v-211h98v-168h-98v-133h-201v133h-307zM182 -25l844 1401h205l-844 -1401h-205zM51 1085v107l221 160h129v-815h-200v548h-150z" />
    <glyph glyph-name="onehalf" unicode="&#xbd;" horiz-adv-x="1552" 
d="M958 0v141q0 61 32 103.5t126 120.5l62 51q67 56 89.5 84.5t22.5 62.5q0 96 -133 96q-61 0 -133 -25l-23 -9l-18 8q-6 69 -10 143q0 2 60 26.5t182 24.5q121 0 198.5 -70t77.5 -179q0 -75 -21.5 -117t-56.5 -79.5t-115 -102.5l-77 -66q-29 -25 -29 -39v-6h287v-168h-521z
M182 -25l844 1401h205l-844 -1401h-205zM51 1085v107l221 160h129v-815h-200v548h-150z" />
    <glyph glyph-name="threequarters" unicode="&#xbe;" horiz-adv-x="1536" 
d="M899 133v172l199 506h196l-198 -510h127l59 211h125v-211h98v-168h-98v-133h-201v133h-307zM260 -25l844 1401h205l-844 -1401h-205zM358 795q0 90 -131 90h-108v137h127q94 2 94 88t-117 86q-66 0 -121 -22l-20 -7l-16 9q-9 86 -15 143q100 45 226 45t195 -63t69 -165
t-78 -157v-4q100 -63 100 -187t-73.5 -194t-209.5 -70t-212 26l-27 9l12 143l17 9q88 -19 147 -19q141 0 141 103z" />
    <glyph glyph-name="questiondown" unicode="&#xbf;" horiz-adv-x="872" 
d="M358 860q0 72 45.5 118t114.5 46t114.5 -46t45.5 -118t-45.5 -118t-114.5 -46t-114.5 46t-45.5 118zM61 -4q0 113 49 192t166 152q69 44 86 76.5t17 95.5v55h276v-137q0 -98 -32.5 -148t-129.5 -109t-126 -94t-29 -83v-10q0 -59 47.5 -94t139.5 -35t177 31l29 10l27 -13
q14 -94 22 -192q0 -3 -36.5 -18t-115 -31.5t-163.5 -16.5q-204 0 -304 95t-100 255v19z" />
    <glyph glyph-name="Agrave" unicode="&#xc0;" horiz-adv-x="1069" 
d="M412 492h243l-71 327q-12 56 -36 206l-7 50h-15q-23 -174 -41 -256zM276 1761h240l170 -252l-18 -34h-156l-236 198v88zM23 0l315 1352h393l316 -1352h-283l-59 262h-343l-57 -262h-282z" />
    <glyph glyph-name="Aacute" unicode="&#xc1;" horiz-adv-x="1069" 
d="M858 1761v-88l-235 -198h-156l-18 34l169 252h240zM412 492h243l-71 327q-12 56 -36 206l-7 50h-15q-23 -174 -41 -256zM23 0l315 1352h393l316 -1352h-283l-59 262h-343l-57 -262h-282z" />
    <glyph glyph-name="Acircumflex" unicode="&#xc2;" horiz-adv-x="1069" 
d="M412 492h243l-71 327q-12 56 -36 206l-7 50h-15q-23 -174 -41 -256zM225 1526l199 235h229l197 -235l-19 -51h-141l-151 127l-154 -127h-141zM23 0l315 1352h393l316 -1352h-283l-59 262h-343l-57 -262h-282z" />
    <glyph glyph-name="Atilde" unicode="&#xc3;" horiz-adv-x="1069" 
d="M412 492h243l-71 327q-12 56 -36 206l-7 50h-15q-23 -174 -41 -256zM676 1475q-75 0 -145 60t-115 60q-79 0 -123 -120l-125 38q59 267 248 267q73 0 148 -60.5t103 -60.5t43 6.5t37 35t41 79.5l125 -39q-63 -266 -237 -266zM23 0l315 1352h393l316 -1352h-283l-59 262
h-343l-57 -262h-282z" />
    <glyph glyph-name="Adieresis" unicode="&#xc4;" horiz-adv-x="1069" 
d="M604 1617q0 53 35 88.5t87 35.5t87 -35.5t35 -88.5t-35 -88.5t-87 -35.5t-87 35.5t-35 88.5zM412 492h243l-71 327q-12 56 -36 206l-7 50h-15q-23 -174 -41 -256zM219 1617q0 53 35.5 88.5t87.5 35.5t86.5 -35.5t34.5 -88.5t-35 -88.5t-87 -35.5t-87 35.5t-35 88.5zM23 0
l315 1352h393l316 -1352h-283l-59 262h-343l-57 -262h-282z" />
    <glyph glyph-name="Aring" unicode="&#xc5;" horiz-adv-x="1069" 
d="M446 1468q0 -37 24.5 -60.5t63.5 -23.5t63 23.5t24 60.5t-24 60.5t-63 23.5t-63.5 -23.5t-24.5 -60.5zM412 492h243l-71 327l-29 236h-43l-27 -236zM293 1476q0 84 65.5 143.5t175.5 59.5t175 -59.5t65 -142.5t-41 -136l314 -1341h-283l-59 262h-343l-57 -262h-282
l313 1339q-43 53 -43 137z" />
    <glyph glyph-name="AE" unicode="&#xc6;" horiz-adv-x="1316" 
d="M602 492v630h-29q-24 -132 -63 -288l-86 -342h178zM1257 1352v-230h-378v-323h317v-201h-317v-369h399v-229h-676v260h-235l-64 -260h-280l346 1352h888z" />
    <glyph glyph-name="Ccedilla" unicode="&#xc7;" horiz-adv-x="886" 
d="M88 614v72q0 690 528 690q102 0 174 -21l25 -7l-24 -203l-23 -12q-65 14 -131 14q-142 0 -206 -109.5t-64 -355.5v-43q0 -232 66 -333t206 -101q61 0 133 18l23 6l22 -12q17 -101 25 -201q-103 -41 -244 -41h-6l-2 -81h33q157 0 157 -150q0 -178 -227 -178q-89 0 -153 14
l-23 4l14 115q62 -10 111 -10q94 0 94 55q0 43 -57 43h-113l29 203q-274 54 -320.5 262.5t-46.5 361.5z" />
    <glyph glyph-name="Egrave" unicode="&#xc8;" horiz-adv-x="831" 
d="M162 1761h239l170 -252l-18 -34h-156l-235 198v88zM117 0v1352h655v-230h-379v-323h318v-201h-318v-369h400v-229h-676z" />
    <glyph glyph-name="Eacute" unicode="&#xc9;" horiz-adv-x="831" 
d="M729 1761v-88l-235 -198h-156l-19 34l170 252h240zM117 0v1352h655v-230h-379v-323h318v-201h-318v-369h400v-229h-676z" />
    <glyph glyph-name="Ecircumflex" unicode="&#xca;" horiz-adv-x="831" 
d="M137 1526l199 235h229l197 -235l-19 -51h-141l-151 127l-154 -127h-141zM117 0v1352h655v-230h-379v-323h318v-201h-318v-369h400v-229h-676z" />
    <glyph glyph-name="Edieresis" unicode="&#xcb;" horiz-adv-x="831" 
d="M524 1607q0 53 35 88.5t87 35.5t87 -35.5t35 -88.5t-35 -88.5t-87 -35.5t-87 35.5t-35 88.5zM139 1607q0 53 35.5 88.5t87.5 35.5t86.5 -35.5t34.5 -88.5t-35 -88.5t-87 -35.5t-87 35.5t-35 88.5zM117 0v1352h655v-230h-379v-323h318v-201h-318v-369h400v-229h-676z" />
    <glyph glyph-name="Igrave" unicode="&#xcc;" horiz-adv-x="509" 
d="M117 0v1352h276v-1352h-276zM-23 1761h240l170 -252l-18 -34h-156l-236 198v88z" />
    <glyph glyph-name="Iacute" unicode="&#xcd;" horiz-adv-x="509" 
d="M526 1761v-88l-235 -198h-156l-18 34l170 252h239zM117 0v1352h276v-1352h-276z" />
    <glyph glyph-name="Icircumflex" unicode="&#xce;" horiz-adv-x="509" 
d="M117 0v1352h276v-1352h-276zM-57 1526l198 235h230l196 -235l-18 -51h-141l-152 127l-154 -127h-141z" />
    <glyph glyph-name="Idieresis" unicode="&#xcf;" horiz-adv-x="509" 
d="M328 1609q0 53 35 88.5t87 35.5t86.5 -35.5t34.5 -88.5t-34.5 -88.5t-86.5 -35.5t-87 35.5t-35 88.5zM117 0v1352h276v-1352h-276zM-57 1609q0 53 35.5 88.5t87.5 35.5t86 -35.5t34 -88.5t-34.5 -88.5t-86.5 -35.5t-87 35.5t-35 88.5z" />
    <glyph glyph-name="Eth" unicode="&#xd0;" horiz-adv-x="1085" 
d="M393 229h135q95 0 144 59.5t49 213.5v309q0 186 -60 248.5t-180 62.5h-88v-364h139v-201h-139v-328zM0 557v201h117v594h413q222 0 344.5 -130.5t122.5 -402.5v-352q0 -229 -104.5 -348t-300.5 -119h-475v557h-117z" />
    <glyph glyph-name="Ntilde" unicode="&#xd1;" horiz-adv-x="1210" 
d="M510 1790q73 0 148 -60.5t103 -60.5t57 12t65 109l125 -39q-63 -266 -238 -266q-72 0 -145 60.5t-115 60.5q-78 0 -123 -121l-125 39q59 266 248 266zM117 0v1352h307l352 -752q15 -33 34 -101l7 -22l10 2l-10 172v701h277v-1352h-308l-352 752q-15 33 -35 100l-6 20
l-12 -2l12 -170v-700h-276z" />
    <glyph glyph-name="Ograve" unicode="&#xd2;" horiz-adv-x="1077" 
d="M369 596q0 -213 39 -302t131 -89t131 89t39 302v158q0 214 -39 303.5t-131 89.5t-131 -89.5t-39 -303.5v-158zM258 1761h240l170 -252l-19 -34h-155l-236 198v88zM88 633v84q0 334 104 496.5t334 162.5h25q232 0 335 -162.5t103 -496.5v-84q0 -334 -103 -496t-335 -162
h-25q-230 0 -334 162t-104 496z" />
    <glyph glyph-name="Oacute" unicode="&#xd3;" horiz-adv-x="1077" 
d="M827 1761v-88l-235 -198h-156l-18 34l170 252h239zM369 596q0 -213 39 -302t131 -89t131 89t39 302v158q0 214 -39 303.5t-131 89.5t-131 -89.5t-39 -303.5v-158zM88 633v84q0 334 104 496.5t334 162.5h25q232 0 335 -162.5t103 -496.5v-84q0 -334 -103 -496t-335 -162
h-25q-230 0 -334 162t-104 496z" />
    <glyph glyph-name="Ocircumflex" unicode="&#xd4;" horiz-adv-x="1077" 
d="M369 596q0 -213 39 -302t131 -89t131 89t39 302v158q0 214 -39 303.5t-131 89.5t-131 -89.5t-39 -303.5v-158zM223 1526l199 235h229l197 -235l-19 -51h-141l-151 127l-154 -127h-141zM88 633v84q0 334 104 496.5t334 162.5h25q232 0 335 -162.5t103 -496.5v-84
q0 -334 -103 -496t-335 -162h-25q-230 0 -334 162t-104 496z" />
    <glyph glyph-name="Otilde" unicode="&#xd5;" horiz-adv-x="1077" 
d="M369 596q0 -213 39 -302t131 -89t131 89t39 302v158q0 214 -39 303.5t-131 89.5t-131 -89.5t-39 -303.5v-158zM676 1485q-72 0 -145 60.5t-115 60.5q-78 0 -123 -121l-125 39q59 266 248 266q73 0 148 -60.5t103 -60.5t43 6.5t37 35t41 79.5l125 -39q-63 -266 -237 -266z
M88 633v84q0 334 104 496.5t334 162.5h25q232 0 335 -162.5t103 -496.5v-84q0 -334 -103 -496t-335 -162h-25q-230 0 -334 162t-104 496z" />
    <glyph glyph-name="Odieresis" unicode="&#xd6;" horiz-adv-x="1077" 
d="M606 1605q0 53 35 88.5t87 35.5t87 -35.5t35 -88.5t-35 -88.5t-87 -35.5t-87 35.5t-35 88.5zM369 596q0 -213 39 -302t131 -89t131 89t39 302v158q0 214 -39 303.5t-131 89.5t-131 -89.5t-39 -303.5v-158zM221 1605q0 53 35.5 88.5t87.5 35.5t86.5 -35.5t34.5 -88.5
t-35 -88.5t-87 -35.5t-87 35.5t-35 88.5zM88 633v84q0 334 104 496.5t334 162.5h25q232 0 335 -162.5t103 -496.5v-84q0 -334 -103 -496t-335 -162h-25q-230 0 -334 162t-104 496z" />
    <glyph glyph-name="multiply" unicode="&#xd7;" 
d="M123 367l248 247l-248 248l141 142l248 -248l248 248l141 -142l-248 -248l248 -247l-141 -142l-248 248l-248 -248z" />
    <glyph glyph-name="Oslash" unicode="&#xd8;" horiz-adv-x="1077" 
d="M544 205q87 0 126 89t39 302v158q0 43 -2 63h-7l-36 -86l-246 -461q39 -65 126 -65zM369 596q0 -69 2 -98h8l33 82l256 479q-39 88 -130 88t-130 -89.5t-39 -303.5v-158zM88 633v84q0 334 104 496.5t334 162.5h25q153 0 248 -71l75 141l134 -72l-105 -192
q86 -162 86 -465v-84q0 -334 -103 -496t-335 -162h-25q-139 0 -233 60l-70 -129l-133 71l92 173q-94 158 -94 483z" />
    <glyph glyph-name="Ugrave" unicode="&#xd9;" horiz-adv-x="1105" 
d="M236 1761h239l170 -252l-18 -34h-156l-235 198v88zM113 479v873h276v-922q0 -225 164 -225t164 225v922h276v-873q0 -504 -424 -504h-34q-422 0 -422 504z" />
    <glyph glyph-name="Uacute" unicode="&#xda;" horiz-adv-x="1105" 
d="M877 1761v-88l-236 -198h-156l-18 34l170 252h240zM113 479v873h276v-922q0 -225 164 -225t164 225v922h276v-873q0 -504 -424 -504h-34q-422 0 -422 504z" />
    <glyph glyph-name="Ucircumflex" unicode="&#xdb;" horiz-adv-x="1105" 
d="M244 1526l198 235h230l196 -235l-18 -51h-141l-152 127l-154 -127h-141zM113 479v873h276v-922q0 -225 164 -225t164 225v922h276v-873q0 -504 -424 -504h-34q-422 0 -422 504z" />
    <glyph glyph-name="Udieresis" unicode="&#xdc;" horiz-adv-x="1105" 
d="M623 1603q0 53 34.5 88t86.5 35t87 -35t35 -88t-35 -88.5t-87 -35.5t-86.5 35.5t-34.5 88.5zM238 1603q0 53 35 88t87 35t86.5 -35t34.5 -88t-35 -88.5t-87 -35.5t-86.5 35.5t-34.5 88.5zM113 479v873h276v-922q0 -225 164 -225t164 225v922h276v-873q0 -504 -424 -504
h-34q-422 0 -422 504z" />
    <glyph glyph-name="Yacute" unicode="&#xdd;" horiz-adv-x="1083" 
d="M852 1761v-88l-236 -198h-155l-19 34l170 252h240zM680 0h-277v414l-380 938h299l159 -414q22 -54 44 -172l7 -37h19q24 141 51 209l160 414h299l-381 -938v-414z" />
    <glyph glyph-name="Thorn" unicode="&#xde;" horiz-adv-x="1013" 
d="M676 680q0 221 -193 221h-90v-487h111q172 0 172 188v78zM117 0v1352h276v-222h135q213 0 318.5 -107.5t105.5 -332.5v-86q0 -196 -97.5 -293.5t-274.5 -97.5h-187v-213h-276z" />
    <glyph glyph-name="germandbls" unicode="&#xdf;" horiz-adv-x="1140" 
d="M655 205q168 0 168 168q0 87 -100 145l-45 25q-86 47 -116.5 97.5t-32.5 122.5t21.5 115.5t73.5 99.5t66.5 88t16.5 88t-41.5 94t-122.5 38q-174 0 -174 -231v-1055h-277v1059q0 228 122 342.5t325 114.5t318.5 -92.5t115.5 -266.5q0 -83 -26.5 -140t-77.5 -113
t-62.5 -74t-11.5 -42t11.5 -37.5t41.5 -33.5l55 -33q187 -110 187 -309q0 -198 -96 -299t-308 -101l-154 7v215l25 14q47 -6 98 -6z" />
    <glyph glyph-name="agrave" unicode="&#xe0;" horiz-adv-x="1034" 
d="M328 322q0 -55 33.5 -90t89.5 -35q83 0 157 90v225l-157 -33q-123 -24 -123 -133v-24zM213 1475h240l170 -252l-19 -35h-155l-236 198v89zM51 285v32q0 280 289 318l268 35v10q0 94 -51 137t-166 43t-211 -18l-33 -6l-24 18q0 14 15 97t24 114q115 25 252 25
q254 0 362.5 -99t108.5 -311v-371q0 -49 16 -71.5t55 -28.5l41 -6l13 -27l-35 -147q-54 -54 -161 -54q-58 0 -110 38t-75 108h-8q-102 -146 -277 -146q-133 0 -213 89t-80 221z" />
    <glyph glyph-name="aacute" unicode="&#xe1;" horiz-adv-x="1034" 
d="M770 1475v-89l-235 -198h-156l-19 35l170 252h240zM328 322q0 -55 33.5 -90t89.5 -35q83 0 157 90v225l-157 -33q-123 -24 -123 -133v-24zM51 285v32q0 280 289 318l268 35v10q0 94 -51 137t-166 43t-211 -18l-33 -6l-24 18q0 14 15 97t24 114q115 25 252 25
q254 0 362.5 -99t108.5 -311v-371q0 -49 16 -71.5t55 -28.5l41 -6l13 -27l-35 -147q-54 -54 -161 -54q-58 0 -110 38t-75 108h-8q-102 -146 -277 -146q-133 0 -213 89t-80 221z" />
    <glyph glyph-name="acircumflex" unicode="&#xe2;" horiz-adv-x="1034" 
d="M328 322q0 -55 33.5 -90t89.5 -35q83 0 157 90v225l-157 -33q-123 -24 -123 -133v-24zM182 1239l199 236h229l197 -236l-19 -51h-141l-151 127l-154 -127h-141zM51 285v32q0 280 289 318l268 35v10q0 94 -51 137t-166 43t-211 -18l-33 -6l-24 18q0 14 15 97t24 114
q115 25 252 25q254 0 362.5 -99t108.5 -311v-371q0 -49 16 -71.5t55 -28.5l41 -6l13 -27l-35 -147q-54 -54 -161 -54q-58 0 -110 38t-75 108h-8q-102 -146 -277 -146q-133 0 -213 89t-80 221z" />
    <glyph glyph-name="atilde" unicode="&#xe3;" horiz-adv-x="1034" 
d="M328 322q0 -55 33.5 -90t89.5 -35q83 0 157 90v225l-157 -33q-123 -24 -123 -133v-24zM616 1194q-72 0 -145 60.5t-115 60.5q-78 0 -123 -121l-124 39q59 266 247 266q73 0 148 -60.5t103 -60.5t57 12t65 109l125 -39q-63 -266 -238 -266zM51 285v32q0 280 289 318
l268 35v10q0 94 -51 137t-166 43t-211 -18l-33 -6l-24 18q0 14 15 97t24 114q115 25 252 25q254 0 362.5 -99t108.5 -311v-371q0 -49 16 -71.5t55 -28.5l41 -6l13 -27l-35 -147q-54 -54 -161 -54q-58 0 -110 38t-75 108h-8q-102 -146 -277 -146q-133 0 -213 89t-80 221z" />
    <glyph glyph-name="adieresis" unicode="&#xe4;" horiz-adv-x="1034" 
d="M563 1320q0 54 35.5 89t87.5 35t86.5 -35.5t34.5 -88.5t-35 -88.5t-87 -35.5t-87 35t-35 89zM328 322q0 -55 33.5 -90t89.5 -35q83 0 157 90v225l-157 -33q-123 -24 -123 -133v-24zM178 1320q0 54 35 89t87 35t87 -35.5t35 -88.5t-35 -88.5t-87 -35.5t-87 35t-35 89z
M51 285v32q0 280 289 318l268 35v10q0 94 -51 137t-166 43t-211 -18l-33 -6l-24 18q0 14 15 97t24 114q115 25 252 25q254 0 362.5 -99t108.5 -311v-371q0 -49 16 -71.5t55 -28.5l41 -6l13 -27l-35 -147q-54 -54 -161 -54q-58 0 -110 38t-75 108h-8q-102 -146 -277 -146
q-133 0 -213 89t-80 221z" />
    <glyph glyph-name="aring" unicode="&#xe5;" horiz-adv-x="1034" 
d="M385 1382q0 -37 24.5 -60.5t62.5 -23.5t62.5 23.5t24.5 60.5t-24.5 60.5t-62.5 23.5t-62.5 -23.5t-24.5 -60.5zM328 322q0 -55 33.5 -90t89.5 -35q83 0 157 90v225l-157 -33q-123 -24 -123 -133v-24zM231 1382q0 92 65.5 151.5t175.5 59.5t175.5 -59.5t65.5 -151.5
t-65.5 -151.5t-175.5 -59.5t-175.5 59.5t-65.5 151.5zM51 285v32q0 280 289 318l268 35v10q0 94 -51 137t-166 43t-211 -18l-33 -6l-24 18q0 14 15 97t24 114q115 25 252 25q254 0 362.5 -99t108.5 -311v-371q0 -49 16 -71.5t55 -28.5l41 -6l13 -27l-35 -147
q-54 -54 -161 -54q-58 0 -110 38t-75 108h-8q-102 -146 -277 -146q-133 0 -213 89t-80 221z" />
    <glyph glyph-name="ae" unicode="&#xe6;" horiz-adv-x="1484" 
d="M885 625h282v67q0 109 -30 153t-95 44h-4q-63 0 -108 -48t-45 -149v-67zM328 322q0 -55 34 -90t90 -35t102 31t75 71q-21 89 -21 176l-149 -12q-62 -6 -96.5 -38t-34.5 -85v-18zM1057 -25q-252 0 -363 162h-10q-55 -74 -130.5 -118t-202.5 -44t-213.5 90t-86.5 220v32
q0 142 84.5 223t229.5 89l243 14v37q0 94 -51 137t-166 43t-211 -18l-33 -6l-24 18q0 14 15 97t24 114q115 25 252 25q229 0 348 -103h6q118 103 264 103h23q181 0 278 -108.5t97 -319.5v-35q0 -62 -12 -143l-5 -27h-528v-13q0 -126 49 -182.5t163 -56.5t249 45l26 -12
l21 -189q-2 -5 -40.5 -21t-122 -34.5t-173.5 -18.5z" />
    <glyph glyph-name="ccedilla" unicode="&#xe7;" horiz-adv-x="774" 
d="M544 860q-52 0 -99 -13t-80 -88t-33 -231v-24q0 -183 56 -241t134 -58q77 0 170 31l21 -13q13 -26 26 -200q-40 -18 -108.5 -33t-128.5 -15l-2 -81h32q158 0 158 -150q0 -178 -227 -178q-89 0 -153 14l-23 4l14 115q62 -10 111 -10q94 0 94 55q0 43 -57 43h-113l29 201
q-157 30 -233.5 151.5t-76.5 362.5v30q0 300 111.5 429t339.5 129q109 0 187 -24l26 -7l-25 -205l-20 -12q-78 18 -130 18z" />
    <glyph glyph-name="egrave" unicode="&#xe8;" horiz-adv-x="929" 
d="M332 618h282v74q0 109 -30 153t-95 44h-4q-63 0 -108 -48t-45 -149v-74zM195 1475h239l170 -252l-18 -35h-156l-235 198v89zM504 -25q-224 0 -336.5 129t-112.5 398v71q0 241 116.5 379t307.5 138h23q181 0 278 -108.5t97 -319.5v-35q0 -69 -14 -147l-5 -29h-526
q0 -130 49 -188t163 -58t249 45l26 -12l21 -189q-2 -5 -40.5 -21t-122 -34.5t-173.5 -18.5z" />
    <glyph glyph-name="eacute" unicode="&#xe9;" horiz-adv-x="931" 
d="M772 1475v-89l-235 -198h-156l-19 35l170 252h240zM332 618h282v74q0 109 -30 153t-95 44h-4q-63 0 -108 -48t-45 -149v-74zM504 -25q-224 0 -336.5 129t-112.5 398v71q0 241 116.5 379t307.5 138h23q181 0 278 -108.5t97 -319.5v-35q0 -69 -14 -147l-5 -29h-526
q0 -130 49 -188t163 -58t249 45l26 -12l21 -189q-2 -5 -40.5 -21t-122 -34.5t-173.5 -18.5z" />
    <glyph glyph-name="ecircumflex" unicode="&#xea;" horiz-adv-x="931" 
d="M332 618h282v74q0 109 -30 153t-95 44h-4q-63 0 -108 -48t-45 -149v-74zM174 1239l199 236h229l197 -236l-19 -51h-141l-152 127l-153 -127h-141zM504 -25q-224 0 -336.5 129t-112.5 398v71q0 241 116.5 379t307.5 138h23q181 0 278 -108.5t97 -319.5v-35q0 -69 -14 -147
l-5 -29h-526q0 -130 49 -188t163 -58t249 45l26 -12l21 -189q-2 -5 -40.5 -21t-122 -34.5t-173.5 -18.5z" />
    <glyph glyph-name="edieresis" unicode="&#xeb;" horiz-adv-x="931" 
d="M561 1318q0 54 35.5 89t87.5 35t86.5 -35.5t34.5 -88.5t-35 -88.5t-87 -35.5t-87 35t-35 89zM332 618h282v74q0 109 -30 153t-95 44h-4q-63 0 -108 -48t-45 -149v-74zM176 1318q0 54 35 89t87 35t87 -35.5t35 -88.5t-35 -88.5t-87 -35.5t-87 35t-35 89zM504 -25
q-224 0 -336.5 129t-112.5 398v71q0 241 116.5 379t307.5 138h23q181 0 278 -108.5t97 -319.5v-35q0 -69 -14 -147l-5 -29h-526q0 -130 49 -188t163 -58t249 45l26 -12l21 -189q-2 -5 -40.5 -21t-122 -34.5t-173.5 -18.5z" />
    <glyph glyph-name="igrave" unicode="&#xec;" horiz-adv-x="460" 
d="M92 0v1065h277v-1065h-277zM-53 1475h239l170 -252l-18 -35h-156l-235 198v89z" />
    <glyph glyph-name="iacute" unicode="&#xed;" horiz-adv-x="460" 
d="M520 1475v-89l-235 -198h-156l-18 35l170 252h239zM92 0v1065h277v-1065h-277z" />
    <glyph glyph-name="icircumflex" unicode="&#xee;" horiz-adv-x="460" 
d="M92 0v1065h277v-1065h-277zM-82 1239l199 236h229l197 -236l-19 -51h-141l-152 127l-153 -127h-141z" />
    <glyph glyph-name="idieresis" unicode="&#xef;" horiz-adv-x="460" 
d="M301 1316q0 54 35.5 89t87.5 35t86.5 -35.5t34.5 -88.5t-35 -88.5t-87 -35.5t-87 35t-35 89zM92 0v1065h277v-1065h-277zM-84 1316q0 54 35 89t87 35t87 -35.5t35 -88.5t-35 -88.5t-87 -35.5t-87 35t-35 89z" />
    <glyph glyph-name="eth" unicode="&#xf0;" horiz-adv-x="970" 
d="M332 406q0 -103 39.5 -156t113.5 -53t114 53t40 156v233q0 102 -40 154.5t-114 52.5t-113.5 -52.5t-39.5 -154.5v-233zM55 489v64q0 250 105 378t270 128q73 0 124 -24t75 -60l10 6q-21 136 -119 231q-124 -50 -287 -120l-55 141l203 86q-69 32 -141 49l-52 12
q13 72 27 136q229 -9 387 -105l234 98l55 -141q-27 -12 -80.5 -33.5t-77.5 -31.5q182 -198 182 -537v-277q0 -242 -111.5 -378t-303.5 -136h-29q-192 0 -304 136t-112 378z" />
    <glyph glyph-name="ntilde" unicode="&#xf1;" horiz-adv-x="1040" 
d="M651 1192q-72 0 -145 60.5t-115 60.5q-78 0 -123 -121l-125 39q59 266 248 266q73 0 148 -60.5t103 -60.5t57 12t65 109l125 -39q-63 -266 -238 -266zM92 0v1065h164l80 -123q152 148 330 148q132 0 209 -84.5t77 -223.5v-782h-276v737q0 123 -121 123q-102 0 -186 -65
v-795h-277z" />
    <glyph glyph-name="ograve" unicode="&#xf2;" horiz-adv-x="970" 
d="M445.5 868q-113.5 0 -113.5 -206v-256q0 -103 39.5 -156t113.5 -53t114 53t40 156v256q0 102 -40 154t-153.5 52zM193 1475h239l170 -252l-18 -35h-156l-235 198v89zM55 489v86q0 242 112 378.5t304 136.5h29q192 0 303.5 -136t111.5 -379v-86q0 -242 -111.5 -378
t-303.5 -136h-29q-192 0 -304 136t-112 378z" />
    <glyph glyph-name="oacute" unicode="&#xf3;" horiz-adv-x="970" 
d="M760 1475v-89l-236 -198h-155l-19 35l170 252h240zM445.5 868q-113.5 0 -113.5 -206v-256q0 -103 39.5 -156t113.5 -53t114 53t40 156v256q0 102 -40 154t-153.5 52zM55 489v86q0 242 112 378.5t304 136.5h29q192 0 303.5 -136t111.5 -379v-86q0 -242 -111.5 -378
t-303.5 -136h-29q-192 0 -304 136t-112 378z" />
    <glyph glyph-name="ocircumflex" unicode="&#xf4;" horiz-adv-x="970" 
d="M445.5 868q-113.5 0 -113.5 -206v-256q0 -103 39.5 -156t113.5 -53t114 53t40 156v256q0 102 -40 154t-153.5 52zM174 1239l199 236h229l197 -236l-19 -51h-141l-152 127l-153 -127h-141zM55 489v86q0 242 112 378.5t304 136.5h29q192 0 303.5 -136t111.5 -379v-86
q0 -242 -111.5 -378t-303.5 -136h-29q-192 0 -304 136t-112 378z" />
    <glyph glyph-name="otilde" unicode="&#xf5;" horiz-adv-x="970" 
d="M445.5 868q-113.5 0 -113.5 -206v-256q0 -103 39.5 -156t113.5 -53t114 53t40 156v256q0 102 -40 154t-153.5 52zM362 1495q49 0 100 -30.5t92.5 -60.5t64.5 -30t38 6.5t37 35t41 79.5l125 -39q-63 -266 -237 -266q-72 0 -145 60.5t-112 60.5t-69.5 -24.5t-56.5 -96.5
l-125 39q59 266 247 266zM55 489v86q0 242 112 378.5t304 136.5h29q192 0 303.5 -136t111.5 -379v-86q0 -242 -111.5 -378t-303.5 -136h-29q-192 0 -304 136t-112 378z" />
    <glyph glyph-name="odieresis" unicode="&#xf6;" horiz-adv-x="970" 
d="M555 1320q0 54 35.5 89t87.5 35t86.5 -35.5t34.5 -88.5t-35 -88.5t-87 -35.5t-87 35t-35 89zM445.5 868q-113.5 0 -113.5 -206v-256q0 -103 39.5 -156t113.5 -53t114 53t40 156v256q0 102 -40 154t-153.5 52zM170 1320q0 54 35 89t87 35t87 -35.5t35 -88.5t-35 -88.5
t-87 -35.5t-87 35t-35 89zM55 489v86q0 242 112 378.5t304 136.5h29q192 0 303.5 -136t111.5 -379v-86q0 -242 -111.5 -378t-303.5 -136h-29q-192 0 -304 136t-112 378z" />
    <glyph glyph-name="divide" unicode="&#xf7;" 
d="M383 973q0 58 36.5 94.5t92.5 36.5t93.5 -36.5t37.5 -94.5t-37.5 -95.5t-93.5 -37.5t-92.5 37.5t-36.5 95.5zM383 256q0 58 36.5 94.5t92.5 36.5t93.5 -36.5t37.5 -94.5t-37.5 -95.5t-93.5 -37.5t-92.5 37.5t-36.5 95.5zM102 512v199h820v-199h-820z" />
    <glyph glyph-name="oslash" unicode="&#xf8;" horiz-adv-x="970" 
d="M496 197q66 0 109.5 53.5t43.5 155.5v258h-8l-39 -86l-209 -359q37 -22 103 -22zM322 395h8l32 72l218 373q-38 28 -104 28t-110 -53t-44 -153v-267zM55 489v86q0 242 112 378.5t304 136.5h29q110 0 198 -48l66 113l131 -78l-82 -139q102 -133 102 -363v-86
q0 -242 -111.5 -378t-303.5 -136h-29q-107 0 -195 45l-67 -116l-129 78l80 137q-105 136 -105 370z" />
    <glyph glyph-name="ugrave" unicode="&#xf9;" horiz-adv-x="1101" 
d="M219 1475h240l170 -252l-19 -35h-155l-236 198v89zM92 338v727h277v-707q0 -153 133 -153q96 0 174 86v774h276v-756q0 -47 16.5 -70.5t55.5 -29.5l41 -6l12 -27l-35 -147q-17 -20 -59 -37t-86 -17q-152 0 -201 146h-10q-110 -146 -287 -146q-147 0 -227 92.5t-80 270.5z
" />
    <glyph glyph-name="uacute" unicode="&#xfa;" horiz-adv-x="1101" 
d="M829 1475v-89l-235 -198h-156l-18 35l170 252h239zM92 338v727h277v-707q0 -153 133 -153q96 0 174 86v774h276v-756q0 -47 16.5 -70.5t55.5 -29.5l41 -6l12 -27l-35 -147q-17 -20 -59 -37t-86 -17q-152 0 -201 146h-10q-110 -146 -287 -146q-147 0 -227 92.5t-80 270.5z
" />
    <glyph glyph-name="ucircumflex" unicode="&#xfb;" horiz-adv-x="1101" 
d="M215 1239l199 236h229l197 -236l-19 -51h-141l-152 127l-153 -127h-142zM92 338v727h277v-707q0 -153 133 -153q96 0 174 86v774h276v-756q0 -47 16.5 -70.5t55.5 -29.5l41 -6l12 -27l-35 -147q-17 -20 -59 -37t-86 -17q-152 0 -201 146h-10q-110 -146 -287 -146
q-147 0 -227 92.5t-80 270.5z" />
    <glyph glyph-name="udieresis" unicode="&#xfc;" horiz-adv-x="1101" 
d="M596 1316q0 54 35 89t87 35t87 -35.5t35 -88.5t-35 -88.5t-87 -35.5t-87 35t-35 89zM211 1316q0 54 35.5 89t87.5 35t86.5 -35.5t34.5 -88.5t-35 -88.5t-87 -35.5t-87 35t-35 89zM92 338v727h277v-707q0 -153 133 -153q96 0 174 86v774h276v-756q0 -47 16.5 -70.5
t55.5 -29.5l41 -6l12 -27l-35 -147q-17 -20 -59 -37t-86 -17q-152 0 -201 146h-10q-110 -146 -287 -146q-147 0 -227 92.5t-80 270.5z" />
    <glyph glyph-name="yacute" unicode="&#xfd;" horiz-adv-x="1019" 
d="M840 1475v-89l-236 -198h-155l-19 35l170 252h240zM264 -201q35 0 54.5 22t39.5 85l31 94l-369 1065h283l180 -549q6 -18 19 -112l4 -29h20q15 106 25 141l168 549h280l-376 -1206q-48 -155 -110 -224t-170 -69q-109 0 -186 28l-22 9l25 182l30 27q39 -13 74 -13z" />
    <glyph glyph-name="thorn" unicode="&#xfe;" horiz-adv-x="1028" 
d="M537 860q-82 0 -168 -43v-571q12 -12 60 -30.5t87 -18.5q91 0 135.5 74.5t44.5 242.5v37q0 171 -38.5 240t-120.5 69zM625 1090q348 0 348 -531v-67q0 -259 -94.5 -388t-246.5 -129t-259 93h-4v-478h-277v1844h277v-439q115 95 256 95z" />
    <glyph glyph-name="ydieresis" unicode="&#xff;" horiz-adv-x="1019" 
d="M586 1318q0 54 35 89t87 35t86.5 -35.5t34.5 -88.5t-34.5 -88.5t-86.5 -35.5t-87 35t-35 89zM201 1318q0 54 35.5 89t87.5 35t86 -35.5t34 -88.5t-34.5 -88.5t-86.5 -35.5t-87 35t-35 89zM264 -201q35 0 54.5 22t39.5 85l31 94l-369 1065h283l180 -549q6 -18 19 -112
l4 -29h20q15 106 25 141l168 549h280l-376 -1206q-48 -155 -110 -224t-170 -69q-109 0 -186 28l-22 9l25 182l30 27q39 -13 74 -13z" />
    <glyph glyph-name="OE" unicode="&#x152;" horiz-adv-x="1398" 
d="M369 596q0 -213 39 -302t131 -89t131 89t39 302v158q0 214 -39 303.5t-131 89.5t-131 -89.5t-39 -303.5v-158zM88 633v84q0 334 104 496.5t334 162.5h25q89 0 160 -24h628v-230h-403l-4 -4q46 -119 55 -319h291v-201h-289q-3 -227 -57 -367l4 -2h424v-229h-649
q-73 -25 -160 -25h-25q-230 0 -334 162t-104 496z" />
    <glyph glyph-name="oe" unicode="&#x153;" horiz-adv-x="1515" 
d="M915 618h283v74q0 109 -30 153t-95 44h-4q-63 0 -108.5 -48.5t-45.5 -148.5v-74zM445.5 868q-113.5 0 -113.5 -206v-256q0 -103 39.5 -156t113.5 -53t114 53t40 156v256q0 102 -40 154t-153.5 52zM1087 -25q-207 0 -309 111h-6q-102 -111 -272 -111h-29q-192 0 -304 136
t-112 378v86q0 242 112 378.5t304 136.5h29q174 0 276 -117h6q108 117 281 117h22q181 0 278 -108.5t97 -319.5v-35q0 -69 -14 -147l-4 -29h-527q0 -126 47.5 -186t162.5 -60q116 0 251 45l27 -12l20 -189q-2 -5 -40.5 -21t-122 -34.5t-173.5 -18.5z" />
    <glyph glyph-name="Ydieresis" unicode="&#x178;" horiz-adv-x="1083" 
d="M612 1598q0 54 35 89t87 35t87 -35.5t35 -88.5t-35 -88t-87 -35t-87 34.5t-35 88.5zM227 1598q0 54 35.5 89t87.5 35t86.5 -35.5t34.5 -88.5t-35 -88t-87 -35t-87 34.5t-35 88.5zM680 0h-277v414l-380 938h299l159 -414q22 -54 44 -172l7 -37h19q24 141 51 209l160 414
h299l-381 -938v-414z" />
    <glyph glyph-name="circumflex" unicode="&#x2c6;" horiz-adv-x="1705" 
d="M506 1239l199 236h229l196 -236l-18 -51h-141l-152 127l-153 -127h-142z" />
    <glyph glyph-name="tilde" unicode="&#x2dc;" horiz-adv-x="974" 
d="M362 1503q49 0 100 -30.5t92.5 -60.5t64.5 -30t38 6.5t37 35t41 79.5l125 -39q-63 -266 -237 -266q-72 0 -145 60.5t-112 60.5t-69.5 -24.5t-56.5 -96.5l-125 39q59 266 247 266z" />
    <glyph glyph-name="uni2000" unicode="&#x2000;" horiz-adv-x="895" 
 />
    <glyph glyph-name="uni2001" unicode="&#x2001;" horiz-adv-x="1790" 
 />
    <glyph glyph-name="uni2002" unicode="&#x2002;" horiz-adv-x="895" 
 />
    <glyph glyph-name="uni2003" unicode="&#x2003;" horiz-adv-x="1790" 
 />
    <glyph glyph-name="uni2004" unicode="&#x2004;" horiz-adv-x="596" 
 />
    <glyph glyph-name="uni2005" unicode="&#x2005;" horiz-adv-x="447" 
 />
    <glyph glyph-name="uni2006" unicode="&#x2006;" horiz-adv-x="298" 
 />
    <glyph glyph-name="uni2007" unicode="&#x2007;" horiz-adv-x="298" 
 />
    <glyph glyph-name="uni2008" unicode="&#x2008;" horiz-adv-x="223" 
 />
    <glyph glyph-name="uni2009" unicode="&#x2009;" horiz-adv-x="358" 
 />
    <glyph glyph-name="uni200A" unicode="&#x200a;" horiz-adv-x="99" 
 />
    <glyph glyph-name="uni2010" unicode="&#x2010;" horiz-adv-x="684" 
d="M86 512v199h512v-199h-512z" />
    <glyph glyph-name="uni2011" unicode="&#x2011;" horiz-adv-x="684" 
d="M86 512v199h512v-199h-512z" />
    <glyph glyph-name="figuredash" unicode="&#x2012;" horiz-adv-x="684" 
d="M86 512v199h512v-199h-512z" />
    <glyph glyph-name="endash" unicode="&#x2013;" 
d="M102 512v199h820v-199h-820z" />
    <glyph glyph-name="emdash" unicode="&#x2014;" horiz-adv-x="1515" 
d="M92 512v199h1331v-199h-1331z" />
    <glyph glyph-name="quoteleft" unicode="&#x2018;" horiz-adv-x="491" 
d="M317 1169q89 -41 89 -161q0 -62 -45 -108t-115 -46t-115 46t-45 132t90 223l119 179h94v-37l-72 -219v-9z" />
    <glyph glyph-name="quoteright" unicode="&#x2019;" horiz-adv-x="491" 
d="M86 1280q0 62 45 108t115 46t115 -46t45 -132t-91 -224l-118 -178h-95v37l72 219v8q-88 41 -88 162z" />
    <glyph glyph-name="quotesinglbase" unicode="&#x201a;" horiz-adv-x="491" 
d="M86 153q0 62 45 108t115 46t115 -46t45 -131t-91 -224l-118 -178h-95v36l72 220v8q-88 41 -88 161z" />
    <glyph glyph-name="quotedblleft" unicode="&#x201c;" horiz-adv-x="890" 
d="M717 1169q88 -41 88 -161q0 -62 -45.5 -108t-115.5 -46t-114.5 46t-44.5 132t90 223l119 179h94v-37l-71 -219v-9zM317 1169q89 -41 89 -161q0 -62 -45 -108t-115 -46t-115 46t-45 132t90 223l119 179h94v-37l-72 -219v-9z" />
    <glyph glyph-name="quotedblright" unicode="&#x201d;" horiz-adv-x="890" 
d="M485 1280q0 62 45.5 108t115.5 46t114.5 -46t44.5 -132t-90 -224l-119 -178h-94v37l71 219v8q-88 41 -88 162zM86 1280q0 62 45 108t115 46t115 -46t45 -132t-91 -224l-118 -178h-95v37l72 219v8q-88 41 -88 162z" />
    <glyph glyph-name="quotedblbase" unicode="&#x201e;" horiz-adv-x="890" 
d="M485 153q0 62 45.5 108t115.5 46t114.5 -46t44.5 -132t-90 -223l-119 -178h-94v36l71 220v8q-88 41 -88 161zM86 153q0 62 45 108t115 46t115 -46t45 -131t-91 -224l-118 -178h-95v36l72 220v8q-88 41 -88 161z" />
    <glyph glyph-name="bullet" unicode="&#x2022;" horiz-adv-x="716" 
d="M127 676q0 103 66.5 169t164.5 66t165 -66t67 -169t-67 -169.5t-165 -66.5t-164.5 66.5t-66.5 169.5z" />
    <glyph glyph-name="ellipsis" unicode="&#x2026;" horiz-adv-x="1515" 
d="M1053 143q0 72 45 118t114 46t114.5 -46t45.5 -118t-45.5 -117.5t-114.5 -45.5t-114 45.5t-45 117.5zM598 143q0 72 45.5 118t114.5 46t114.5 -46t45.5 -118t-45.5 -117.5t-114.5 -45.5t-114.5 45.5t-45.5 117.5zM143 143q0 72 45.5 118t114.5 46t114.5 -46t45.5 -118
t-45.5 -117.5t-114.5 -45.5t-114.5 45.5t-45.5 117.5z" />
    <glyph glyph-name="uni202F" unicode="&#x202f;" horiz-adv-x="358" 
 />
    <glyph glyph-name="guilsinglleft" unicode="&#x2039;" horiz-adv-x="575" 
d="M70 451l225 450h190l-159 -450l159 -451h-190z" />
    <glyph glyph-name="guilsinglright" unicode="&#x203a;" horiz-adv-x="575" 
d="M90 0l160 451l-160 450h191l225 -450l-225 -451h-191z" />
    <glyph glyph-name="uni205F" unicode="&#x205f;" horiz-adv-x="447" 
 />
    <glyph glyph-name="Euro" unicode="&#x20ac;" horiz-adv-x="1015" 
d="M710 -25q-101 0 -209.5 21t-195 122.5t-112.5 307.5h-168l67 168h92v102h-159l67 168h107q34 246 164.5 356.5t361.5 110.5q108 0 208 -25l32 -8q-7 -40 -18 -110t-15 -92l-23 -13q-87 19 -181 19q-202 0 -245 -238h420l-26 -168h-408v-102h393l-22 -168h-359
q21 -119 83 -170t173 -51q58 0 143 19l27 7l23 -12q14 -105 24 -203q-143 -41 -244 -41z" />
    <glyph glyph-name="trademark" unicode="&#x2122;" horiz-adv-x="1175" 
d="M500 676v676h196l82 -236q13 -42 23 -96l4 -21h16q13 78 27 117l82 236h196v-676h-153v260l4 131l-19 2l-24 -100l-88 -269h-66l-90 269l-22 100l-19 -2l4 -131v-260h-153zM41 1229v123h389v-123h-119v-553h-153v553h-117z" />
    <glyph glyph-name="uniE000" unicode="&#xe000;" horiz-adv-x="1064" 
d="M0 0v1065h1065v-1065h-1065z" />
    </font>
</defs>
</svg>
